<?xml version="1.0" encoding="utf-8"?>
<!-- Generator: Adobe Illustrator 21.0.0, SVG Export Plug-In . SVG Version: 6.00 Build 0)  -->
<!DOCTYPE svg PUBLIC "-//W3C//DTD SVG 1.1//EN" "http://www.w3.org/Graphics/SVG/1.1/DTD/svg11.dtd">
<svg version="1.1" id="Layer_4" xmlns="http://www.w3.org/2000/svg" xmlns:xlink="http://www.w3.org/1999/xlink" x="0px" y="0px"
	 viewBox="0 0 1615.7 737" enable-background="new 0 0 1615.7 737" xml:space="preserve">
<g>
	<polygon fill="#44AF35" points="36.9,0 36.9,737 1488.2,737 1615.7,609.4 1615.7,0 	"/>
	<g>
		<g>
			<g>
				<text transform="matrix(0 1 -1 0 1320.4399 24.0346)" fill="#FFFFFF" font-family="'OCRA'" font-size="27.196px">P1</text>
				<text transform="matrix(0 1 -1 0 171.5805 17.1596)" fill="#FFFFFF" font-family="'OCRA'" font-size="27.196px">P13</text>
				<text transform="matrix(0 1 -1 0 243.5336 17.1596)" fill="#FFFFFF" font-family="'OCRA'" font-size="27.196px">P12</text>
				<text transform="matrix(0 1 -1 0 458.6118 26.8862)" fill="#FFFFFF" font-family="'OCRA'" font-size="27.196px">5V</text>
				<text transform="matrix(0 1 -1 0 530.4243 17.1596)" fill="#FFFFFF" font-family="'OCRA'" font-size="27.196px">VCC</text>
				<text transform="matrix(0 1 -1 0 745.5571 26.894)" fill="#FFFFFF" font-family="'OCRA'" font-size="27.196px">P9</text>
				<text transform="matrix(0 1 -1 0 817.6586 26.8862)" fill="#FFFFFF" font-family="'OCRA'" font-size="27.196px">P8</text>
				<text transform="matrix(0 1 -1 0 1033.0649 26.894)" fill="#FFFFFF" font-family="'OCRA'" font-size="27.196px">P5</text>
				<text transform="matrix(0 1 -1 0 1105.0181 26.894)" fill="#FFFFFF" font-family="'OCRA'" font-size="27.196px">P4</text>
				<text transform="matrix(0 1 -1 0 1392.1118 23.8862)" fill="#FFFFFF" font-family="'OCRA'" font-size="27.196px">P0</text>
				<text transform="matrix(0 1 -1 0 315.1977 17.1596)" fill="#FFFFFF" font-family="'OCRA'" font-size="27.196px">P11</text>
				<text transform="matrix(0 1 -1 0 387.0102 17.1675)" fill="#FFFFFF" font-family="'OCRA'" font-size="27.196px">P10</text>
				<text transform="matrix(0 1 -1 0 675.4477 17.1596)" fill="#FFFFFF" font-family="'OCRA'" font-size="27.196px">GND</text>
				<text transform="matrix(0 1 -1 0 602.6586 17.1675)" fill="#FFFFFF" font-family="'OCRA'" font-size="27.196px">3V3</text>
				<text transform="matrix(0 1 -1 0 889.6039 26.8862)" fill="#FFFFFF" font-family="'OCRA'" font-size="27.196px">P7</text>
				<text transform="matrix(0 1 -1 0 961.2602 26.8862)" fill="#FFFFFF" font-family="'OCRA'" font-size="27.196px">P6</text>
				<text transform="matrix(0 1 -1 0 1176.5337 26.8862)" fill="#FFFFFF" font-family="'OCRA'" font-size="27.196px">P3</text>
				<text transform="matrix(0 1 -1 0 1248.4868 26.8862)" fill="#FFFFFF" font-family="'OCRA'" font-size="27.196px">P2</text>
			</g>
			<g>
				<text transform="matrix(0 1 -1 0 1318.2212 662.1597)" fill="#FFFFFF" font-family="'OCRA'" font-size="27.196px">P15</text>
				<text transform="matrix(0 1 -1 0 169.3618 662.1519)" fill="#FFFFFF" font-family="'OCRA'" font-size="27.196px">P31</text>
				<text transform="matrix(0 1 -1 0 241.3149 662.1597)" fill="#FFFFFF" font-family="'OCRA'" font-size="27.196px">P30</text>
				<text transform="matrix(0 1 -1 0 456.393 662.1597)" fill="#FFFFFF" font-family="'OCRA'" font-size="27.196px">P27</text>
				<text transform="matrix(0 1 -1 0 528.2055 662.1597)" fill="#FFFFFF" font-family="'OCRA'" font-size="27.196px">P26</text>
				<text transform="matrix(0 1 -1 0 743.3383 662.1675)" fill="#FFFFFF" font-family="'OCRA'" font-size="27.196px">P23</text>
				<text transform="matrix(0 1 -1 0 815.4399 662.1597)" fill="#FFFFFF" font-family="'OCRA'" font-size="27.196px">P22</text>
				<text transform="matrix(0 1 -1 0 1030.8462 662.1675)" fill="#FFFFFF" font-family="'OCRA'" font-size="27.196px">P19</text>
				<text transform="matrix(0 1 -1 0 1102.7993 662.1675)" fill="#FFFFFF" font-family="'OCRA'" font-size="27.196px">P18</text>
				<text transform="matrix(0 1 -1 0 1389.8931 662.1597)" fill="#FFFFFF" font-family="'OCRA'" font-size="27.196px">P14</text>
				<text transform="matrix(0 1 -1 0 312.9789 662.1519)" fill="#FFFFFF" font-family="'OCRA'" font-size="27.196px">P29</text>
				<text transform="matrix(0 1 -1 0 384.7914 662.1597)" fill="#FFFFFF" font-family="'OCRA'" font-size="27.196px">P28</text>
				<text transform="matrix(0 1 -1 0 673.2289 662.1597)" fill="#FFFFFF" font-family="'OCRA'" font-size="27.196px">P24</text>
				<text transform="matrix(0 1 -1 0 600.4399 662.1675)" fill="#FFFFFF" font-family="'OCRA'" font-size="27.196px">P25</text>
				<text transform="matrix(0 1 -1 0 887.3852 662.1597)" fill="#FFFFFF" font-family="'OCRA'" font-size="27.196px">P21</text>
				<text transform="matrix(0 1 -1 0 959.0414 662.1597)" fill="#FFFFFF" font-family="'OCRA'" font-size="27.196px">P20</text>
				<text transform="matrix(0 1 -1 0 1174.3149 662.1597)" fill="#FFFFFF" font-family="'OCRA'" font-size="27.196px">P17</text>
				<text transform="matrix(0 1 -1 0 1246.2681 662.1597)" fill="#FFFFFF" font-family="'OCRA'" font-size="27.196px">P16</text>
			</g>
			<g>
				<g>
					<circle fill="#B8AF82" cx="216.3" cy="46.3" r="23.4"/>
					<g>
						<rect id="rect209542-3_112_" x="210.4" y="40.4" fill="#B3B3B3" width="11.8" height="11.8"/>
						<polygon id="polygon209544-4_112_" fill="#999999" points="210.4,52.3 222.2,52.3 227.8,57.8 204.9,57.8 						"/>
						<polygon id="polygon209546-5_112_" fill="#808080" points="222.2,52.3 227.8,57.8 227.8,34.8 222.2,40.4 						"/>
						<polygon id="polygon209548-0_112_" fill="#CCCCCC" points="222.2,40.4 227.8,34.8 204.9,34.8 210.4,40.4 						"/>
						<polygon id="polygon209550-1_112_" fill="#CCCCCC" points="210.4,52.3 210.4,40.4 204.9,34.8 204.9,57.8 						"/>
					</g>
				</g>
				<g>
					<circle fill="#B8AF82" cx="288.1" cy="46.3" r="23.4"/>
					<g>
						<rect id="rect209542-3_111_" x="282.2" y="40.4" fill="#B3B3B3" width="11.8" height="11.8"/>
						<polygon id="polygon209544-4_111_" fill="#999999" points="282.3,52.3 294,52.3 299.6,57.8 276.7,57.8 						"/>
						<polygon id="polygon209546-5_111_" fill="#808080" points="294,52.3 299.6,57.8 299.6,34.8 294,40.4 						"/>
						<polygon id="polygon209548-0_111_" fill="#CCCCCC" points="294,40.4 299.6,34.8 276.7,34.8 282.3,40.4 						"/>
						<polygon id="polygon209550-1_111_" fill="#CCCCCC" points="282.3,52.3 282.3,40.4 276.7,34.8 276.7,57.8 						"/>
					</g>
				</g>
				<g>
					<circle fill="#B8AF82" cx="360" cy="46.3" r="23.4"/>
					<g>
						<rect id="rect209542-3_110_" x="354" y="40.4" fill="#B3B3B3" width="11.8" height="11.8"/>
						<polygon id="polygon209544-4_110_" fill="#999999" points="354.1,52.3 365.8,52.3 371.4,57.8 348.5,57.8 						"/>
						<polygon id="polygon209546-5_110_" fill="#808080" points="365.8,52.3 371.4,57.8 371.4,34.8 365.8,40.4 						"/>
						<polygon id="polygon209548-0_110_" fill="#CCCCCC" points="365.8,40.4 371.4,34.8 348.5,34.8 354.1,40.4 						"/>
						<polygon id="polygon209550-1_110_" fill="#CCCCCC" points="354.1,52.3 354.1,40.4 348.5,34.8 348.5,57.8 						"/>
					</g>
				</g>
				<g>
					<circle fill="#B8AF82" cx="431.8" cy="46.3" r="23.4"/>
					<g>
						<rect id="rect209542-3_109_" x="425.9" y="40.4" fill="#B3B3B3" width="11.8" height="11.8"/>
						<polygon id="polygon209544-4_109_" fill="#999999" points="425.9,52.3 437.7,52.3 443.2,57.8 420.3,57.8 						"/>
						<polygon id="polygon209546-5_109_" fill="#808080" points="437.7,52.3 443.2,57.8 443.2,34.8 437.7,40.4 						"/>
						<polygon id="polygon209548-0_109_" fill="#CCCCCC" points="437.7,40.4 443.2,34.8 420.3,34.8 425.9,40.4 						"/>
						<polygon id="polygon209550-1_109_" fill="#CCCCCC" points="425.9,52.3 425.9,40.4 420.3,34.8 420.3,57.8 						"/>
					</g>
				</g>
				<g>
					<circle fill="#B8AF82" cx="503.6" cy="46.3" r="23.4"/>
					<g>
						<rect id="rect209542-3_108_" x="497.7" y="40.4" fill="#B3B3B3" width="11.8" height="11.8"/>
						<polygon id="polygon209544-4_108_" fill="#999999" points="497.7,52.3 509.5,52.3 515.1,57.8 492.1,57.8 						"/>
						<polygon id="polygon209546-5_108_" fill="#808080" points="509.5,52.3 515.1,57.8 515.1,34.8 509.5,40.4 						"/>
						<polygon id="polygon209548-0_108_" fill="#CCCCCC" points="509.5,40.4 515.1,34.8 492.1,34.8 497.7,40.4 						"/>
						<polygon id="polygon209550-1_108_" fill="#CCCCCC" points="497.7,52.3 497.7,40.4 492.1,34.8 492.1,57.8 						"/>
					</g>
				</g>
				<g>
					<circle fill="#B8AF82" cx="575.4" cy="46.3" r="23.4"/>
					<g>
						<rect id="rect209542-3_107_" x="569.5" y="40.4" fill="#B3B3B3" width="11.8" height="11.8"/>
						<polygon id="polygon209544-4_107_" fill="#999999" points="569.5,52.3 581.3,52.3 586.9,57.8 563.9,57.8 						"/>
						<polygon id="polygon209546-5_107_" fill="#808080" points="581.3,52.3 586.9,57.8 586.9,34.8 581.3,40.4 						"/>
						<polygon id="polygon209548-0_107_" fill="#CCCCCC" points="581.3,40.4 586.9,34.8 563.9,34.8 569.5,40.4 						"/>
						<polygon id="polygon209550-1_107_" fill="#CCCCCC" points="569.5,52.3 569.5,40.4 563.9,34.8 563.9,57.8 						"/>
					</g>
				</g>
				<g>
					<circle fill="#B8AF82" cx="647.2" cy="46.3" r="23.4"/>
					<g>
						<rect id="rect209542-3_106_" x="641.3" y="40.4" fill="#B3B3B3" width="11.8" height="11.8"/>
						<polygon id="polygon209544-4_106_" fill="#999999" points="641.3,52.3 653.1,52.3 658.7,57.8 635.7,57.8 						"/>
						<polygon id="polygon209546-5_106_" fill="#808080" points="653.1,52.3 658.7,57.8 658.7,34.8 653.1,40.4 						"/>
						<polygon id="polygon209548-0_106_" fill="#CCCCCC" points="653.1,40.4 658.7,34.8 635.7,34.8 641.3,40.4 						"/>
						<polygon id="polygon209550-1_106_" fill="#CCCCCC" points="641.3,52.3 641.3,40.4 635.7,34.8 635.7,57.8 						"/>
					</g>
				</g>
				<g>
					<circle fill="#B8AF82" cx="719" cy="46.3" r="23.4"/>
					<g>
						<rect id="rect209542-3_105_" x="713.1" y="40.4" fill="#B3B3B3" width="11.8" height="11.8"/>
						<polygon id="polygon209544-4_105_" fill="#999999" points="713.1,52.3 724.9,52.3 730.5,57.8 707.5,57.8 						"/>
						<polygon id="polygon209546-5_105_" fill="#808080" points="724.9,52.3 730.5,57.8 730.5,34.8 724.9,40.4 						"/>
						<polygon id="polygon209548-0_105_" fill="#CCCCCC" points="724.9,40.4 730.5,34.8 707.5,34.8 713.1,40.4 						"/>
						<polygon id="polygon209550-1_105_" fill="#CCCCCC" points="713.1,52.3 713.1,40.4 707.5,34.8 707.5,57.8 						"/>
					</g>
				</g>
				<g>
					<circle fill="#B8AF82" cx="790.8" cy="46.3" r="23.4"/>
					<g>
						<rect id="rect209542-3_104_" x="784.9" y="40.4" fill="#B3B3B3" width="11.8" height="11.8"/>
						<polygon id="polygon209544-4_104_" fill="#999999" points="784.9,52.3 796.7,52.3 802.3,57.8 779.3,57.8 						"/>
						<polygon id="polygon209546-5_104_" fill="#808080" points="796.7,52.3 802.3,57.8 802.3,34.8 796.7,40.4 						"/>
						<polygon id="polygon209548-0_104_" fill="#CCCCCC" points="796.7,40.4 802.3,34.8 779.3,34.8 784.9,40.4 						"/>
						<polygon id="polygon209550-1_104_" fill="#CCCCCC" points="784.9,52.3 784.9,40.4 779.3,34.8 779.3,57.8 						"/>
					</g>
				</g>
				<g>
					<circle fill="#B8AF82" cx="862.6" cy="46.3" r="23.4"/>
					<g>
						<rect id="rect209542-3_103_" x="856.7" y="40.4" fill="#B3B3B3" width="11.8" height="11.8"/>
						<polygon id="polygon209544-4_103_" fill="#999999" points="856.7,52.3 868.5,52.3 874.1,57.8 851.1,57.8 						"/>
						<polygon id="polygon209546-5_103_" fill="#808080" points="868.5,52.3 874.1,57.8 874.1,34.8 868.5,40.4 						"/>
						<polygon id="polygon209548-0_103_" fill="#CCCCCC" points="868.5,40.4 874.1,34.8 851.1,34.8 856.7,40.4 						"/>
						<polygon id="polygon209550-1_103_" fill="#CCCCCC" points="856.7,52.3 856.7,40.4 851.1,34.8 851.1,57.8 						"/>
					</g>
				</g>
				<g>
					<circle fill="#B8AF82" cx="934.4" cy="46.3" r="23.4"/>
					<g>
						<rect id="rect209542-3_102_" x="928.5" y="40.4" fill="#B3B3B3" width="11.8" height="11.8"/>
						<polygon id="polygon209544-4_102_" fill="#999999" points="928.5,52.3 940.3,52.3 945.9,57.8 922.9,57.8 						"/>
						<polygon id="polygon209546-5_102_" fill="#808080" points="940.3,52.3 945.9,57.8 945.9,34.8 940.3,40.4 						"/>
						<polygon id="polygon209548-0_102_" fill="#CCCCCC" points="940.3,40.4 945.9,34.8 922.9,34.8 928.5,40.4 						"/>
						<polygon id="polygon209550-1_102_" fill="#CCCCCC" points="928.5,52.3 928.5,40.4 922.9,34.8 922.9,57.8 						"/>
					</g>
				</g>
				<g>
					<circle fill="#B8AF82" cx="1006.2" cy="46.3" r="23.4"/>
					<g>
						<rect id="rect209542-3_101_" x="1000.3" y="40.4" fill="#B3B3B3" width="11.8" height="11.8"/>
						<polygon id="polygon209544-4_101_" fill="#999999" points="1000.3,52.3 1012.1,52.3 1017.7,57.8 994.7,57.8 						"/>
						<polygon id="polygon209546-5_101_" fill="#808080" points="1012.1,52.3 1017.7,57.8 1017.7,34.8 1012.1,40.4 						"/>
						<polygon id="polygon209548-0_101_" fill="#CCCCCC" points="1012.1,40.4 1017.7,34.8 994.7,34.8 1000.3,40.4 						"/>
						<polygon id="polygon209550-1_101_" fill="#CCCCCC" points="1000.3,52.3 1000.3,40.4 994.7,34.8 994.7,57.8 						"/>
					</g>
				</g>
				<g>
					<circle fill="#B8AF82" cx="1078" cy="46.3" r="23.4"/>
					<g>
						<rect id="rect209542-3_100_" x="1072.1" y="40.4" fill="#B3B3B3" width="11.8" height="11.8"/>
						<polygon id="polygon209544-4_100_" fill="#999999" points="1072.1,52.3 1083.9,52.3 1089.5,57.8 1066.5,57.8 						"/>
						<polygon id="polygon209546-5_100_" fill="#808080" points="1083.9,52.3 1089.5,57.8 1089.5,34.8 1083.9,40.4 						"/>
						<polygon id="polygon209548-0_100_" fill="#CCCCCC" points="1083.9,40.4 1089.5,34.8 1066.5,34.8 1072.1,40.4 						"/>
						<polygon id="polygon209550-1_100_" fill="#CCCCCC" points="1072.1,52.3 1072.1,40.4 1066.5,34.8 1066.5,57.8 						"/>
					</g>
				</g>
				<g>
					<circle fill="#B8AF82" cx="1149.8" cy="46.3" r="23.4"/>
					<g>
						<rect id="rect209542-3_99_" x="1143.9" y="40.4" fill="#B3B3B3" width="11.8" height="11.8"/>
						<polygon id="polygon209544-4_99_" fill="#999999" points="1143.9,52.3 1155.7,52.3 1161.3,57.8 1138.3,57.8 						"/>
						<polygon id="polygon209546-5_99_" fill="#808080" points="1155.7,52.3 1161.3,57.8 1161.3,34.8 1155.7,40.4 						"/>
						<polygon id="polygon209548-0_99_" fill="#CCCCCC" points="1155.7,40.4 1161.3,34.8 1138.3,34.8 1143.9,40.4 						"/>
						<polygon id="polygon209550-1_99_" fill="#CCCCCC" points="1143.9,52.3 1143.9,40.4 1138.3,34.8 1138.3,57.8 						"/>
					</g>
				</g>
				<g>
					<circle fill="#B8AF82" cx="1221.6" cy="46.3" r="23.4"/>
					<g>
						<rect id="rect209542-3_98_" x="1215.7" y="40.4" fill="#B3B3B3" width="11.8" height="11.8"/>
						<polygon id="polygon209544-4_98_" fill="#999999" points="1215.7,52.3 1227.5,52.3 1233.1,57.8 1210.1,57.8 						"/>
						<polygon id="polygon209546-5_98_" fill="#808080" points="1227.5,52.3 1233.1,57.8 1233.1,34.8 1227.5,40.4 						"/>
						<polygon id="polygon209548-0_98_" fill="#CCCCCC" points="1227.5,40.4 1233.1,34.8 1210.1,34.8 1215.7,40.4 						"/>
						<polygon id="polygon209550-1_98_" fill="#CCCCCC" points="1215.7,52.3 1215.7,40.4 1210.1,34.8 1210.1,57.8 						"/>
					</g>
				</g>
				<g>
					<circle fill="#B8AF82" cx="1293.4" cy="46.3" r="23.4"/>
					<g>
						<rect id="rect209542-3_97_" x="1287.5" y="40.4" fill="#B3B3B3" width="11.8" height="11.8"/>
						<polygon id="polygon209544-4_97_" fill="#999999" points="1287.5,52.3 1299.3,52.3 1304.9,57.8 1282,57.8 						"/>
						<polygon id="polygon209546-5_97_" fill="#808080" points="1299.3,52.3 1304.9,57.8 1304.9,34.8 1299.3,40.4 						"/>
						<polygon id="polygon209548-0_97_" fill="#CCCCCC" points="1299.3,40.4 1304.9,34.8 1282,34.8 1287.5,40.4 						"/>
						<polygon id="polygon209550-1_97_" fill="#CCCCCC" points="1287.5,52.3 1287.5,40.4 1282,34.8 1282,57.8 						"/>
					</g>
				</g>
				<g>
					<circle fill="#B8AF82" cx="1365.2" cy="46.3" r="23.4"/>
					<g>
						<rect id="rect209542-3_96_" x="1359.3" y="40.4" fill="#B3B3B3" width="11.8" height="11.8"/>
						<polygon id="polygon209544-4_96_" fill="#999999" points="1359.3,52.3 1371.1,52.3 1376.7,57.8 1353.8,57.8 						"/>
						<polygon id="polygon209546-5_96_" fill="#808080" points="1371.1,52.3 1376.7,57.8 1376.7,34.8 1371.1,40.4 						"/>
						<polygon id="polygon209548-0_96_" fill="#CCCCCC" points="1371.1,40.4 1376.7,34.8 1353.8,34.8 1359.3,40.4 						"/>
						<polygon id="polygon209550-1_96_" fill="#CCCCCC" points="1359.3,52.3 1359.3,40.4 1353.8,34.8 1353.8,57.8 						"/>
					</g>
				</g>
				<g>
					<circle fill="#B8AF82" cx="1437.1" cy="46.3" r="23.4"/>
					<g>
						<rect id="rect209542-3_95_" x="1431.1" y="40.4" fill="#B3B3B3" width="11.8" height="11.8"/>
						<polygon id="polygon209544-4_95_" fill="#999999" points="1431.2,52.3 1442.9,52.3 1448.5,57.8 1425.6,57.8 						"/>
						<polygon id="polygon209546-5_95_" fill="#808080" points="1442.9,52.3 1448.5,57.8 1448.5,34.8 1442.9,40.4 						"/>
						<polygon id="polygon209548-0_95_" fill="#CCCCCC" points="1442.9,40.4 1448.5,34.8 1425.6,34.8 1431.2,40.4 						"/>
						<polygon id="polygon209550-1_95_" fill="#CCCCCC" points="1431.2,52.3 1431.2,40.4 1425.6,34.8 1425.6,57.8 						"/>
					</g>
				</g>
			</g>
			<g>
				<g>
					<circle fill="#B8AF82" cx="216.4" cy="691.3" r="23.4"/>
					<g>
						<rect id="rect209542-3_94_" x="210.5" y="685.4" fill="#B3B3B3" width="11.8" height="11.8"/>
						<polygon id="polygon209544-4_94_" fill="#999999" points="210.5,697.3 222.3,697.3 227.8,702.8 204.9,702.8 						"/>
						<polygon id="polygon209546-5_94_" fill="#808080" points="222.3,697.3 227.8,702.8 227.8,679.8 222.3,685.4 						"/>
						<polygon id="polygon209548-0_94_" fill="#CCCCCC" points="222.3,685.4 227.8,679.8 204.9,679.8 210.5,685.4 						"/>
						<polygon id="polygon209550-1_94_" fill="#CCCCCC" points="210.5,697.3 210.5,685.4 204.9,679.8 204.9,702.8 						"/>
					</g>
				</g>
				<g>
					<circle fill="#B8AF82" cx="288.2" cy="691.3" r="23.4"/>
					<g>
						<rect id="rect209542-3_93_" x="282.3" y="685.4" fill="#B3B3B3" width="11.8" height="11.8"/>
						<polygon id="polygon209544-4_93_" fill="#999999" points="282.3,697.3 294.1,697.3 299.7,702.8 276.7,702.8 						"/>
						<polygon id="polygon209546-5_93_" fill="#808080" points="294.1,697.3 299.7,702.8 299.7,679.8 294.1,685.4 						"/>
						<polygon id="polygon209548-0_93_" fill="#CCCCCC" points="294.1,685.4 299.7,679.8 276.7,679.8 282.3,685.4 						"/>
						<polygon id="polygon209550-1_93_" fill="#CCCCCC" points="282.3,697.3 282.3,685.4 276.7,679.8 276.7,702.8 						"/>
					</g>
				</g>
				<g>
					<circle fill="#B8AF82" cx="360" cy="691.3" r="23.4"/>
					<g>
						<rect id="rect209542-3_92_" x="354.1" y="685.4" fill="#B3B3B3" width="11.8" height="11.8"/>
						<polygon id="polygon209544-4_92_" fill="#999999" points="354.1,697.3 365.9,697.3 371.5,702.8 348.5,702.8 						"/>
						<polygon id="polygon209546-5_92_" fill="#808080" points="365.9,697.3 371.5,702.8 371.5,679.8 365.9,685.4 						"/>
						<polygon id="polygon209548-0_92_" fill="#CCCCCC" points="365.9,685.4 371.5,679.8 348.5,679.8 354.1,685.4 						"/>
						<polygon id="polygon209550-1_92_" fill="#CCCCCC" points="354.1,697.3 354.1,685.4 348.5,679.8 348.5,702.8 						"/>
					</g>
				</g>
				<g>
					<circle fill="#B8AF82" cx="431.8" cy="691.3" r="23.4"/>
					<g>
						<rect id="rect209542-3_91_" x="425.9" y="685.4" fill="#B3B3B3" width="11.8" height="11.8"/>
						<polygon id="polygon209544-4_91_" fill="#999999" points="425.9,697.3 437.7,697.3 443.3,702.8 420.3,702.8 						"/>
						<polygon id="polygon209546-5_91_" fill="#808080" points="437.7,697.3 443.3,702.8 443.3,679.8 437.7,685.4 						"/>
						<polygon id="polygon209548-0_91_" fill="#CCCCCC" points="437.7,685.4 443.3,679.8 420.3,679.8 425.9,685.4 						"/>
						<polygon id="polygon209550-1_91_" fill="#CCCCCC" points="425.9,697.3 425.9,685.4 420.3,679.8 420.3,702.8 						"/>
					</g>
				</g>
				<g>
					<circle fill="#B8AF82" cx="503.6" cy="691.3" r="23.4"/>
					<g>
						<rect id="rect209542-3_90_" x="497.7" y="685.4" fill="#B3B3B3" width="11.8" height="11.8"/>
						<polygon id="polygon209544-4_90_" fill="#999999" points="497.7,697.3 509.5,697.3 515.1,702.8 492.1,702.8 						"/>
						<polygon id="polygon209546-5_90_" fill="#808080" points="509.5,697.3 515.1,702.8 515.1,679.8 509.5,685.4 						"/>
						<polygon id="polygon209548-0_90_" fill="#CCCCCC" points="509.5,685.4 515.1,679.8 492.1,679.8 497.7,685.4 						"/>
						<polygon id="polygon209550-1_90_" fill="#CCCCCC" points="497.7,697.3 497.7,685.4 492.1,679.8 492.1,702.8 						"/>
					</g>
				</g>
				<g>
					<circle fill="#B8AF82" cx="575.4" cy="691.3" r="23.4"/>
					<g>
						<rect id="rect209542-3_89_" x="569.5" y="685.4" fill="#B3B3B3" width="11.8" height="11.8"/>
						<polygon id="polygon209544-4_89_" fill="#999999" points="569.5,697.3 581.3,697.3 586.9,702.8 563.9,702.8 						"/>
						<polygon id="polygon209546-5_89_" fill="#808080" points="581.3,697.3 586.9,702.8 586.9,679.8 581.3,685.4 						"/>
						<polygon id="polygon209548-0_89_" fill="#CCCCCC" points="581.3,685.4 586.9,679.8 563.9,679.8 569.5,685.4 						"/>
						<polygon id="polygon209550-1_89_" fill="#CCCCCC" points="569.5,697.3 569.5,685.4 563.9,679.8 563.9,702.8 						"/>
					</g>
				</g>
				<g>
					<circle fill="#B8AF82" cx="647.2" cy="691.3" r="23.4"/>
					<g>
						<rect id="rect209542-3_88_" x="641.3" y="685.4" fill="#B3B3B3" width="11.8" height="11.8"/>
						<polygon id="polygon209544-4_88_" fill="#999999" points="641.3,697.3 653.1,697.3 658.7,702.8 635.7,702.8 						"/>
						<polygon id="polygon209546-5_88_" fill="#808080" points="653.1,697.3 658.7,702.8 658.7,679.8 653.1,685.4 						"/>
						<polygon id="polygon209548-0_88_" fill="#CCCCCC" points="653.1,685.4 658.7,679.8 635.7,679.8 641.3,685.4 						"/>
						<polygon id="polygon209550-1_88_" fill="#CCCCCC" points="641.3,697.3 641.3,685.4 635.7,679.8 635.7,702.8 						"/>
					</g>
				</g>
				<g>
					<circle fill="#B8AF82" cx="719" cy="691.3" r="23.4"/>
					<g>
						<rect id="rect209542-3_87_" x="713.1" y="685.4" fill="#B3B3B3" width="11.8" height="11.8"/>
						<polygon id="polygon209544-4_87_" fill="#999999" points="713.1,697.3 724.9,697.3 730.5,702.8 707.5,702.8 						"/>
						<polygon id="polygon209546-5_87_" fill="#808080" points="724.9,697.3 730.5,702.8 730.5,679.8 724.9,685.4 						"/>
						<polygon id="polygon209548-0_87_" fill="#CCCCCC" points="724.9,685.4 730.5,679.8 707.5,679.8 713.1,685.4 						"/>
						<polygon id="polygon209550-1_87_" fill="#CCCCCC" points="713.1,697.3 713.1,685.4 707.5,679.8 707.5,702.8 						"/>
					</g>
				</g>
				<g>
					<circle fill="#B8AF82" cx="790.8" cy="691.3" r="23.4"/>
					<g>
						<rect id="rect209542-3_86_" x="784.9" y="685.4" fill="#B3B3B3" width="11.8" height="11.8"/>
						<polygon id="polygon209544-4_86_" fill="#999999" points="784.9,697.3 796.7,697.3 802.3,702.8 779.3,702.8 						"/>
						<polygon id="polygon209546-5_86_" fill="#808080" points="796.7,697.3 802.3,702.8 802.3,679.8 796.7,685.4 						"/>
						<polygon id="polygon209548-0_86_" fill="#CCCCCC" points="796.7,685.4 802.3,679.8 779.3,679.8 784.9,685.4 						"/>
						<polygon id="polygon209550-1_86_" fill="#CCCCCC" points="784.9,697.3 784.9,685.4 779.3,679.8 779.3,702.8 						"/>
					</g>
				</g>
				<g>
					<circle fill="#B8AF82" cx="862.6" cy="691.3" r="23.4"/>
					<g>
						<rect id="rect209542-3_85_" x="856.7" y="685.4" fill="#B3B3B3" width="11.8" height="11.8"/>
						<polygon id="polygon209544-4_85_" fill="#999999" points="856.7,697.3 868.5,697.3 874.1,702.8 851.1,702.8 						"/>
						<polygon id="polygon209546-5_85_" fill="#808080" points="868.5,697.3 874.1,702.8 874.1,679.8 868.5,685.4 						"/>
						<polygon id="polygon209548-0_85_" fill="#CCCCCC" points="868.5,685.4 874.1,679.8 851.1,679.8 856.7,685.4 						"/>
						<polygon id="polygon209550-1_85_" fill="#CCCCCC" points="856.7,697.3 856.7,685.4 851.1,679.8 851.1,702.8 						"/>
					</g>
				</g>
				<g>
					<circle fill="#B8AF82" cx="934.4" cy="691.3" r="23.4"/>
					<g>
						<rect id="rect209542-3_84_" x="928.5" y="685.4" fill="#B3B3B3" width="11.8" height="11.8"/>
						<polygon id="polygon209544-4_84_" fill="#999999" points="928.5,697.3 940.3,697.3 945.9,702.8 922.9,702.8 						"/>
						<polygon id="polygon209546-5_84_" fill="#808080" points="940.3,697.3 945.9,702.8 945.9,679.8 940.3,685.4 						"/>
						<polygon id="polygon209548-0_84_" fill="#CCCCCC" points="940.3,685.4 945.9,679.8 922.9,679.8 928.5,685.4 						"/>
						<polygon id="polygon209550-1_84_" fill="#CCCCCC" points="928.5,697.3 928.5,685.4 922.9,679.8 922.9,702.8 						"/>
					</g>
				</g>
				<g>
					<circle fill="#B8AF82" cx="1006.2" cy="691.3" r="23.4"/>
					<g>
						<rect id="rect209542-3_83_" x="1000.3" y="685.4" fill="#B3B3B3" width="11.8" height="11.8"/>
						<polygon id="polygon209544-4_83_" fill="#999999" points="1000.3,697.3 1012.1,697.3 1017.7,702.8 994.7,702.8 						"/>
						<polygon id="polygon209546-5_83_" fill="#808080" points="1012.1,697.3 1017.7,702.8 1017.7,679.8 1012.1,685.4 						"/>
						<polygon id="polygon209548-0_83_" fill="#CCCCCC" points="1012.1,685.4 1017.7,679.8 994.7,679.8 1000.3,685.4 						"/>
						<polygon id="polygon209550-1_83_" fill="#CCCCCC" points="1000.3,697.3 1000.3,685.4 994.7,679.8 994.7,702.8 						"/>
					</g>
				</g>
				<g>
					<circle fill="#B8AF82" cx="1078" cy="691.3" r="23.4"/>
					<g>
						<rect id="rect209542-3_82_" x="1072.1" y="685.4" fill="#B3B3B3" width="11.8" height="11.8"/>
						<polygon id="polygon209544-4_82_" fill="#999999" points="1072.1,697.3 1083.9,697.3 1089.5,702.8 1066.6,702.8 						"/>
						<polygon id="polygon209546-5_82_" fill="#808080" points="1083.9,697.3 1089.5,702.8 1089.5,679.8 1083.9,685.4 						"/>
						<polygon id="polygon209548-0_82_" fill="#CCCCCC" points="1083.9,685.4 1089.5,679.8 1066.6,679.8 1072.1,685.4 						"/>
						<polygon id="polygon209550-1_82_" fill="#CCCCCC" points="1072.1,697.3 1072.1,685.4 1066.6,679.8 1066.6,702.8 						"/>
					</g>
				</g>
				<g>
					<circle fill="#B8AF82" cx="1149.8" cy="691.3" r="23.4"/>
					<g>
						<rect id="rect209542-3_81_" x="1143.9" y="685.4" fill="#B3B3B3" width="11.8" height="11.8"/>
						<polygon id="polygon209544-4_81_" fill="#999999" points="1144,697.3 1155.7,697.3 1161.3,702.8 1138.4,702.8 						"/>
						<polygon id="polygon209546-5_81_" fill="#808080" points="1155.7,697.3 1161.3,702.8 1161.3,679.8 1155.7,685.4 						"/>
						<polygon id="polygon209548-0_81_" fill="#CCCCCC" points="1155.7,685.4 1161.3,679.8 1138.4,679.8 1144,685.4 						"/>
						<polygon id="polygon209550-1_81_" fill="#CCCCCC" points="1144,697.3 1144,685.4 1138.4,679.8 1138.4,702.8 						"/>
					</g>
				</g>
				<g>
					<circle fill="#B8AF82" cx="1221.7" cy="691.3" r="23.4"/>
					<g>
						<rect id="rect209542-3_79_" x="1215.7" y="685.4" fill="#B3B3B3" width="11.8" height="11.8"/>
						<polygon id="polygon209544-4_79_" fill="#999999" points="1215.8,697.3 1227.5,697.3 1233.1,702.8 1210.2,702.8 						"/>
						<polygon id="polygon209546-5_79_" fill="#808080" points="1227.5,697.3 1233.1,702.8 1233.1,679.8 1227.5,685.4 						"/>
						<polygon id="polygon209548-0_79_" fill="#CCCCCC" points="1227.5,685.4 1233.1,679.8 1210.2,679.8 1215.8,685.4 						"/>
						<polygon id="polygon209550-1_79_" fill="#CCCCCC" points="1215.8,697.3 1215.8,685.4 1210.2,679.8 1210.2,702.8 						"/>
					</g>
				</g>
				<g>
					<circle fill="#B8AF82" cx="1293.5" cy="691.3" r="23.4"/>
					<g>
						<rect id="rect209542-3_61_" x="1287.6" y="685.4" fill="#B3B3B3" width="11.8" height="11.8"/>
						<polygon id="polygon209544-4_61_" fill="#999999" points="1287.6,697.3 1299.4,697.3 1304.9,702.8 1282,702.8 						"/>
						<polygon id="polygon209546-5_61_" fill="#808080" points="1299.4,697.3 1304.9,702.8 1304.9,679.8 1299.4,685.4 						"/>
						<polygon id="polygon209548-0_61_" fill="#CCCCCC" points="1299.4,685.4 1304.9,679.8 1282,679.8 1287.6,685.4 						"/>
						<polygon id="polygon209550-1_61_" fill="#CCCCCC" points="1287.6,697.3 1287.6,685.4 1282,679.8 1282,702.8 						"/>
					</g>
				</g>
				<g>
					<circle fill="#B8AF82" cx="1365.3" cy="691.3" r="23.4"/>
					<g>
						<rect id="rect209542-3_59_" x="1359.4" y="685.4" fill="#B3B3B3" width="11.8" height="11.8"/>
						<polygon id="polygon209544-4_59_" fill="#999999" points="1359.4,697.3 1371.2,697.3 1376.8,702.8 1353.8,702.8 						"/>
						<polygon id="polygon209546-5_59_" fill="#808080" points="1371.2,697.3 1376.8,702.8 1376.8,679.8 1371.2,685.4 						"/>
						<polygon id="polygon209548-0_59_" fill="#CCCCCC" points="1371.2,685.4 1376.8,679.8 1353.8,679.8 1359.4,685.4 						"/>
						<polygon id="polygon209550-1_59_" fill="#CCCCCC" points="1359.4,697.3 1359.4,685.4 1353.8,679.8 1353.8,702.8 						"/>
					</g>
				</g>
				<g>
					<circle fill="#B8AF82" cx="1437.1" cy="691.3" r="23.4"/>
					<g>
						<rect id="rect209542-3_1_" x="1431.2" y="685.4" fill="#B3B3B3" width="11.8" height="11.8"/>
						<polygon id="polygon209544-4_1_" fill="#999999" points="1431.2,697.3 1443,697.3 1448.6,702.8 1425.6,702.8 						"/>
						<polygon id="polygon209546-5_1_" fill="#808080" points="1443,697.3 1448.6,702.8 1448.6,679.8 1443,685.4 						"/>
						<polygon id="polygon209548-0_1_" fill="#CCCCCC" points="1443,685.4 1448.6,679.8 1425.6,679.8 1431.2,685.4 						"/>
						<polygon id="polygon209550-1_1_" fill="#CCCCCC" points="1431.2,697.3 1431.2,685.4 1425.6,679.8 1425.6,702.8 						"/>
					</g>
				</g>
			</g>
			<g>
				<polygon fill="#358E25" points="1570.5,168.4 1575.3,168.4 1587.1,168.4 1587.1,86.3 1570.5,86.3 1528.9,86.3 1524.9,86.3 
					1524.9,310.2 1569.2,310.2 1569.2,168.4 				"/>
			</g>
			<g>
				<rect x="1569.2" y="167.2" fill="#E6E6E6" width="34" height="57.5"/>
				<rect x="1569.2" y="175.9" fill="#4D4D4D" width="34" height="40"/>
			</g>
			<g>
				<rect x="413.1" y="86.3" fill="#BCBEC0" width="1069.8" height="565.2"/>
				<g>
					<polygon fill="#808080" points="1472.9,96.3 1472.9,96.3 1472.9,641.5 1472.9,641.5 1482.9,651.5 1482.9,86.3 					"/>
					<polygon fill="#CCCCCC" points="423.1,96.3 423.1,96.3 423.1,641.5 423.1,641.5 413.1,651.5 413.1,86.3 					"/>
					<g>
						<polygon fill="#CCCCCC" points="1469.1,86.3 413.1,86.3 423.1,96.3 1469.1,96.3 1472.9,96.3 1472.9,96.3 1472.9,96.3 
							1482.9,86.3 						"/>
					</g>
					<g>
						<polygon fill="#999999" points="1469.1,651.5 413.1,651.5 423.1,641.5 1469.1,641.5 1472.9,641.5 1472.9,641.5 1472.9,641.5 
							1482.9,651.5 						"/>
					</g>
				</g>
				<polyline fill="#C1C3C5" points="423.1,641.5 423.1,641.5 423.1,96.3 423.1,96.3 426.8,96.3 1472.9,96.3 				"/>
				<g>
					<g>
						<g>
							<g>
								<path fill="#FFFFFF" d="M466.9,240.2v-80.1h14.3v67.2h37.5v12.9H466.9z"/>
								<path fill="#FFFFFF" d="M533.3,172c-5.9,0-8-3.2-8-7.5c0-4.3,2.2-7.5,8-7.5c5.7,0,7.9,3.2,7.9,7.5
									C541.2,168.7,538.9,172,533.3,172z M526.3,240.2v-59.7h13.7v59.7H526.3z"/>
								<path fill="#FFFFFF" d="M592.1,240.2v-36.2c0-9.4-4.1-13-10.8-13c-7.4,0-12.7,4.5-15.5,8v41.1h-13.6v-59.7h10.5l1.4,8.2
									c4.1-4.9,11.1-9.3,20.7-9.3c12.7,0,21,7.6,21,22.3v38.5H592.1z"/>
								<path fill="#FFFFFF" d="M655,240.2c-0.5-0.9-14.3-23.9-14.3-23.9h-9.3v23.9h-13.7v-83h13.7v48.4c3.1-0.3,7.5-0.7,10.1-1.8
									c3.4-2.8,12.6-23.4,12.6-23.4h14.2c-1.7,4.5-10.3,23.6-15.5,30.3l17.3,29.5H655z"/>
								<path fill="#FFFFFF" d="M677.5,240.2v-80.1h14.3v80.1H677.5z"/>
								<path fill="#FFFFFF" d="M739.2,238.8c-4.3,1.6-9.1,2.7-14.1,2.7c-9.4,0-17.8-4.3-17.8-18.2v-31.7h-7.8v-11h8l1.6-14.4H721
									v14.4h17.1l-0.6,11H721v30.4c0,6.2,4.1,7.4,8.7,7.4c3.1,0,6.3-0.9,9-2.3L739.2,238.8z"/>
							</g>
							<g>
								<path fill="#FFFFFF" d="M756.8,192.5v-26.4h-9.7v-4.8h25v4.8h-9.7v26.4H756.8z"/>
								<path fill="#FFFFFF" d="M801.4,192.5l-1-18.6l0.1-5l-2,5l-6,11.5h-3.9l-6-11.5l-2-4.9l0.1,4.9l-1,18.6h-5.4l1.6-31.2h6.1
									l7.6,15.1l1,2.6l1-2.6l7.6-15.1h6l1.6,31.2H801.4z"/>
							</g>
							<g>
								<path fill="#FFFFFF" d="M843.1,222.5c2,1.4,14.2,4.4,25.6,4.4c10,0,17.8-2.9,17.8-10.7c0-16.2-45.1-8.2-45.1-36
									c0-15.3,12.2-23.1,31.9-23.1c12.4,0,23,3.4,24.4,4l-0.7,12.8c-4.4-2.3-15.3-4.2-22.8-4.2c-10.4,0-18.5,2.9-18.5,10.1
									c0,15,45.1,7.3,45.1,36.4c0,16.3-12.2,23.6-31.7,23.6c-14.6,0-26.5-3.9-26.5-3.9L843.1,222.5z"/>
								<path fill="#FFFFFF" d="M986.3,238.5v-37.6c0-8.2-4.5-11.6-10.2-11.6c-6.6,0-11.8,4.4-14.1,7.9v41.3h-13.8v-37.6
									c0-8.3-4.4-11.6-10.2-11.6c-6.6,0-11.8,4.5-14.1,7.8v41.4h-13.7v-59.7h10.5l1.5,8c3.7-4.9,10.3-9.2,20.1-9.2
									c7.8,0,14.3,2.9,17.3,9.5c4-4.8,10.4-9.5,20.7-9.5c11.5,0,19.6,6.6,19.6,20.6v40.2H986.3z"/>
								<path fill="#FFFFFF" d="M1050.1,238.5l-1.2-7.4c-5.1,5.9-12.2,8.6-20,8.6c-11,0-20.2-5.3-20.2-16.5
									c0-13.3,12.6-17.8,26.9-17.8c4.1,0,7.9,0.5,11.5,0.9v-7c0-6.8-5.1-10.1-15.2-10.1c-6.7,0-13.5,1.5-18.4,3.5l-0.6-11.3
									c3.5-1.4,11.1-3.9,22.2-3.9c13.7,0,25.6,4.2,25.6,20.7v40.2H1050.1z M1047,214.6c-2.5-0.2-6.2-0.6-9.9-0.6
									c-7.8,0-14.8,1.9-14.8,8.7c0,6.5,6.3,7.1,9.7,7.1c7.6,0,12.2-3.5,15-6.3V214.6z"/>
								<path fill="#FFFFFF" d="M1072.6,238.5v-59.7h10.4l1.6,9c4.6-6,12.2-10.1,21.5-10.1l-0.7,12.5c-7.5,0-14.1,2.7-19.2,8.2v40.2
									H1072.6z"/>
								<path fill="#FFFFFF" d="M1148.8,237c-4.3,1.6-9.1,2.7-14.1,2.7c-9.4,0-17.8-4.3-17.8-18.2v-31.7h-7.8v-11h8l1.6-14.4h11.9
									v14.4h17.1l-0.6,11h-16.6v30.4c0,6.2,4.1,7.4,8.7,7.4c3.1,0,6.3-0.9,9-2.3L1148.8,237z"/>
								<path fill="#FFFFFF" d="M1181.6,238.5l25.5-60.4l4.1-7.7l-9.4,0.7h-27.3v-12.7h51.6l0.7,10.4l-29.1,69.7H1181.6z"/>
								<path fill="#FFFFFF" d="M1284.1,171.2c-5.8-1.6-11.2-2.2-14.7-2.2c-15,0-20.7,9.1-21.7,24.5c4.5-2.6,11-5.2,19.2-5.2
									c16.5,0,24.4,10.2,24.4,24.3c0,16.2-9.6,27.2-28.6,27.2c-24.4,0-29.5-18.2-29.5-37.6c0-29.9,11.5-45,34.5-45
									c4.5,0,11.3,0.6,17.3,2L1284.1,171.2z M1262.4,228.4c7.4,0,14.3-3.9,14.3-15.6c0-10-5.9-13.8-13.4-13.8
									c-6.2,0-12.2,2.4-15.9,5C1247.8,219.2,1251.1,228.4,1262.4,228.4z"/>
								<path fill="#FFFFFF" d="M1359.6,217c0,14.8-11.9,22.8-30.5,22.8c-19.6,0-30.4-8.5-30.4-21.8c0-10.5,6.7-17.1,15-20.4
									c-7.4-3.5-13-9-13-19.2c0-13.6,10-21.3,28.2-21.3c19.3,0,28.8,8.2,28.8,20.2c0,9.9-6.6,16.7-13.2,19.6
									C1352.8,200.3,1359.6,205.7,1359.6,217z M1313,217.2c0,7.3,6.8,11.3,16.2,11.3c9.4,0,16.1-4.1,16.1-11.6
									c0-8.8-8.4-11.4-18.3-14.2C1319.6,204.7,1313,209.5,1313,217.2z M1343.8,178.6c0-7.5-6.6-10.7-14.6-10.7
									c-8.1,0-14.5,3.2-14.5,10.7c0,8.6,7.6,11.1,17.1,13.9C1338.9,189.3,1343.8,185.3,1343.8,178.6z"/>
								<path fill="#FFFFFF" d="M1428.3,217c0,14.8-11.9,22.8-30.5,22.8c-19.6,0-30.4-8.5-30.4-21.8c0-10.5,6.7-17.1,15-20.4
									c-7.4-3.5-13-9-13-19.2c0-13.6,10-21.3,28.2-21.3c19.3,0,28.8,8.2,28.8,20.2c0,9.9-6.6,16.7-13.2,19.6
									C1421.5,200.3,1428.3,205.7,1428.3,217z M1381.7,217.2c0,7.3,6.8,11.3,16.2,11.3c9.4,0,16.1-4.1,16.1-11.6
									c0-8.8-8.4-11.4-18.3-14.2C1388.3,204.7,1381.7,209.5,1381.7,217.2z M1412.4,178.6c0-7.5-6.6-10.7-14.6-10.7
									c-8.1,0-14.5,3.2-14.5,10.7c0,8.6,7.6,11.1,17.1,13.9C1407.6,189.3,1412.4,185.3,1412.4,178.6z"/>
							</g>
						</g>
						<g>
							<g>
								<g>
									<g>
										<polygon fill="#FFFFFF" points="634.5,462.5 634.5,515.1 668.5,515.1 668.5,506.6 643.9,506.6 643.9,462.5 										"/>
										<path fill="#FFFFFF" d="M678.3,470.3c-3.9,0-5.3-2.1-5.3-4.9c0-2.8,1.4-4.9,5.3-4.9c3.7,0,5.2,2.1,5.2,4.9
											C683.5,468.1,682,470.3,678.3,470.3 M673.7,475.9h9v39.2h-9V475.9z"/>
										<path fill="#FFFFFF" d="M715.8,515.1v-23.7c0-6.2-2.7-8.6-7.1-8.6c-4.8,0-8.3,3-10.2,5.3v27h-8.9v-39.2h6.9l0.9,5.4
											c2.7-3.2,7.3-6.1,13.6-6.1c8.3,0,13.8,5,13.8,14.7v25.3H715.8z"/>
										<path fill="#FFFFFF" d="M755.8,515.1c-0.3-0.6-9.4-15.7-9.4-15.7h-6.1v15.7h-9v-54.5h9v31.8c2-0.2,4.9-0.4,6.6-1.2
											c2.2-1.9,8.3-15.3,8.3-15.3h9.3c-1.1,3-6.8,15.5-10.2,19.9l11.4,19.4H755.8z"/>
										<polygon fill="#FFFFFF" points="776.7,515.1 776.7,460.5 786.1,460.5 786.1,505.6 786.1,515.1 										"/>
										<path fill="#FFFFFF" d="M817.3,514.1c-2.8,1-6,1.8-9.2,1.8c-6.2,0-11.7-2.8-11.7-12v-20.8h-5.1v-7.2h5.3l1-9.5h7.8v9.5
											h11.2l-0.4,7.2h-10.9v20c0,4.1,2.7,4.8,5.7,4.8c2,0,4.2-0.6,5.9-1.5L817.3,514.1z"/>
										<path fill="#FFFFFF" d="M643,535.3h2.2v6.4l-0.1,1.9c1.1-1.2,2.9-2.4,5.4-2.4c3.9,0,6.4,3,6.4,8.2c0,5.4-2.8,8.5-8.2,8.5
											c-2.2,0-5.1-0.6-5.8-0.9V535.3z M645.2,555.7c1.1,0.3,2.5,0.4,3.4,0.4c3.9,0,6.1-2,6.1-6.7c0-4.2-1.8-6.3-4.5-6.3
											c-2.2,0-4,1.3-5,2.5V555.7z"/>
										<path fill="#FFFFFF" d="M658.6,561.8c0.7,0.2,1.5,0.4,2.1,0.4c2.1,0,3.1-2.2,4-4.6l-6-16.1h2.4l3.8,11.1l0.7,2.5l4.7-13.6
											h2.4l-6,16.2c-1.5,4.1-2.7,6.4-5.9,6.4c-0.7,0-1.5-0.1-2.4-0.3L658.6,561.8z"/>
										<polygon fill="#FFFFFF" points="700.4,557.6 699.7,544.8 699.7,541.3 698.4,544.8 694.2,552.7 691.5,552.7 687.3,544.8 
											685.9,541.3 686,544.8 685.3,557.6 681.5,557.6 682.6,536 686.8,536 692.1,546.5 692.8,548.2 693.5,546.5 698.8,536 
											703,536 704.1,557.6 										"/>
										<path fill="#FFFFFF" d="M721.2,556.9c-1.4,0.5-3.8,1-6,1c-5.6,0-8.2-3-8.2-8.2c0-5.4,2.7-8.6,7.6-8.6c5.1,0,7,3.1,7,6.8
											c0,0.8-0.1,1.7-0.2,2.5h-10.6c0.2,3.1,1.8,4.4,4.9,4.4c2.4,0,4.8-0.7,5.6-0.9L721.2,556.9z M717.9,547.7
											c0-2.3-1.1-3.7-3.3-3.7c-2.2,0-3.6,1.3-3.8,4h7.1V547.7z"/>
										<path fill="#FFFFFF" d="M736.3,557.6l-0.4-2.1c-1,1.2-2.8,2.4-5.2,2.4c-3.9,0-6.4-3-6.4-8.2c0-5.5,2.9-8.6,7.8-8.6
											c1.3,0,2.9,0.3,3.4,0.5l-0.1-1.6v-4.8h3.7v22.3H736.3z M735.4,544.7c-0.6-0.2-1.8-0.4-2.8-0.4c-3,0-4.7,1.6-4.7,5.5
											c0,3.3,1.3,5.1,3.5,5.1c1.8,0,3.3-1.3,3.9-2.2V544.7z"/>
										<path fill="#FFFFFF" d="M744.9,539.2c-1.6,0-2.2-0.9-2.2-2c0-1.2,0.6-2,2.2-2c1.5,0,2.1,0.9,2.1,2
											C747.1,538.3,746.5,539.2,744.9,539.2 M743.1,541.5h3.7v16.1h-3.7V541.5z"/>
										<path fill="#FFFFFF" d="M761,557.6l-0.3-2c-1.4,1.6-3.3,2.3-5.4,2.3c-3,0-5.4-1.4-5.4-4.5c0-3.6,3.4-4.8,7.2-4.8
											c1.1,0,2.1,0.1,3.1,0.2V547c0-1.8-1.4-2.7-4.1-2.7c-1.8,0-3.6,0.4-4.9,0.9l-0.2-3.1c0.9-0.4,3-1,6-1
											c3.7,0,6.9,1.1,6.9,5.6v10.8H761z M760.2,551.2c-0.7-0.1-1.7-0.2-2.7-0.2c-2.1,0-4,0.5-4,2.3c0,1.7,1.7,1.9,2.6,1.9
											c2,0,3.3-0.9,4-1.7V551.2z"/>
										<polygon fill="#FFFFFF" points="768.9,557.6 768.9,539.3 762.2,539.3 762.2,536 779.5,536 779.5,539.3 772.8,539.3 
											772.8,557.6 										"/>
										<path fill="#FFFFFF" d="M790.9,556.9c-1.4,0.5-3.9,1-6,1c-5.6,0-8.2-3-8.2-8.2c0-5.4,2.7-8.6,7.6-8.6c5.1,0,7,3.1,7,6.8
											c0,0.8-0.1,1.7-0.2,2.5h-10.6c0.2,3.1,1.8,4.4,4.9,4.4c2.4,0,4.8-0.7,5.6-0.9L790.9,556.9z M787.6,547.7
											c0-2.3-1.1-3.7-3.3-3.7c-2.2,0-3.6,1.3-3.8,4h7.1V547.7z"/>
										<path fill="#FFFFFF" d="M804.8,557.6c-0.1-0.2-3.8-6.4-3.8-6.4h-2.5v6.4h-3.7v-22.4h3.7v13c0.8-0.1,2-0.2,2.7-0.5
											c0.9-0.8,3.4-6.3,3.4-6.3h3.8c-0.5,1.2-2.8,6.4-4.2,8.2l4.7,7.9H804.8z"/>
									</g>
									<path fill="#FFFFFF" d="M826.8,477h-2.2v6h-1.4v-6H821v-1.1h5.8V477z M832.2,481l1.9-5.1h2v7.2h-1.3v-5.6h0l-2.1,5.6h-1
										l-2.1-5.6h0v5.6h-1.3v-7.2h2L832.2,481z"/>
								</g>
								<g>
									<g>
										<path fill="#FFFFFF" d="M517.8,511.1l-0.6-0.6l0,0l-14.2-14.2l-0.6-0.6l0.6-0.6l45.9-45.9c-3.7-3.4-8.5-5.2-13.5-5.2
											c-5.2,0-10.1,2-13.8,5.5l-0.4,0.4l-45.9,45.9l43.1,43.1C525.5,530.9,525.3,518.7,517.8,511.1z"/>
										<path fill="#FFFFFF" d="M475.2,495.6l45.9-45.9l0.4-0.4c3.7-3.6,8.6-5.5,13.8-5.5c5,0,9.8,1.9,13.5,5.2L502.9,495
											l-0.6,0.6l0.6,0.6l14.2,14.2l0,0l0.6,0.6c7.5,7.6,7.7,19.8,0.6,27.6L475.2,495.6z"/>
									</g>
									<path fill="#FFFFFF" d="M598.1,498.4l-0.3-0.3l-45.9-45.9l-43.1,43.1c7.8,7.1,20,6.9,27.6-0.6l0.7-0.6l0,0l14.2-14.2
										l0.6-0.6l0.6,0.6l45.9,45.9c3.4-3.7,5.2-8.5,5.2-13.5C603.7,507.1,601.7,502.1,598.1,498.4z"/>
									<g>
										<path fill="#FFFFFF" d="M534.1,529.8l-0.7,0.6l0,0l-14.2,14.2l-0.6,0.6l-0.6-0.6l-45.9-45.9c-3.4,3.7-5.2,8.5-5.2,13.5
											c0,5.2,1.9,10,5.5,13.8l0,0l0.4,0.4l45.9,45.9l43.1-43.1C553.9,522.1,541.7,522.3,534.1,529.8z"/>
									</g>
									<g>
										<path fill="#FFFFFF" d="M595.3,528.9l-43.1-43.1c-7.1,7.8-6.9,20,0.6,27.6l0.6,0.6l0,0l14.2,14.2l0.6,0.6l-0.6,0.6
											l-45.9,45.9c3.7,3.4,8.5,5.2,13.5,5.2c5.2,0,10.1-2,13.9-5.6l0.3-0.3L595.3,528.9z"/>
									</g>
									<g>
										<path fill="#FFFFFF" d="M598.1,498.4l-0.3-0.3l-45.9-45.9l-43.1,43.1c7.8,7.1,20,6.9,27.6-0.6l0.7-0.6l0,0l14.2-14.2
											l0.6-0.6l0.6,0.6l45.9,45.9c3.4-3.7,5.2-8.5,5.2-13.5C603.7,507.1,601.7,502.1,598.1,498.4z"/>
									</g>
								</g>
							</g>
							<g>
								<g>
									<g>
										<g>
											<g>
												<path fill="#FFFFFF" d="M1400.3,517.3c-12.9,0-23.3-10.4-23.3-23.3c0-12.8,10.4-23.3,23.3-23.3c7.7,0,14.5,3.7,18.8,9.5
													l10,0c-5.1-10.7-16.1-18.1-28.8-18.1c-16.2,0-29.6,12.1-31.6,27.7c-2,0-19.1,0-19.9,0c-0.8,0-0.6-0.3-0.6-0.3
													s0-13.9,0-15.5c0-1.6,1.7-2.2,1.7-2.2s19.7,0,20.7,0c0.9,0,0.3-0.5,0.3-0.5v-10.4l-0.3-0.5c0,0-19.2,0-24.4,0
													c-2.3,0-4.8,1.8-6.3,3.9c-1.9,2.6-2.5,5.5-2.5,5.5s0,53.3,0,54.4c0,1.1,1.6,1.6,1.6,1.6s7.6,0,9,0
													c1.4,0,0.5-0.2,0.5-0.2s0-26.2,0-27c0-0.8,0.5-0.5,0.5-0.5h19.9c2.1,15.6,15.4,27.6,31.6,27.6
													c12.6,0,23.5-7.2,28.7-17.8l-10.2,0.1C1414.6,513.7,1407.9,517.3,1400.3,517.3"/>
												<path fill="#FFFFFF" d="M1400.3,482.9c3.8,0,7.2,1.7,9.2,4.6l9.1,0c-2.7-7.6-9.9-13-18.4-13c-10.8,0-19.5,8.7-19.5,19.5
													c0,10.8,8.7,19.5,19.5,19.5c8.4,0,15.5-5.3,18.3-12.7l-9.5,0.1c-2,2.6-5.2,4.2-8.7,4.2c-6.1,0-11.1-5-11.1-11.1
													C1389.2,487.9,1394.2,482.9,1400.3,482.9"/>
											</g>
											<g>
												<path fill="#FFFFFF" d="M1246.6,516.1v9.7c-1.1,0.1-2.1,0.2-3.2,0.2c-18,0-32.7-14.7-32.7-32.7
													c0-18,14.7-32.7,32.7-32.7c1.1,0,2.2,0.1,3.2,0.2v9.7c-1.1-0.2-2.1-0.2-3.2-0.2c-12.7,0-23.1,10.4-23.1,23.1
													c0,12.7,10.4,23.1,23.1,23.1C1244.4,516.3,1245.5,516.2,1246.6,516.1z"/>
												<path fill="#FFFFFF" d="M1277.1,488.2h18.9v10h-18.9c2.3,10.3,11.5,18.1,22.6,18.1c1.1,0,2.2-0.1,3.3-0.2v9.7
													c-1.1,0.1-2.2,0.2-3.3,0.2c-18,0-32.7-14.7-32.7-32.7c0-18,14.7-32.7,32.7-32.7c1.1,0,2.2,0.1,3.3,0.2v9.7
													c-1.1-0.2-2.2-0.2-3.3-0.2C1288.6,470.1,1279.4,477.9,1277.1,488.2z"/>
											</g>
										</g>
									</g>
								</g>
							</g>
							<g>
								<path fill="#FFFFFF" d="M1071.5,569.6v10.8h-2.5v-23.5h15.6v2.2h-13.1v8.4h11.5v2.1H1071.5z"/>
								<path fill="#FFFFFF" d="M1103.7,579.9c-0.5,0.2-3.5,0.8-6.2,0.8c-7.4,0-10.8-4.6-10.8-12c0-7.5,3.5-12.1,11-12.1
									c2.8,0,5.6,0.6,6,0.8l-0.1,2.3c-1.4-0.5-3.7-0.9-5.7-0.9c-5,0-8.8,2.3-8.8,10c0,7.3,3.5,9.7,8.7,9.7c2.2,0,4.4-0.4,5.7-0.9
									L1103.7,579.9z"/>
								<path fill="#FFFFFF" d="M1123.4,579.9c-0.5,0.2-3.5,0.8-6.2,0.8c-7.4,0-10.8-4.6-10.8-12c0-7.5,3.5-12.1,11-12.1
									c2.8,0,5.6,0.6,6,0.8l-0.1,2.3c-1.4-0.5-3.7-0.9-5.7-0.9c-5,0-8.8,2.3-8.8,10c0,7.3,3.5,9.7,8.7,9.7c2.2,0,4.4-0.4,5.7-0.9
									L1123.4,579.9z"/>
								<path fill="#FFFFFF" d="M1133.1,580.4v-23.5h2.5v23.5H1133.1z"/>
								<path fill="#FFFFFF" d="M1140,556.9h7.7c7.9,0,10.9,5.1,10.9,11.7c0,6.6-3.1,11.7-10.9,11.7h-7.7V556.9z M1147.9,578.2
									c6.1,0,8.3-4,8.3-9.6c0-5.5-2.2-9.5-8.4-9.5h-5.3v19.1H1147.9z"/>
								<path fill="#FFFFFF" d="M1164.2,567.1c-1.1,0-1.6-0.7-1.6-1.6c0-0.8,0.5-1.5,1.6-1.5c1.1,0,1.6,0.7,1.6,1.5
									C1165.8,566.4,1165.3,567.1,1164.2,567.1z M1164.2,580.7c-1.1,0-1.6-0.7-1.6-1.6c0-0.8,0.5-1.5,1.6-1.5
									c1.1,0,1.6,0.7,1.6,1.5C1165.8,579.9,1165.3,580.7,1164.2,580.7z"/>
								<path fill="#FFFFFF" d="M1176.2,580.4v-2.2l13-17.4l1.6-1.8l-2.5,0.2h-12v-2.2h17.1v2.2l-12.9,17.3l-1.7,2l2.5-0.2h12.2v2.2
									H1176.2z"/>
								<path fill="#FFFFFF" d="M1207.5,580.4v-5.6h-10.9l-0.8-2.1l10.3-15.7h3.8v15.7h3.6v2.1h-3.6v5.6H1207.5z M1207.5,561.4
									l0-2.9l-1.7,2.7l-7.6,11.4h9.3V561.4z"/>
								<path fill="#FFFFFF" d="M1222.3,580.4v-21.3h-7.9v-2.2h18.1v2.2h-7.8v21.3H1222.3z"/>
								<path fill="#FFFFFF" d="M1234.3,571.3v-2.1h9.1v2.1H1234.3z"/>
								<path fill="#FFFFFF" d="M1247.1,580.4v-23.5h2.5v21.2h12.1v2.3H1247.1z"/>
								<path fill="#FFFFFF" d="M1264.3,580.4v-23.5h2.5v23.5H1264.3z"/>
								<path fill="#FFFFFF" d="M1287.1,580.4l-11.5-16.3l-2.3-3.8l0.3,3.7v16.4h-2.4v-23.5h2.4l11.6,16.7l2.1,3.5l-0.2-3.8v-16.4
									h2.4v23.5H1287.1z"/>
								<path fill="#FFFFFF" d="M1308.8,580.4c-0.1-0.2-7.4-10.1-7.4-10.1h-5v10.1h-2.5v-23.5h2.5v11.3c1.5,0,4.1-0.1,5.2-0.4
									c1.5-1.1,7.4-10.9,7.4-10.9h2.6c-0.8,1.6-6.5,10.6-8,12.3l8,11.2H1308.8z"/>
								<path fill="#FFFFFF" d="M1314.1,580.4v-23.5h2.5v23.5H1314.1z"/>
								<path fill="#FFFFFF" d="M1326.8,580.4v-21.3h-7.9v-2.2h18.1v2.2h-7.8v21.3H1326.8z"/>
								<path fill="#FFFFFF" d="M1338.7,577.3c0.2,0.1,3.8,1.2,7.4,1.2c3.7,0,6.4-1.3,6.4-4.3c0-6.1-14-3.4-14-11.3
									c0-4.2,3.4-6.2,8.8-6.2c3.4,0,6.4,1,6.8,1.1l-0.1,2.3c-1.5-0.7-4.9-1.2-6.6-1.2c-3.9,0-6.4,1.2-6.4,4c0,5.6,14,3,14,11.4
									c0,4.6-3.6,6.6-8.8,6.6c-4,0-7.5-1.1-7.5-1.1L1338.7,577.3z"/>
								<path fill="#FFFFFF" d="M1359.3,580.4l8.2-19.3l1.1-2.1l-3,0.2h-8.8v-2.2h14.3l0.2,1.8l-9.3,21.6H1359.3z"/>
								<path fill="#FFFFFF" d="M1387.4,559.3c-1.5-0.4-3-0.6-4-0.6c-5.1,0-7.1,3.5-7.3,9.2c1.4-0.9,3.6-1.8,6.4-1.8
									c4.7,0,7.1,2.8,7.1,6.9c0,4.8-3,7.6-7.8,7.6c-6.2,0-8.2-4.7-8.2-11.3c0-8.5,3.1-12.8,9.5-12.8c1.3,0,3,0.2,4.5,0.5
									L1387.4,559.3z M1381.8,578.6c2.6,0,5.3-1.3,5.3-5.5c0-3.6-2.3-4.9-4.9-4.9c-2.4,0-4.7,0.9-6.1,1.9
									C1376.2,575.4,1377.7,578.6,1381.8,578.6z"/>
								<path fill="#FFFFFF" d="M1409.2,574.2c0,4-3.2,6.5-8.5,6.5c-5.4,0-8.5-2.5-8.5-6.2c0-3.4,2.3-5.4,5-6.3
									c-2.5-0.9-4.4-2.5-4.4-5.7c0-3.7,2.8-6,7.8-6c5.3,0,8,2.4,8,5.7s-2.5,5.3-4.4,6C1407,569.2,1409.2,570.7,1409.2,574.2z
									 M1394.7,574.4c0,2.8,2.7,4.2,6.1,4.2c3.4,0,6-1.4,6-4.3c0-3.4-3.1-4.2-6.7-5.2C1397.3,569.8,1394.7,571.5,1394.7,574.4z
									 M1406.2,562.5c0-2.8-2.5-3.9-5.5-3.9c-3,0-5.4,1.2-5.4,3.9c0,3.2,2.9,4,6.4,4.9C1404.3,566.4,1406.2,565,1406.2,562.5z"/>
								<path fill="#FFFFFF" d="M1429.1,574.2c0,4-3.2,6.5-8.5,6.5c-5.4,0-8.5-2.5-8.5-6.2c0-3.4,2.3-5.4,5-6.3
									c-2.5-0.9-4.4-2.5-4.4-5.7c0-3.7,2.8-6,7.8-6c5.3,0,8,2.4,8,5.7s-2.5,5.3-4.4,6C1426.8,569.2,1429.1,570.7,1429.1,574.2z
									 M1414.6,574.4c0,2.8,2.7,4.2,6.1,4.2c3.4,0,6-1.4,6-4.3c0-3.4-3.1-4.2-6.7-5.2C1417.1,569.8,1414.6,571.5,1414.6,574.4z
									 M1426,562.5c0-2.8-2.5-3.9-5.5-3.9s-5.4,1.2-5.4,3.9c0,3.2,2.9,4,6.4,4.9C1424.2,566.4,1426,565,1426,562.5z"/>
							</g>
							<g>
								<g>
									<g>
										<g>
											<path fill="#FFFFFF" d="M930.2,539.7c-16.7-11.5-29.6-27.9-36.7-47.2c-3-8.2-4.9-16.9-5.6-26c-3.2,6.8-5,14.5-5,22.5
												c0,26.4,19.3,48.4,44.5,52.5c2.2,0.4,4.4,0.6,6.6,0.7c-0.8-0.5-1.6-1-2.4-1.5C931.2,540.3,930.7,540,930.2,539.7z"/>
											<path fill="#FFFFFF" d="M910.4,489c0,18.9,9.9,35.5,24.7,45c-6.9-13.4-10.8-28.6-10.8-44.7c0-16.4,4-31.9,11.2-45.5
												C920.5,453.2,910.4,470,910.4,489z"/>
											<path fill="#FFFFFF" d="M994.6,466.3c-0.7,9-2.5,17.6-5.5,25.7c-7,19.5-20.1,36.2-37,47.7c-0.5,0.3-0.9,0.6-1.4,0.9
												c-0.8,0.5-1.6,1-2.4,1.5c2.3-0.1,4.5-0.3,6.7-0.6c25.3-4.1,44.7-26,44.7-52.5C999.7,480.9,997.9,473.2,994.6,466.3z"/>
											<path fill="#FFFFFF" d="M972,489c0-19-10-35.7-25-45.1c7.1,13.6,11.1,29,11.1,45.4c0,16.1-3.9,31.2-10.7,44.6
												C962.1,524.5,972,507.9,972,489z"/>
										</g>
									</g>
								</g>
								<g>
									<g>
										<path fill="#FFFFFF" d="M946,560c-0.1,0-0.1-0.1-0.2-0.1c-0.1,0-0.1-0.1-0.2-0.1c-0.1,0-0.1-0.1-0.2-0.1
											c-1.5-1-3.2-1.6-5.1-1.8c-6.2-0.6-11.8,3.9-12.5,10.1c-0.5,4.7,1.9,9,5.8,11.1c0.2,0.1,0.4,0.2,0.6,0.3
											c0.2,0.1,0.3,0.1,0.5,0.2c5,2.2,10.6,1.1,14.5-2.3l-1.1-1.2l-1.8-1.8c-1.1,0.9-2.3,1.6-3.8,1.9c-0.7,0.2-1.3,0.2-2,0.3
											c0,0-0.1,0-0.1,0c-0.1,0-0.1,0-0.2,0c-0.2,0-0.3,0-0.5,0c-0.6,0-1.2-0.2-1.7-0.4c-2.3-0.8-4-2.6-4.7-4.7h1h10.4h2.6h1.3
											h1.7c0.1-0.3,0.1-0.7,0.2-1C951,566.1,949.1,562.3,946,560z M933.6,567c0-0.1,0-0.1,0-0.2c0.3-1.3,1-2.4,1.9-3.2
											c0,0,0.1-0.1,0.1-0.1c0,0,0.1-0.1,0.1-0.1c0,0,0.1-0.1,0.1-0.1c1.4-1.1,3.2-1.5,5-1.2c2.5,0.5,4.3,2.5,4.7,4.9H933.6z"/>
										<path fill="#FFFFFF" d="M970.7,560c-0.1,0-0.1-0.1-0.2-0.1c-0.1,0-0.1-0.1-0.2-0.1c-0.1,0-0.1-0.1-0.2-0.1
											c-1.5-1-3.2-1.6-5.1-1.8c-6.2-0.6-11.8,3.9-12.5,10.1c-0.5,4.7,1.9,9,5.8,11.1c0.2,0.1,0.4,0.2,0.6,0.3
											c0.2,0.1,0.3,0.1,0.5,0.2c5,2.2,10.6,1.1,14.5-2.3l-1.1-1.2l-1.8-1.8c-1.1,0.9-2.3,1.6-3.8,1.9c-0.7,0.2-1.3,0.2-2,0.3
											c0,0-0.1,0-0.1,0c-0.1,0-0.1,0-0.2,0c-0.2,0-0.3,0-0.5,0c-0.6,0-1.2-0.2-1.7-0.4c-2.3-0.8-4-2.6-4.7-4.7h1h10.4h2.6h1.3
											h1.7c0.1-0.3,0.1-0.7,0.2-1C975.7,566.1,973.9,562.3,970.7,560z M958.4,567c0-0.1,0-0.1,0-0.2c0.3-1.3,1-2.4,1.9-3.2
											c0,0,0.1-0.1,0.1-0.1c0,0,0.1-0.1,0.1-0.1c0,0,0.1-0.1,0.1-0.1c1.4-1.1,3.2-1.5,5-1.2c2.5,0.5,4.3,2.5,4.7,4.9H958.4z"/>
										<path fill="#FFFFFF" d="M921.3,560c-0.1,0-0.1-0.1-0.2-0.1c-0.1,0-0.1-0.1-0.2-0.1c-0.1,0-0.1-0.1-0.2-0.1
											c-1.5-1-3.2-1.6-5.1-1.8c-6.2-0.6-11.8,3.9-12.5,10.1c-0.5,4.7,1.9,9,5.8,11.1c0.2,0.1,0.4,0.2,0.6,0.3
											c0.2,0.1,0.3,0.1,0.5,0.2c5,2.2,10.6,1.1,14.5-2.3l-1.1-1.2l-1.8-1.8c-1.1,0.9-2.3,1.6-3.8,1.9c-0.7,0.2-1.3,0.2-2,0.3
											c0,0-0.1,0-0.1,0c-0.1,0-0.1,0-0.2,0c-0.2,0-0.3,0-0.5,0c-0.6,0-1.2-0.2-1.7-0.4c-2.3-0.8-4-2.6-4.7-4.7h1h10.4h2.6h1.3
											h1.7c0.1-0.3,0.1-0.7,0.2-1C926.3,566.1,924.4,562.3,921.3,560z M908.9,567c0-0.1,0-0.1,0-0.2c0.3-1.3,1-2.4,1.9-3.2
											c0,0,0.1-0.1,0.1-0.1c0,0,0.1-0.1,0.1-0.1c0,0,0.1-0.1,0.1-0.1c1.4-1.1,3.2-1.5,5-1.2c2.5,0.5,4.3,2.5,4.7,4.9H908.9z"/>
										<path fill="#FFFFFF" d="M995.1,554.7v6.9c-1.9-1.9-4.5-3.1-7.3-3.1c-5.9,0-10.6,5-10.6,11.1c0,6.1,4.8,11.1,10.6,11.1
											c2.8,0,5.4-1.2,7.3-3.1v3.1h4.9v-28.1L995.1,554.7z M988.3,575.8c-3.3,0-6-2.8-6-6.2c0-3.4,2.7-6.2,6-6.2
											c3.3,0,6,2.8,6,6.2C994.3,573,991.6,575.8,988.3,575.8z"/>
										<path fill="#FFFFFF" d="M894.1,571.5c1.3,0.1,2.1,0.7,2.3,1.6c0.3,1.2-0.6,2.3-1.5,2.7c-2.3,1-7.2,0.2-9.9-2l-2.4,3.6
											c3.2,2.6,6.3,3.3,9.5,3.3c5.1,0,9-2.3,9-7.2c0-7.7-9.1-6.5-11.1-7.2c-0.8-0.3-1.8-0.7-1.8-2.2c0-1.3,0.9-2.3,2.1-2.5
											c2.8-0.4,5.2,0.6,7.3,2.1l2.8-3.2c-3-2.2-5.5-2.9-8.5-2.9c-4.8,0-8.6,2.6-8.6,7.1C883.7,571.7,891.7,571.3,894.1,571.5z"
											/>
									</g>
								</g>
							</g>
						</g>
						<rect x="466.9" y="404" fill="#FFFFFF" width="962.2" height="5"/>
					</g>
				</g>
			</g>
			<g id="icon_3_">
				<g transform="matrix(1, 0, 0, 1, 100, 118.757)">
					<g>
						<g>
							<rect x="1416.2" y="394.9" fill="#F7BD13" width="5.8" height="21.2"/>
							<rect x="1416.2" y="394.9" fill="#FCE5A1" width="5.8" height="0.5"/>
							<rect x="1416.2" y="416.1" fill="#B98E0E" width="5.8" height="0.9"/>
						</g>
						<g>
							<rect x="1420.1" y="364.3" fill="#E6E6E6" width="79.4" height="79.4"/>
							<polygon opacity="0.42" fill="#FFFFFF" enable-background="new    " points="1420.1,364.3 1420.1,443.7 1421.2,442.5 
								1421.2,365.4 1498.3,365.4 1499.4,364.3 							"/>
							<polygon opacity="0.22" fill="#1D1D1B" enable-background="new    " points="1498.3,365.4 1498.3,442.5 1421.2,442.5 
								1420.1,443.7 1499.4,443.7 1499.4,364.3 							"/>
						</g>
						<rect x="1481.9" y="416.1" opacity="0.22" fill="#1D1D1B" enable-background="new    " width="16.4" height="0.5"/>
						<rect x="1481.1" y="394.9" fill="#F7BD13" width="22.2" height="21.2"/>
						<rect x="1481.1" y="394.9" fill="#FCE5A1" width="22.2" height="0.5"/>
						<g>
							<circle opacity="0.12" enable-background="new    " cx="1459.7" cy="404.9" r="28.1"/>
							<circle fill="#FEE068" cx="1459.7" cy="404" r="28.1"/>
							<circle opacity="0.49" fill="#FFFFFF" enable-background="new    " cx="1459.7" cy="403.7" r="27"/>
							<circle fill="#ECB74D" cx="1459.7" cy="404" r="27"/>
							<g>
								<g>
									<circle fill="#ECC847" cx="1459.7" cy="404" r="7.9"/>
									<path opacity="0.16" fill="#1D1D1B" enable-background="new    " d="M1467.7,404c0,4.4-3.5,7.9-7.9,7.9V404H1467.7z"/>
									<path opacity="0.25" fill="#FFFFFF" enable-background="new    " d="M1451.8,404c0-4.4,3.5-7.9,7.9-7.9v7.9H1451.8z"/>
									<circle fill="#FBC91A" cx="1459.7" cy="404" r="5.2"/>
								</g>
							</g>
						</g>
					</g>
				</g>
			</g>
		</g>
		<g>
			<rect x="55.6" y="309.1" fill="#CCCCCC" width="61.9" height="29.5"/>
			<rect x="59.4" y="312.7" fill="#F1F2F2" width="54.5" height="22.2"/>
			<rect x="73.8" y="312.7" fill="#F7E8AD" width="25.5" height="22.2"/>
		</g>
		<g>
			<rect x="55.6" y="398" fill="#CCCCCC" width="61.9" height="29.5"/>
			<rect x="59.4" y="401.7" fill="#F1F2F2" width="54.5" height="22.2"/>
			<rect x="73.8" y="401.7" fill="#F7E8AD" width="25.5" height="22.2"/>
		</g>
		<g>
			<text transform="matrix(1 0 0 1 67.1274 362.9018)" fill="#FFFFFF" font-family="'OCRA'" font-size="27.2px">ON</text>
			<text transform="matrix(1 0 0 1 47.6821 393.4878)" fill="#FFFFFF" font-family="'OCRA'" font-size="27.2px">WiFi</text>
		</g>
		<g>
			<text transform="matrix(0 1 -1 0 348.2289 541.3784)" fill="#FFFFFF" font-family="'OCRA'" font-size="27.2px">WiFi</text>
			<g>
				<g id="breadboard_5_">
					<g>
						<g>
							<g>
								<polygon fill="#A7A9AC" points="329.1,641.3 329.1,598.8 340.2,598.8 340.2,641.3 								"/>
								<polygon fill="#A7A9AC" points="255.4,561.8 255.4,519.3 266.5,519.3 266.5,561.8 								"/>
								<polygon fill="#A7A9AC" points="329.1,561.8 329.1,519.3 340.2,519.3 340.2,561.8 								"/>
								<polygon fill="#A7A9AC" points="255.4,641.3 255.4,598.8 266.5,598.8 266.5,641.3 								"/>
							</g>
							<g>
								<rect x="252.5" y="534.9" fill="#BCBEC0" width="90.7" height="90.7"/>
								<path fill="#D1D3D4" d="M343.2,618.5c0,3.9-3.2,7.1-7.1,7.1h-76.5c-3.9,0-7.1-3.2-7.1-7.1V542c0-3.9,3.2-7.1,7.1-7.1h76.5
									c3.9,0,7.1,3.2,7.1,7.1V618.5z"/>
								<path fill="#939598" d="M330.4,616.7h-65.2c-2.1,0-3.8-1.7-3.8-3.8v-65.2c0-2.1,1.7-3.8,3.8-3.8h65.2c2.1,0,3.8,1.7,3.8,3.8
									v65.2C334.2,615,332.5,616.7,330.4,616.7z M265.2,545.8c-1,0-1.8,0.8-1.8,1.8v65.2c0,1,0.8,1.8,1.8,1.8h65.2
									c1,0,1.8-0.8,1.8-1.8v-65.2c0-1-0.8-1.8-1.8-1.8H265.2z"/>
							</g>
							<g>
								<circle fill="#F9E0B2" cx="297.8" cy="580.3" r="26.5"/>
								<circle opacity="0.12" enable-background="new    " cx="297.8" cy="581.8" r="22.7"/>
								<circle fill="#FFEDCA" cx="297.8" cy="580.4" r="22.7"/>
								<path opacity="0.6" fill="#FFFFFF" enable-background="new    " d="M306,559.3c-1.8-0.7-3.6-1.2-5.6-1.4
									c-4.9-0.5-9.5,0.5-13.5,2.7l-0.5,1.3c4.5-2.4,9.6-3.5,15-2.9c1.7,0.2,3.3,0.6,4.8,1.1L306,559.3z"/>
							</g>
						</g>
					</g>
				</g>
			</g>
		</g>
		<g transform="matrix(1, 0, 0, 1, 3.79616, 7.73856)">
			<g>
				<g transform="matrix(0.5, 0, 0, 0.5, 3.40384, 3.33071)">
					<g>
						<g>
							<g>
								<rect x="470.8" y="677.8" fill="#A7A9AC" width="22.2" height="64.7"/>
								<rect x="569.8" y="677.8" fill="#A7A9AC" width="22.2" height="64.7"/>
								<rect x="668.8" y="677.8" fill="#A7A9AC" width="22.2" height="64.7"/>
							</g>
							<g>
								<g>
									<rect x="471.1" y="489.1" fill="#A7A9AC" width="22.2" height="64.7"/>
									<rect x="570.1" y="489.1" fill="#A7A9AC" width="22.2" height="64.7"/>
									<rect x="669.1" y="489.1" fill="#A7A9AC" width="22.2" height="64.7"/>
								</g>
							</g>
						</g>
						<rect x="527.1" y="603.3" fill="#A7A9AC" width="107.8" height="107.8"/>
						<g>
							<rect x="451.8" y="540.3" fill="#303030" width="258.9" height="151.1"/>
							<polygon fill="#3D3D3D" points="451.4,540.3 710.3,540.3 696.6,553.9 465.1,553.9 							"/>
							<polygon points="451.4,691.4 710.3,691.4 696.6,677.7 465.1,677.7 							"/>
							<polygon fill="#3D3D3D" points="451.4,540.3 451.4,691.4 465.1,677.7 465.1,553.9 							"/>
							<polygon points="710.3,540.3 710.3,691.4 696.6,677.7 696.6,553.9 							"/>
							<circle fill="#1F1F1F" cx="581.2" cy="618.1" r="29.2"/>
						</g>
					</g>
				</g>
			</g>
		</g>
		<g>
			<g>
				<rect x="198.4" y="273.5" fill="#A7A9AC" width="11.1" height="24.7"/>
				<rect x="134.4" y="273.5" fill="#A7A9AC" width="11.1" height="24.7"/>
			</g>
			<rect x="166.4" y="339.8" fill="#A7A9AC" width="11.1" height="17.9"/>
			<g>
				<g>
					<rect x="130.7" y="298.2" fill="#303030" width="82.4" height="41.6"/>
					<polygon points="208.1,334.8 213.1,339.8 213.1,298.2 213.1,298.2 208.1,303.2 					"/>
					<polygon points="135.7,334.8 130.7,339.8 213.1,339.8 208.1,334.8 					"/>
					<polygon fill="#3D3D3D" points="135.7,334.8 130.7,339.8 130.7,298.2 130.7,298.2 135.7,303.2 					"/>
					<polygon fill="#3D3D3D" points="208.1,303.2 213.1,298.2 130.7,298.2 135.7,303.2 					"/>
				</g>
				<circle fill="#1F1F1F" cx="203.8" cy="308" r="2"/>
			</g>
		</g>
		<g>
			<g>
				<rect x="298" y="467.8" fill="#A7A9AC" width="24.7" height="11.1"/>
				<rect x="298" y="403.9" fill="#A7A9AC" width="24.7" height="11.1"/>
			</g>
			<rect x="238.6" y="435.9" fill="#A7A9AC" width="17.9" height="11.1"/>
			<g>
				<g>
					<rect x="256.5" y="400.2" fill="#303030" width="41.6" height="82.4"/>
					<polygon points="261.5,477.6 256.5,482.6 298,482.6 298,482.6 293,477.6 					"/>
					<polygon fill="#3D3D3D" points="261.5,405.2 256.5,400.2 256.5,482.6 261.5,477.6 					"/>
					<polygon fill="#3D3D3D" points="261.5,405.2 256.5,400.2 298,400.2 298,400.2 293,405.2 					"/>
					<polygon points="293,477.6 298,482.6 298,400.2 293,405.2 					"/>
				</g>
				<circle fill="#1F1F1F" cx="288.2" cy="473.3" r="2"/>
			</g>
		</g>
		<g>
			<g>
				<rect x="198.4" y="375.6" fill="#A7A9AC" width="11.1" height="24.7"/>
				<rect x="134.4" y="375.6" fill="#A7A9AC" width="11.1" height="24.7"/>
			</g>
			<rect x="166.4" y="441.9" fill="#A7A9AC" width="11.1" height="17.9"/>
			<g>
				<g>
					<rect x="130.7" y="400.3" fill="#303030" width="82.4" height="41.6"/>
					<polygon points="208.1,436.9 213.1,441.9 213.1,400.3 213.1,400.3 208.1,405.3 					"/>
					<polygon points="135.7,436.9 130.7,441.9 213.1,441.9 208.1,436.9 					"/>
					<polygon fill="#3D3D3D" points="135.7,436.9 130.7,441.9 130.7,400.3 130.7,400.3 135.7,405.3 					"/>
					<polygon fill="#3D3D3D" points="208.1,405.3 213.1,400.3 130.7,400.3 135.7,405.3 					"/>
				</g>
				<g>
					<circle fill="#1F1F1F" cx="140" cy="432" r="2"/>
				</g>
			</g>
		</g>
		<g>
			<text transform="matrix(0 1 -1 0 348.2914 126.98)" fill="#FFFFFF" font-family="'OCRA'" font-size="27.2px">MPU</text>
			<g>
				<g id="breadboard_1_">
					<g>
						<g>
							<g>
								<polygon fill="#A7A9AC" points="329,217.2 329,174.6 340.1,174.6 340.1,217.2 								"/>
								<polygon fill="#A7A9AC" points="255.4,137.7 255.4,95.2 266.5,95.2 266.5,137.7 								"/>
								<polygon fill="#A7A9AC" points="329,137.7 329,95.1 340.1,95.1 340.1,137.7 								"/>
								<polygon fill="#A7A9AC" points="255.4,217.2 255.4,174.6 266.5,174.6 266.5,217.2 								"/>
							</g>
							<g>
								<rect x="252.4" y="110.8" fill="#BCBEC0" width="90.7" height="90.7"/>
								<path fill="#D1D3D4" d="M343.1,194.4c0,3.9-3.2,7.1-7.1,7.1h-76.5c-3.9,0-7.1-3.2-7.1-7.1v-76.5c0-3.9,3.2-7.1,7.1-7.1H336
									c3.9,0,7.1,3.2,7.1,7.1V194.4z"/>
								<path fill="#939598" d="M330.3,192.6h-65.2c-2.1,0-3.8-1.7-3.8-3.8v-65.2c0-2.1,1.7-3.8,3.8-3.8h65.2c2.1,0,3.8,1.7,3.8,3.8
									v65.2C334.2,190.9,332.4,192.6,330.3,192.6z M265.1,121.7c-1,0-1.8,0.8-1.8,1.8v65.2c0,1,0.8,1.8,1.8,1.8h65.2
									c1,0,1.8-0.8,1.8-1.8v-65.2c0-1-0.8-1.8-1.8-1.8H265.1z"/>
							</g>
							<g>
								<circle fill="#F9E0B2" cx="297.7" cy="156.2" r="26.5"/>
								<circle opacity="0.12" enable-background="new    " cx="297.8" cy="157.7" r="22.7"/>
								<circle fill="#FFEDCA" cx="297.8" cy="156.3" r="22.7"/>
								<path opacity="0.6" fill="#FFFFFF" enable-background="new    " d="M305.9,135.2c-1.8-0.7-3.6-1.2-5.6-1.4
									c-4.9-0.5-9.5,0.5-13.5,2.7l-0.5,1.3c4.5-2.4,9.6-3.5,15-2.9c1.7,0.2,3.3,0.6,4.8,1.1L305.9,135.2z"/>
							</g>
						</g>
					</g>
				</g>
			</g>
		</g>
		<g>
			<g>
				<text transform="matrix(0 1 -1 0 185.4399 551.7534)" fill="#FFFFFF" font-family="'OCRA'" font-size="27.2px">PWR</text>
				<g id="usb_3_">
					<g>
						<path fill="#D1D2D3" d="M0,468.5L2.7,487v94v94L0,693.4c-0.1,0.8,0.4,1.1,1.1,0.8l15.8-7.9h140.5c0.8,0,1.4-0.6,1.4-1.4V580.9
							V477c0-0.8-0.6-1.4-1.4-1.4H16.8l-15.8-7.9C0.4,467.3-0.1,467.7,0,468.5z"/>
						<g>
							<path fill="#F1F2F2" d="M157.3,475.6h-20.5h-21.2H16.8v8.5h21.9h76.8h21.2h20.5h1.4v-1.4v-2.8V477
								C158.7,476.2,158.1,475.6,157.3,475.6z"/>
							<path fill="#F1F2F2" d="M157.3,686.3h-20.5h-21.2H16.8v-8.5h21.9h76.8h21.2h20.5h1.4v1.4v2.8v2.8
								C158.7,685.6,158.1,686.3,157.3,686.3z"/>
						</g>
						<g>
							<rect x="2.7" y="487" fill="#B3B3B3" width="7.9" height="187.9"/>
							<rect x="2.7" y="487" fill="#F1F2F2" width="2.8" height="187.9"/>
						</g>
					</g>
					<g>
						<g>
							<rect x="23.9" y="513.3" fill="#4D4D4D" width="56.7" height="18"/>
							<rect x="23.9" y="630.5" fill="#4D4D4D" width="56.7" height="18"/>
						</g>
						<g>
							<rect x="136.1" y="520.7" fill="#B3B3B3" width="22.7" height="22.7"/>
							<rect x="136.1" y="618.4" fill="#B3B3B3" width="22.7" height="22.7"/>
						</g>
						<g>
							<rect x="158.7" y="543.4" fill="#F1F2F2" width="22.7" height="8.5"/>
							<rect x="158.7" y="609.9" fill="#F1F2F2" width="22.7" height="8.5"/>
							<rect x="158.7" y="587.8" fill="#F1F2F2" width="22.7" height="8.5"/>
							<rect x="158.7" y="565.6" fill="#F1F2F2" width="22.7" height="8.5"/>
						</g>
					</g>
				</g>
			</g>
			<g>
				<text transform="matrix(0 1 -1 0 185.4399 117.1753)" fill="#FFFFFF" font-family="'OCRA'" font-size="27.2px">HOST</text>
				<g id="usb_1_">
					<g>
						<path fill="#D1D2D3" d="M0,43.6l2.6,18.5v94v94L0,268.6c-0.1,0.8,0.4,1.1,1.1,0.8l15.8-7.9h140.5c0.8,0,1.4-0.6,1.4-1.4V156.1
							V52.2c0-0.8-0.6-1.4-1.4-1.4H16.8L1.1,42.8C0.4,42.5-0.1,42.8,0,43.6z"/>
						<g>
							<path fill="#F1F2F2" d="M157.3,50.7h-20.5h-21.2H16.8v8.5h21.9h76.8h21.2h20.5h1.4v-1.4V55v-2.8
								C158.7,51.4,158.1,50.7,157.3,50.7z"/>
							<path fill="#F1F2F2" d="M157.3,261.4h-20.5h-21.2H16.8v-8.5h21.9h76.8h21.2h20.5h1.4v1.4v2.8v2.8
								C158.7,260.8,158.1,261.4,157.3,261.4z"/>
						</g>
						<g>
							<rect x="2.7" y="62.1" fill="#B3B3B3" width="7.9" height="187.9"/>
							<rect x="2.7" y="62.1" fill="#F1F2F2" width="2.8" height="187.9"/>
						</g>
					</g>
					<g>
						<g>
							<rect x="23.9" y="88.5" fill="#4D4D4D" width="56.7" height="18"/>
							<rect x="23.9" y="205.7" fill="#4D4D4D" width="56.7" height="18"/>
						</g>
						<g>
							<rect x="136.1" y="95.9" fill="#B3B3B3" width="22.7" height="22.7"/>
							<rect x="136.1" y="193.6" fill="#B3B3B3" width="22.7" height="22.7"/>
						</g>
						<g>
							<rect x="158.7" y="118.6" fill="#F1F2F2" width="22.7" height="8.5"/>
							<rect x="158.7" y="185.1" fill="#F1F2F2" width="22.7" height="8.5"/>
							<rect x="158.7" y="162.9" fill="#F1F2F2" width="22.7" height="8.5"/>
							<rect x="158.7" y="140.7" fill="#F1F2F2" width="22.7" height="8.5"/>
						</g>
					</g>
				</g>
			</g>
		</g>
	</g>
</g>
</svg>
