<?xml version="1.0" encoding="utf-8"?>
<!-- Generator: Adobe Illustrator 21.0.0, SVG Export Plug-In . SVG Version: 6.00 Build 0)  -->
<!DOCTYPE svg PUBLIC "-//W3C//DTD SVG 1.1//EN" "http://www.w3.org/Graphics/SVG/1.1/DTD/svg11.dtd">
<svg version="1.1" id="_x37_688duo" xmlns="http://www.w3.org/2000/svg" xmlns:xlink="http://www.w3.org/1999/xlink" x="0px"
	 y="0px" viewBox="0 0 1757.5 737" enable-background="new 0 0 1757.5 737" xml:space="preserve">
<g>
	<polygon fill="#44AF35" points="34,0 34,737 1629.9,737 1757.5,609.4 1757.5,0 	"/>
	<g>
		<g>
			<g>
				<rect x="54.8" y="309.3" fill="#CCCCCC" width="61.9" height="29.5"/>
				<rect x="58.6" y="312.9" fill="#F1F2F2" width="54.5" height="22.2"/>
				<rect x="73" y="312.9" fill="#F7E8AD" width="25.5" height="22.2"/>
			</g>
			<g>
				<rect x="54.8" y="398.2" fill="#CCCCCC" width="61.9" height="29.5"/>
				<rect x="58.6" y="401.9" fill="#F1F2F2" width="54.5" height="22.2"/>
				<rect x="73" y="401.9" fill="#F7E8AD" width="25.5" height="22.2"/>
			</g>
			<g>
				<text transform="matrix(1 0 0 1 66.3408 363.0945)" fill="#FFFFFF" font-family="'OCRA'" font-size="27.2px">ON</text>
				<text transform="matrix(1 0 0 1 46.8955 393.6805)" fill="#FFFFFF" font-family="'OCRA'" font-size="27.2px">WiFi</text>
			</g>
			<g>
				<text transform="matrix(0 1 -1 0 306.3174 148.5945)" fill="#FFFFFF" font-family="'OCRA'" font-size="27.2px">MPU</text>
				<g>
					<g id="breadboard_5_">
						<g>
							<g>
								<g>
									<polygon fill="#A7A9AC" points="287,238.8 287,196.3 298.1,196.3 298.1,238.8 									"/>
									<polygon fill="#A7A9AC" points="213.4,159.3 213.4,116.8 224.5,116.8 224.5,159.3 									"/>
									<polygon fill="#A7A9AC" points="287,159.3 287,116.8 298.1,116.8 298.1,159.3 									"/>
									<polygon fill="#A7A9AC" points="213.4,238.8 213.4,196.3 224.5,196.3 224.5,238.8 									"/>
								</g>
								<g>
									<rect x="210.4" y="132.4" fill="#BCBEC0" width="90.7" height="90.7"/>
									<path fill="#D1D3D4" d="M301.1,216c0,3.9-3.2,7.1-7.1,7.1h-76.5c-3.9,0-7.1-3.2-7.1-7.1v-76.5c0-3.9,3.2-7.1,7.1-7.1H294
										c3.9,0,7.1,3.2,7.1,7.1V216z"/>
									<path fill="#939598" d="M288.4,214.2h-65.2c-2.1,0-3.8-1.7-3.8-3.8v-65.2c0-2.1,1.7-3.8,3.8-3.8h65.2
										c2.1,0,3.8,1.7,3.8,3.8v65.2C292.2,212.5,290.5,214.2,288.4,214.2z M223.2,143.3c-1,0-1.8,0.8-1.8,1.8v65.2
										c0,1,0.8,1.8,1.8,1.8h65.2c1,0,1.8-0.8,1.8-1.8v-65.2c0-1-0.8-1.8-1.8-1.8H223.2z"/>
								</g>
								<g>
									<circle fill="#F9E0B2" cx="255.8" cy="177.8" r="26.5"/>
									<circle opacity="0.12" enable-background="new    " cx="255.8" cy="179.3" r="22.7"/>
									<circle fill="#FFEDCA" cx="255.8" cy="177.9" r="22.7"/>
									<path opacity="0.6" fill="#FFFFFF" enable-background="new    " d="M263.9,156.8c-1.8-0.7-3.6-1.2-5.6-1.4
										c-4.9-0.5-9.5,0.5-13.5,2.7l-0.5,1.3c4.5-2.4,9.6-3.5,15-2.9c1.7,0.2,3.3,0.6,4.8,1.1L263.9,156.8z"/>
								</g>
							</g>
						</g>
					</g>
				</g>
			</g>
			<g>
				<text transform="matrix(0 1 -1 0 306.1845 329.6883)" fill="#FFFFFF" font-family="'OCRA'" font-size="27.2px">WiFi</text>
				<g>
					<g id="breadboard_3_">
						<g>
							<g>
								<g>
									<polygon fill="#A7A9AC" points="287,429.6 287,387.1 298.1,387.1 298.1,429.6 									"/>
									<polygon fill="#A7A9AC" points="213.4,350.1 213.4,307.6 224.5,307.6 224.5,350.1 									"/>
									<polygon fill="#A7A9AC" points="287,350.1 287,307.6 298.1,307.6 298.1,350.1 									"/>
									<polygon fill="#A7A9AC" points="213.4,429.6 213.4,387.1 224.5,387.1 224.5,429.6 									"/>
								</g>
								<g>
									<rect x="210.4" y="323.2" fill="#BCBEC0" width="90.7" height="90.7"/>
									<path fill="#D1D3D4" d="M301.1,406.9c0,3.9-3.2,7.1-7.1,7.1h-76.5c-3.9,0-7.1-3.2-7.1-7.1v-76.5c0-3.9,3.2-7.1,7.1-7.1H294
										c3.9,0,7.1,3.2,7.1,7.1V406.9z"/>
									<path fill="#939598" d="M288.4,405h-65.2c-2.1,0-3.8-1.7-3.8-3.8V336c0-2.1,1.7-3.8,3.8-3.8h65.2c2.1,0,3.8,1.7,3.8,3.8
										v65.2C292.2,403.3,290.5,405,288.4,405z M223.2,334.2c-1,0-1.8,0.8-1.8,1.8v65.2c0,1,0.8,1.8,1.8,1.8h65.2
										c1,0,1.8-0.8,1.8-1.8V336c0-1-0.8-1.8-1.8-1.8H223.2z"/>
								</g>
								<g>
									<circle fill="#F9E0B2" cx="255.8" cy="368.6" r="26.5"/>
									<circle opacity="0.12" enable-background="new    " cx="255.8" cy="370.1" r="22.7"/>
									<circle fill="#FFEDCA" cx="255.8" cy="368.7" r="22.7"/>
									<path opacity="0.6" fill="#FFFFFF" enable-background="new    " d="M263.9,347.6c-1.8-0.7-3.6-1.2-5.6-1.4
										c-4.9-0.5-9.5,0.5-13.5,2.7l-0.5,1.3c4.5-2.4,9.6-3.5,15-2.9c1.7,0.2,3.3,0.6,4.8,1.1L263.9,347.6z"/>
								</g>
							</g>
						</g>
					</g>
				</g>
			</g>
			<g>
				<text transform="matrix(0 1 -1 0 306.1845 530.2274)" fill="#FFFFFF" font-family="'OCRA'" font-size="27.2px">MCU</text>
				<g>
					<g id="breadboard_1_">
						<g>
							<g>
								<g>
									<polygon fill="#A7A9AC" points="287,620.4 287,577.9 298.1,577.9 298.1,620.4 									"/>
									<polygon fill="#A7A9AC" points="213.4,540.9 213.4,498.4 224.5,498.4 224.5,540.9 									"/>
									<polygon fill="#A7A9AC" points="287,540.9 287,498.4 298.1,498.4 298.1,540.9 									"/>
									<polygon fill="#A7A9AC" points="213.4,620.4 213.4,577.9 224.5,577.9 224.5,620.4 									"/>
								</g>
								<g>
									<rect x="210.4" y="514.1" fill="#BCBEC0" width="90.7" height="90.7"/>
									<path fill="#D1D3D4" d="M301.1,597.7c0,3.9-3.2,7.1-7.1,7.1h-76.5c-3.9,0-7.1-3.2-7.1-7.1v-76.5c0-3.9,3.2-7.1,7.1-7.1H294
										c3.9,0,7.1,3.2,7.1,7.1V597.7z"/>
									<path fill="#939598" d="M288.4,595.8h-65.2c-2.1,0-3.8-1.7-3.8-3.8v-65.2c0-2.1,1.7-3.8,3.8-3.8h65.2
										c2.1,0,3.8,1.7,3.8,3.8V592C292.2,594.1,290.5,595.8,288.4,595.8z M223.2,525c-1,0-1.8,0.8-1.8,1.8V592
										c0,1,0.8,1.8,1.8,1.8h65.2c1,0,1.8-0.8,1.8-1.8v-65.2c0-1-0.8-1.8-1.8-1.8H223.2z"/>
								</g>
								<g>
									<circle fill="#F9E0B2" cx="255.8" cy="559.4" r="26.5"/>
									<circle opacity="0.12" enable-background="new    " cx="255.8" cy="560.9" r="22.7"/>
									<circle fill="#FFEDCA" cx="255.8" cy="559.6" r="22.7"/>
									<path opacity="0.6" fill="#FFFFFF" enable-background="new    " d="M263.9,538.4c-1.8-0.7-3.6-1.2-5.6-1.4
										c-4.9-0.5-9.5,0.5-13.5,2.7l-0.5,1.3c4.5-2.4,9.6-3.5,15-2.9c1.7,0.2,3.3,0.6,4.8,1.1L263.9,538.4z"/>
								</g>
							</g>
						</g>
					</g>
				</g>
			</g>
			<g>
				<text transform="matrix(0 1 -1 0 1462.1689 25.5242)" fill="#FFFFFF" font-family="'OCRA'" font-size="27.196px">P1</text>
				<text transform="matrix(0 1 -1 0 313.3095 26.1961)" fill="#FFFFFF" font-family="'OCRA'" font-size="27.196px">A3</text>
				<text transform="matrix(0 1 -1 0 385.2627 26.0633)" fill="#FFFFFF" font-family="'OCRA'" font-size="27.196px">A2</text>
				<text transform="matrix(0 1 -1 0 600.3408 25.3836)" fill="#FFFFFF" font-family="'OCRA'" font-size="27.196px">5V</text>
				<text transform="matrix(0 1 -1 0 672.1533 16.4617)" fill="#FFFFFF" font-family="'OCRA'" font-size="27.196px">VCC</text>
				<text transform="matrix(0 1 -1 0 887.2861 26.0945)" fill="#FFFFFF" font-family="'OCRA'" font-size="27.196px">P9</text>
				<text transform="matrix(0 1 -1 0 959.3877 26.243)" fill="#FFFFFF" font-family="'OCRA'" font-size="27.196px">P8</text>
				<text transform="matrix(0 1 -1 0 1174.7939 25.6649)" fill="#FFFFFF" font-family="'OCRA'" font-size="27.196px">P5</text>
				<text transform="matrix(0 1 -1 0 1246.7471 25.6649)" fill="#FFFFFF" font-family="'OCRA'" font-size="27.196px">P4</text>
				<text transform="matrix(0 1 -1 0 1533.8408 25.3836)" fill="#FFFFFF" font-family="'OCRA'" font-size="27.196px">P0</text>
				<text transform="matrix(0 1 -1 0 456.9267 25.9305)" fill="#FFFFFF" font-family="'OCRA'" font-size="27.196px">A1</text>
				<text transform="matrix(0 1 -1 0 168.1455 26.0633)" fill="#FFFFFF" font-family="'OCRA'" font-size="27.196px">A5</text>
				<text transform="matrix(0 1 -1 0 241.5127 26.1961)" fill="#FFFFFF" font-family="'OCRA'" font-size="27.196px">A4</text>
				<text transform="matrix(0 1 -1 0 528.7393 25.782)" fill="#FFFFFF" font-family="'OCRA'" font-size="27.196px">A0</text>
				<text transform="matrix(0 1 -1 0 817.1768 16.3445)" fill="#FFFFFF" font-family="'OCRA'" font-size="27.196px">GND</text>
				<text transform="matrix(0 1 -1 0 744.3877 16.9149)" fill="#FFFFFF" font-family="'OCRA'" font-size="27.196px">3V3</text>
				<text transform="matrix(0 1 -1 0 1031.333 26.2274)" fill="#FFFFFF" font-family="'OCRA'" font-size="27.196px">P7</text>
				<text transform="matrix(0 1 -1 0 1102.9893 25.9461)" fill="#FFFFFF" font-family="'OCRA'" font-size="27.196px">P6</text>
				<text transform="matrix(0 1 -1 0 1318.2627 25.5242)" fill="#FFFFFF" font-family="'OCRA'" font-size="27.196px">P3</text>
				<text transform="matrix(0 1 -1 0 1390.2158 25.5242)" fill="#FFFFFF" font-family="'OCRA'" font-size="27.196px">P2</text>
			</g>
			<g>
				<text transform="matrix(0 1 -1 0 1459.9502 671.7742)" fill="#FFFFFF" font-family="'OCRA'" font-size="27.196px">S1</text>
				<text transform="matrix(0 1 -1 0 311.0908 662.0477)" fill="#FFFFFF" font-family="'OCRA'" font-size="27.196px">D13</text>
				<text transform="matrix(0 1 -1 0 383.0439 662.0477)" fill="#FFFFFF" font-family="'OCRA'" font-size="27.196px">D12</text>
				<text transform="matrix(0 1 -1 0 598.1221 671.7742)" fill="#FFFFFF" font-family="'OCRA'" font-size="27.196px">D9</text>
				<text transform="matrix(0 1 -1 0 669.9346 671.7742)" fill="#FFFFFF" font-family="'OCRA'" font-size="27.196px">D8</text>
				<text transform="matrix(0 1 -1 0 885.0674 671.7742)" fill="#FFFFFF" font-family="'OCRA'" font-size="27.196px">D5</text>
				<text transform="matrix(0 1 -1 0 957.1689 671.7742)" fill="#FFFFFF" font-family="'OCRA'" font-size="27.196px">D4</text>
				<text transform="matrix(0 1 -1 0 1172.5752 671.7742)" fill="#FFFFFF" font-family="'OCRA'" font-size="27.196px">D1</text>
				<text transform="matrix(0 1 -1 0 1244.5283 671.7742)" fill="#FFFFFF" font-family="'OCRA'" font-size="27.196px">D0</text>
				<text transform="matrix(0 1 -1 0 1531.6221 671.7742)" fill="#FFFFFF" font-family="'OCRA'" font-size="27.196px">S0</text>
				<text transform="matrix(0 1 -1 0 454.708 662.0555)" fill="#FFFFFF" font-family="'OCRA'" font-size="27.196px">D11</text>
				<text transform="matrix(0 1 -1 0 165.9267 652.3289)" fill="#FFFFFF" font-family="'OCRA'" font-size="27.196px">AREF</text>
				<text transform="matrix(0 1 -1 0 239.2939 662.0477)" fill="#FFFFFF" font-family="'OCRA'" font-size="27.196px">RST</text>
				<text transform="matrix(0 1 -1 0 526.5205 662.0555)" fill="#FFFFFF" font-family="'OCRA'" font-size="27.196px">D10</text>
				<text transform="matrix(0 1 -1 0 814.958 671.7742)" fill="#FFFFFF" font-family="'OCRA'" font-size="27.196px">D6</text>
				<text transform="matrix(0 1 -1 0 742.1689 671.7742)" fill="#FFFFFF" font-family="'OCRA'" font-size="27.196px">D7</text>
				<text transform="matrix(0 1 -1 0 1029.1143 671.7742)" fill="#FFFFFF" font-family="'OCRA'" font-size="27.196px">D3</text>
				<text transform="matrix(0 1 -1 0 1100.7705 671.7742)" fill="#FFFFFF" font-family="'OCRA'" font-size="27.196px">D2</text>
				<text transform="matrix(0 1 -1 0 1316.0439 671.7742)" fill="#FFFFFF" font-family="'OCRA'" font-size="27.196px">S3</text>
				<text transform="matrix(0 1 -1 0 1387.9971 671.7742)" fill="#FFFFFF" font-family="'OCRA'" font-size="27.196px">S2</text>
			</g>
			<g>
				<g>
					<circle fill="#B8AF82" cx="788.9" cy="45.8" r="23.4"/>
					<g>
						<rect id="rect209542-3_80_" x="783" y="39.9" fill="#B3B3B3" width="11.8" height="11.8"/>
						<polygon id="polygon209544-4_80_" fill="#999999" points="783,51.7 794.8,51.7 800.4,57.3 777.4,57.3 						"/>
						<polygon id="polygon209546-5_80_" fill="#808080" points="794.8,51.7 800.4,57.3 800.4,34.3 794.8,39.9 						"/>
						<polygon id="polygon209548-0_80_" fill="#CCCCCC" points="794.8,39.9 800.4,34.3 777.4,34.3 783,39.9 						"/>
						<polygon id="polygon209550-1_80_" fill="#CCCCCC" points="783,51.7 783,39.9 777.4,34.3 777.4,57.3 						"/>
					</g>
				</g>
				<g>
					<circle fill="#B8AF82" cx="214.5" cy="45.8" r="23.4"/>
					<g>
						<rect id="rect209542-3_79_" x="208.6" y="39.9" fill="#B3B3B3" width="11.8" height="11.8"/>
						<polygon id="polygon209544-4_79_" fill="#999999" points="208.6,51.7 220.4,51.7 225.9,57.3 203,57.3 						"/>
						<polygon id="polygon209546-5_79_" fill="#808080" points="220.4,51.7 225.9,57.3 225.9,34.3 220.4,39.9 						"/>
						<polygon id="polygon209548-0_79_" fill="#CCCCCC" points="220.4,39.9 225.9,34.3 203,34.3 208.6,39.9 						"/>
						<polygon id="polygon209550-1_79_" fill="#CCCCCC" points="208.6,51.7 208.6,39.9 203,34.3 203,57.3 						"/>
					</g>
				</g>
				<g>
					<circle fill="#B8AF82" cx="860.7" cy="45.8" r="23.4"/>
					<g>
						<rect id="rect209542-3_78_" x="854.8" y="39.9" fill="#B3B3B3" width="11.8" height="11.8"/>
						<polygon id="polygon209544-4_78_" fill="#999999" points="854.8,51.7 866.6,51.7 872.2,57.3 849.2,57.3 						"/>
						<polygon id="polygon209546-5_78_" fill="#808080" points="866.6,51.7 872.2,57.3 872.2,34.3 866.6,39.9 						"/>
						<polygon id="polygon209548-0_78_" fill="#CCCCCC" points="866.6,39.9 872.2,34.3 849.2,34.3 854.8,39.9 						"/>
						<polygon id="polygon209550-1_78_" fill="#CCCCCC" points="854.8,51.7 854.8,39.9 849.2,34.3 849.2,57.3 						"/>
					</g>
				</g>
				<g>
					<circle fill="#B8AF82" cx="932.5" cy="45.8" r="23.4"/>
					<g>
						<rect id="rect209542-3_77_" x="926.6" y="39.9" fill="#B3B3B3" width="11.8" height="11.8"/>
						<polygon id="polygon209544-4_77_" fill="#999999" points="926.6,51.7 938.4,51.7 944,57.3 921,57.3 						"/>
						<polygon id="polygon209546-5_77_" fill="#808080" points="938.4,51.7 944,57.3 944,34.3 938.4,39.9 						"/>
						<polygon id="polygon209548-0_77_" fill="#CCCCCC" points="938.4,39.9 944,34.3 921,34.3 926.6,39.9 						"/>
						<polygon id="polygon209550-1_77_" fill="#CCCCCC" points="926.6,51.7 926.6,39.9 921,34.3 921,57.3 						"/>
					</g>
				</g>
				<g>
					<circle fill="#B8AF82" cx="1004.3" cy="45.8" r="23.4"/>
					<g>
						<rect id="rect209542-3_76_" x="998.4" y="39.9" fill="#B3B3B3" width="11.8" height="11.8"/>
						<polygon id="polygon209544-4_76_" fill="#999999" points="998.4,51.7 1010.2,51.7 1015.8,57.3 992.8,57.3 						"/>
						<polygon id="polygon209546-5_76_" fill="#808080" points="1010.2,51.7 1015.8,57.3 1015.8,34.3 1010.2,39.9 						"/>
						<polygon id="polygon209548-0_76_" fill="#CCCCCC" points="1010.2,39.9 1015.8,34.3 992.8,34.3 998.4,39.9 						"/>
						<polygon id="polygon209550-1_76_" fill="#CCCCCC" points="998.4,51.7 998.4,39.9 992.8,34.3 992.8,57.3 						"/>
					</g>
				</g>
				<g>
					<circle fill="#B8AF82" cx="1076.1" cy="45.8" r="23.4"/>
					<g>
						<rect id="rect209542-3_75_" x="1070.2" y="39.9" fill="#B3B3B3" width="11.8" height="11.8"/>
						<polygon id="polygon209544-4_75_" fill="#999999" points="1070.2,51.7 1082,51.7 1087.6,57.3 1064.7,57.3 						"/>
						<polygon id="polygon209546-5_75_" fill="#808080" points="1082,51.7 1087.6,57.3 1087.6,34.3 1082,39.9 						"/>
						<polygon id="polygon209548-0_75_" fill="#CCCCCC" points="1082,39.9 1087.6,34.3 1064.7,34.3 1070.2,39.9 						"/>
						<polygon id="polygon209550-1_75_" fill="#CCCCCC" points="1070.2,51.7 1070.2,39.9 1064.7,34.3 1064.7,57.3 						"/>
					</g>
				</g>
				<g>
					<circle fill="#B8AF82" cx="1147.9" cy="45.8" r="23.4"/>
					<g>
						<rect id="rect209542-3_74_" x="1142" y="39.9" fill="#B3B3B3" width="11.8" height="11.8"/>
						<polygon id="polygon209544-4_74_" fill="#999999" points="1142,51.7 1153.8,51.7 1159.4,57.3 1136.5,57.3 						"/>
						<polygon id="polygon209546-5_74_" fill="#808080" points="1153.8,51.7 1159.4,57.3 1159.4,34.3 1153.8,39.9 						"/>
						<polygon id="polygon209548-0_74_" fill="#CCCCCC" points="1153.8,39.9 1159.4,34.3 1136.5,34.3 1142,39.9 						"/>
						<polygon id="polygon209550-1_74_" fill="#CCCCCC" points="1142,51.7 1142,39.9 1136.5,34.3 1136.5,57.3 						"/>
					</g>
				</g>
				<g>
					<circle fill="#B8AF82" cx="1219.8" cy="45.8" r="23.4"/>
					<g>
						<rect id="rect209542-3_73_" x="1213.8" y="39.9" fill="#B3B3B3" width="11.8" height="11.8"/>
						<polygon id="polygon209544-4_73_" fill="#999999" points="1213.9,51.7 1225.6,51.7 1231.2,57.3 1208.3,57.3 						"/>
						<polygon id="polygon209546-5_73_" fill="#808080" points="1225.6,51.7 1231.2,57.3 1231.2,34.3 1225.6,39.9 						"/>
						<polygon id="polygon209548-0_73_" fill="#CCCCCC" points="1225.6,39.9 1231.2,34.3 1208.3,34.3 1213.9,39.9 						"/>
						<polygon id="polygon209550-1_73_" fill="#CCCCCC" points="1213.9,51.7 1213.9,39.9 1208.3,34.3 1208.3,57.3 						"/>
					</g>
				</g>
				<g>
					<circle fill="#B8AF82" cx="1291.6" cy="45.8" r="23.4"/>
					<g>
						<rect id="rect209542-3_72_" x="1285.7" y="39.9" fill="#B3B3B3" width="11.8" height="11.8"/>
						<polygon id="polygon209544-4_72_" fill="#999999" points="1285.7,51.7 1297.5,51.7 1303,57.3 1280.1,57.3 						"/>
						<polygon id="polygon209546-5_72_" fill="#808080" points="1297.5,51.7 1303,57.3 1303,34.3 1297.5,39.9 						"/>
						<polygon id="polygon209548-0_72_" fill="#CCCCCC" points="1297.5,39.9 1303,34.3 1280.1,34.3 1285.7,39.9 						"/>
						<polygon id="polygon209550-1_72_" fill="#CCCCCC" points="1285.7,51.7 1285.7,39.9 1280.1,34.3 1280.1,57.3 						"/>
					</g>
				</g>
				<g>
					<circle fill="#B8AF82" cx="1363.4" cy="45.8" r="23.4"/>
					<g>
						<rect id="rect209542-3_71_" x="1357.5" y="39.9" fill="#B3B3B3" width="11.8" height="11.8"/>
						<polygon id="polygon209544-4_71_" fill="#999999" points="1357.5,51.7 1369.3,51.7 1374.8,57.3 1351.9,57.3 						"/>
						<polygon id="polygon209546-5_71_" fill="#808080" points="1369.3,51.7 1374.8,57.3 1374.8,34.3 1369.3,39.9 						"/>
						<polygon id="polygon209548-0_71_" fill="#CCCCCC" points="1369.3,39.9 1374.8,34.3 1351.9,34.3 1357.5,39.9 						"/>
						<polygon id="polygon209550-1_71_" fill="#CCCCCC" points="1357.5,51.7 1357.5,39.9 1351.9,34.3 1351.9,57.3 						"/>
					</g>
				</g>
				<g>
					<circle fill="#B8AF82" cx="1435.2" cy="45.8" r="23.4"/>
					<g>
						<rect id="rect209542-3_70_" x="1429.3" y="39.9" fill="#B3B3B3" width="11.8" height="11.8"/>
						<polygon id="polygon209544-4_70_" fill="#999999" points="1429.3,51.7 1441.1,51.7 1446.7,57.3 1423.7,57.3 						"/>
						<polygon id="polygon209546-5_70_" fill="#808080" points="1441.1,51.7 1446.7,57.3 1446.7,34.3 1441.1,39.9 						"/>
						<polygon id="polygon209548-0_70_" fill="#CCCCCC" points="1441.1,39.9 1446.7,34.3 1423.7,34.3 1429.3,39.9 						"/>
						<polygon id="polygon209550-1_70_" fill="#CCCCCC" points="1429.3,51.7 1429.3,39.9 1423.7,34.3 1423.7,57.3 						"/>
					</g>
				</g>
				<g>
					<circle fill="#B8AF82" cx="1507" cy="45.8" r="23.4"/>
					<g>
						<rect id="rect209542-3_69_" x="1501.1" y="39.9" fill="#B3B3B3" width="11.8" height="11.8"/>
						<polygon id="polygon209544-4_69_" fill="#999999" points="1501.1,51.7 1512.9,51.7 1518.5,57.3 1495.5,57.3 						"/>
						<polygon id="polygon209546-5_69_" fill="#808080" points="1512.9,51.7 1518.5,57.3 1518.5,34.3 1512.9,39.9 						"/>
						<polygon id="polygon209548-0_69_" fill="#CCCCCC" points="1512.9,39.9 1518.5,34.3 1495.5,34.3 1501.1,39.9 						"/>
						<polygon id="polygon209550-1_69_" fill="#CCCCCC" points="1501.1,51.7 1501.1,39.9 1495.5,34.3 1495.5,57.3 						"/>
					</g>
				</g>
				<g>
					<circle fill="#B8AF82" cx="1578.8" cy="45.8" r="23.4"/>
					<g>
						<rect id="rect209542-3_68_" x="1572.9" y="39.9" fill="#B3B3B3" width="11.8" height="11.8"/>
						<polygon id="polygon209544-4_68_" fill="#999999" points="1572.9,51.7 1584.7,51.7 1590.3,57.3 1567.3,57.3 						"/>
						<polygon id="polygon209546-5_68_" fill="#808080" points="1584.7,51.7 1590.3,57.3 1590.3,34.3 1584.7,39.9 						"/>
						<polygon id="polygon209548-0_68_" fill="#CCCCCC" points="1584.7,39.9 1590.3,34.3 1567.3,34.3 1572.9,39.9 						"/>
						<polygon id="polygon209550-1_68_" fill="#CCCCCC" points="1572.9,51.7 1572.9,39.9 1567.3,34.3 1567.3,57.3 						"/>
					</g>
				</g>
				<g>
					<circle fill="#B8AF82" cx="717.1" cy="45.8" r="23.4"/>
					<g>
						<rect id="rect209542-3_67_" x="711.2" y="39.9" fill="#B3B3B3" width="11.8" height="11.8"/>
						<polygon id="polygon209544-4_67_" fill="#999999" points="711.2,51.7 723,51.7 728.6,57.3 705.6,57.3 						"/>
						<polygon id="polygon209546-5_67_" fill="#808080" points="723,51.7 728.6,57.3 728.6,34.3 723,39.9 						"/>
						<polygon id="polygon209548-0_67_" fill="#CCCCCC" points="723,39.9 728.6,34.3 705.6,34.3 711.2,39.9 						"/>
						<polygon id="polygon209550-1_67_" fill="#CCCCCC" points="711.2,51.7 711.2,39.9 705.6,34.3 705.6,57.3 						"/>
					</g>
				</g>
				<g>
					<circle fill="#B8AF82" cx="645.3" cy="45.8" r="23.4"/>
					<g>
						<rect id="rect209542-3_66_" x="639.4" y="39.9" fill="#B3B3B3" width="11.8" height="11.8"/>
						<polygon id="polygon209544-4_66_" fill="#999999" points="639.4,51.7 651.2,51.7 656.8,57.3 633.8,57.3 						"/>
						<polygon id="polygon209546-5_66_" fill="#808080" points="651.2,51.7 656.8,57.3 656.8,34.3 651.2,39.9 						"/>
						<polygon id="polygon209548-0_66_" fill="#CCCCCC" points="651.2,39.9 656.8,34.3 633.8,34.3 639.4,39.9 						"/>
						<polygon id="polygon209550-1_66_" fill="#CCCCCC" points="639.4,51.7 639.4,39.9 633.8,34.3 633.8,57.3 						"/>
					</g>
				</g>
				<g>
					<circle fill="#B8AF82" cx="501.7" cy="45.8" r="23.4"/>
					<g>
						<rect id="rect209542-3_65_" x="495.8" y="39.9" fill="#B3B3B3" width="11.8" height="11.8"/>
						<polygon id="polygon209544-4_65_" fill="#999999" points="495.8,51.7 507.6,51.7 513.2,57.3 490.2,57.3 						"/>
						<polygon id="polygon209546-5_65_" fill="#808080" points="507.6,51.7 513.2,57.3 513.2,34.3 507.6,39.9 						"/>
						<polygon id="polygon209548-0_65_" fill="#CCCCCC" points="507.6,39.9 513.2,34.3 490.2,34.3 495.8,39.9 						"/>
						<polygon id="polygon209550-1_65_" fill="#CCCCCC" points="495.8,51.7 495.8,39.9 490.2,34.3 490.2,57.3 						"/>
					</g>
				</g>
				<g>
					<circle fill="#B8AF82" cx="573.5" cy="45.8" r="23.4"/>
					<g>
						<rect id="rect209542-3_64_" x="567.6" y="39.9" fill="#B3B3B3" width="11.8" height="11.8"/>
						<polygon id="polygon209544-4_64_" fill="#999999" points="567.6,51.7 579.4,51.7 585,57.3 562,57.3 						"/>
						<polygon id="polygon209546-5_64_" fill="#808080" points="579.4,51.7 585,57.3 585,34.3 579.4,39.9 						"/>
						<polygon id="polygon209548-0_64_" fill="#CCCCCC" points="579.4,39.9 585,34.3 562,34.3 567.6,39.9 						"/>
						<polygon id="polygon209550-1_64_" fill="#CCCCCC" points="567.6,51.7 567.6,39.9 562,34.3 562,57.3 						"/>
					</g>
				</g>
				<g>
					<circle fill="#B8AF82" cx="358.1" cy="45.8" r="23.4"/>
					<g>
						<rect id="rect209542-3_63_" x="352.2" y="39.9" fill="#B3B3B3" width="11.8" height="11.8"/>
						<polygon id="polygon209544-4_63_" fill="#999999" points="352.2,51.7 364,51.7 369.6,57.3 346.6,57.3 						"/>
						<polygon id="polygon209546-5_63_" fill="#808080" points="364,51.7 369.6,57.3 369.6,34.3 364,39.9 						"/>
						<polygon id="polygon209548-0_63_" fill="#CCCCCC" points="364,39.9 369.6,34.3 346.6,34.3 352.2,39.9 						"/>
						<polygon id="polygon209550-1_63_" fill="#CCCCCC" points="352.2,51.7 352.2,39.9 346.6,34.3 346.6,57.3 						"/>
					</g>
				</g>
				<g>
					<circle fill="#B8AF82" cx="429.9" cy="45.8" r="23.4"/>
					<g>
						<rect id="rect209542-3_62_" x="424" y="39.9" fill="#B3B3B3" width="11.8" height="11.8"/>
						<polygon id="polygon209544-4_62_" fill="#999999" points="424,51.7 435.8,51.7 441.4,57.3 418.4,57.3 						"/>
						<polygon id="polygon209546-5_62_" fill="#808080" points="435.8,51.7 441.4,57.3 441.4,34.3 435.8,39.9 						"/>
						<polygon id="polygon209548-0_62_" fill="#CCCCCC" points="435.8,39.9 441.4,34.3 418.4,34.3 424,39.9 						"/>
						<polygon id="polygon209550-1_62_" fill="#CCCCCC" points="424,51.7 424,39.9 418.4,34.3 418.4,57.3 						"/>
					</g>
				</g>
				<g>
					<circle fill="#B8AF82" cx="286.3" cy="45.8" r="23.4"/>
					<g>
						<rect id="rect209542-3_61_" x="280.4" y="39.9" fill="#B3B3B3" width="11.8" height="11.8"/>
						<polygon id="polygon209544-4_61_" fill="#999999" points="280.4,51.7 292.2,51.7 297.8,57.3 274.8,57.3 						"/>
						<polygon id="polygon209546-5_61_" fill="#808080" points="292.2,51.7 297.8,57.3 297.8,34.3 292.2,39.9 						"/>
						<polygon id="polygon209548-0_61_" fill="#CCCCCC" points="292.2,39.9 297.8,34.3 274.8,34.3 280.4,39.9 						"/>
						<polygon id="polygon209550-1_61_" fill="#CCCCCC" points="280.4,51.7 280.4,39.9 274.8,34.3 274.8,57.3 						"/>
					</g>
				</g>
			</g>
			<g>
				<g>
					<circle fill="#B8AF82" cx="214.5" cy="691.2" r="23.4"/>
					<g>
						<rect id="rect209542-3_60_" x="208.6" y="685.3" fill="#B3B3B3" width="11.8" height="11.8"/>
						<polygon id="polygon209544-4_60_" fill="#999999" points="208.6,697.2 220.4,697.2 226,702.7 203,702.7 						"/>
						<polygon id="polygon209546-5_60_" fill="#808080" points="220.4,697.2 226,702.7 226,679.7 220.4,685.3 						"/>
						<polygon id="polygon209548-0_60_" fill="#CCCCCC" points="220.4,685.3 226,679.7 203,679.7 208.6,685.3 						"/>
						<polygon id="polygon209550-1_60_" fill="#CCCCCC" points="208.6,697.2 208.6,685.3 203,679.7 203,702.7 						"/>
					</g>
				</g>
				<g>
					<circle fill="#B8AF82" cx="1578.8" cy="691.2" r="23.4"/>
					<g>
						<rect id="rect209542-3_59_" x="1572.9" y="685.3" fill="#B3B3B3" width="11.8" height="11.8"/>
						<polygon id="polygon209544-4_59_" fill="#999999" points="1572.9,697.2 1584.7,697.2 1590.3,702.7 1567.3,702.7 						"/>
						<polygon id="polygon209546-5_59_" fill="#808080" points="1584.7,697.2 1590.3,702.7 1590.3,679.7 1584.7,685.3 						"/>
						<polygon id="polygon209548-0_59_" fill="#CCCCCC" points="1584.7,685.3 1590.3,679.7 1567.3,679.7 1572.9,685.3 						"/>
						<polygon id="polygon209550-1_59_" fill="#CCCCCC" points="1572.9,697.2 1572.9,685.3 1567.3,679.7 1567.3,702.7 						"/>
					</g>
				</g>
				<g>
					<circle fill="#B8AF82" cx="286.3" cy="691.2" r="23.4"/>
					<g>
						<rect id="rect209542-3_58_" x="280.4" y="685.3" fill="#B3B3B3" width="11.8" height="11.8"/>
						<polygon id="polygon209544-4_58_" fill="#999999" points="280.4,697.2 292.2,697.2 297.8,702.7 274.8,702.7 						"/>
						<polygon id="polygon209546-5_58_" fill="#808080" points="292.2,697.2 297.8,702.7 297.8,679.7 292.2,685.3 						"/>
						<polygon id="polygon209548-0_58_" fill="#CCCCCC" points="292.2,685.3 297.8,679.7 274.8,679.7 280.4,685.3 						"/>
						<polygon id="polygon209550-1_58_" fill="#CCCCCC" points="280.4,697.2 280.4,685.3 274.8,679.7 274.8,702.7 						"/>
					</g>
				</g>
				<g>
					<circle fill="#B8AF82" cx="358.1" cy="691.2" r="23.4"/>
					<g>
						<rect id="rect209542-3_57_" x="352.2" y="685.3" fill="#B3B3B3" width="11.8" height="11.8"/>
						<polygon id="polygon209544-4_57_" fill="#999999" points="352.2,697.2 364,697.2 369.6,702.7 346.6,702.7 						"/>
						<polygon id="polygon209546-5_57_" fill="#808080" points="364,697.2 369.6,702.7 369.6,679.7 364,685.3 						"/>
						<polygon id="polygon209548-0_57_" fill="#CCCCCC" points="364,685.3 369.6,679.7 346.6,679.7 352.2,685.3 						"/>
						<polygon id="polygon209550-1_57_" fill="#CCCCCC" points="352.2,697.2 352.2,685.3 346.6,679.7 346.6,702.7 						"/>
					</g>
				</g>
				<g>
					<circle fill="#B8AF82" cx="429.9" cy="691.2" r="23.4"/>
					<g>
						<rect id="rect209542-3_56_" x="424" y="685.3" fill="#B3B3B3" width="11.8" height="11.8"/>
						<polygon id="polygon209544-4_56_" fill="#999999" points="424,697.2 435.8,697.2 441.4,702.7 418.4,702.7 						"/>
						<polygon id="polygon209546-5_56_" fill="#808080" points="435.8,697.2 441.4,702.7 441.4,679.7 435.8,685.3 						"/>
						<polygon id="polygon209548-0_56_" fill="#CCCCCC" points="435.8,685.3 441.4,679.7 418.4,679.7 424,685.3 						"/>
						<polygon id="polygon209550-1_56_" fill="#CCCCCC" points="424,697.2 424,685.3 418.4,679.7 418.4,702.7 						"/>
					</g>
				</g>
				<g>
					<circle fill="#B8AF82" cx="501.7" cy="691.2" r="23.4"/>
					<g>
						<rect id="rect209542-3_55_" x="495.8" y="685.3" fill="#B3B3B3" width="11.8" height="11.8"/>
						<polygon id="polygon209544-4_55_" fill="#999999" points="495.8,697.2 507.6,697.2 513.2,702.7 490.2,702.7 						"/>
						<polygon id="polygon209546-5_55_" fill="#808080" points="507.6,697.2 513.2,702.7 513.2,679.7 507.6,685.3 						"/>
						<polygon id="polygon209548-0_55_" fill="#CCCCCC" points="507.6,685.3 513.2,679.7 490.2,679.7 495.8,685.3 						"/>
						<polygon id="polygon209550-1_55_" fill="#CCCCCC" points="495.8,697.2 495.8,685.3 490.2,679.7 490.2,702.7 						"/>
					</g>
				</g>
				<g>
					<circle fill="#B8AF82" cx="573.5" cy="691.2" r="23.4"/>
					<g>
						<rect id="rect209542-3_54_" x="567.6" y="685.3" fill="#B3B3B3" width="11.8" height="11.8"/>
						<polygon id="polygon209544-4_54_" fill="#999999" points="567.6,697.2 579.4,697.2 585,702.7 562,702.7 						"/>
						<polygon id="polygon209546-5_54_" fill="#808080" points="579.4,697.2 585,702.7 585,679.7 579.4,685.3 						"/>
						<polygon id="polygon209548-0_54_" fill="#CCCCCC" points="579.4,685.3 585,679.7 562,679.7 567.6,685.3 						"/>
						<polygon id="polygon209550-1_54_" fill="#CCCCCC" points="567.6,697.2 567.6,685.3 562,679.7 562,702.7 						"/>
					</g>
				</g>
				<g>
					<circle fill="#B8AF82" cx="645.3" cy="691.2" r="23.4"/>
					<g>
						<rect id="rect209542-3_53_" x="639.4" y="685.3" fill="#B3B3B3" width="11.8" height="11.8"/>
						<polygon id="polygon209544-4_53_" fill="#999999" points="639.4,697.2 651.2,697.2 656.8,702.7 633.8,702.7 						"/>
						<polygon id="polygon209546-5_53_" fill="#808080" points="651.2,697.2 656.8,702.7 656.8,679.7 651.2,685.3 						"/>
						<polygon id="polygon209548-0_53_" fill="#CCCCCC" points="651.2,685.3 656.8,679.7 633.8,679.7 639.4,685.3 						"/>
						<polygon id="polygon209550-1_53_" fill="#CCCCCC" points="639.4,697.2 639.4,685.3 633.8,679.7 633.8,702.7 						"/>
					</g>
				</g>
				<g>
					<circle fill="#B8AF82" cx="717.1" cy="691.2" r="23.4"/>
					<g>
						<rect id="rect209542-3_52_" x="711.2" y="685.3" fill="#B3B3B3" width="11.8" height="11.8"/>
						<polygon id="polygon209544-4_52_" fill="#999999" points="711.2,697.2 723,697.2 728.6,702.7 705.6,702.7 						"/>
						<polygon id="polygon209546-5_52_" fill="#808080" points="723,697.2 728.6,702.7 728.6,679.7 723,685.3 						"/>
						<polygon id="polygon209548-0_52_" fill="#CCCCCC" points="723,685.3 728.6,679.7 705.6,679.7 711.2,685.3 						"/>
						<polygon id="polygon209550-1_52_" fill="#CCCCCC" points="711.2,697.2 711.2,685.3 705.6,679.7 705.6,702.7 						"/>
					</g>
				</g>
				<g>
					<circle fill="#B8AF82" cx="788.9" cy="691.2" r="23.4"/>
					<g>
						<rect id="rect209542-3_51_" x="783" y="685.3" fill="#B3B3B3" width="11.8" height="11.8"/>
						<polygon id="polygon209544-4_51_" fill="#999999" points="783,697.2 794.8,697.2 800.4,702.7 777.4,702.7 						"/>
						<polygon id="polygon209546-5_51_" fill="#808080" points="794.8,697.2 800.4,702.7 800.4,679.7 794.8,685.3 						"/>
						<polygon id="polygon209548-0_51_" fill="#CCCCCC" points="794.8,685.3 800.4,679.7 777.4,679.7 783,685.3 						"/>
						<polygon id="polygon209550-1_51_" fill="#CCCCCC" points="783,697.2 783,685.3 777.4,679.7 777.4,702.7 						"/>
					</g>
				</g>
				<g>
					<circle fill="#B8AF82" cx="860.7" cy="691.2" r="23.4"/>
					<g>
						<rect id="rect209542-3_50_" x="854.8" y="685.3" fill="#B3B3B3" width="11.8" height="11.8"/>
						<polygon id="polygon209544-4_50_" fill="#999999" points="854.8,697.2 866.6,697.2 872.2,702.7 849.3,702.7 						"/>
						<polygon id="polygon209546-5_50_" fill="#808080" points="866.6,697.2 872.2,702.7 872.2,679.7 866.6,685.3 						"/>
						<polygon id="polygon209548-0_50_" fill="#CCCCCC" points="866.6,685.3 872.2,679.7 849.3,679.7 854.8,685.3 						"/>
						<polygon id="polygon209550-1_50_" fill="#CCCCCC" points="854.8,697.2 854.8,685.3 849.3,679.7 849.3,702.7 						"/>
					</g>
				</g>
				<g>
					<circle fill="#B8AF82" cx="932.5" cy="691.2" r="23.4"/>
					<g>
						<rect id="rect209542-3_49_" x="926.6" y="685.3" fill="#B3B3B3" width="11.8" height="11.8"/>
						<polygon id="polygon209544-4_49_" fill="#999999" points="926.7,697.2 938.4,697.2 944,702.7 921.1,702.7 						"/>
						<polygon id="polygon209546-5_49_" fill="#808080" points="938.4,697.2 944,702.7 944,679.7 938.4,685.3 						"/>
						<polygon id="polygon209548-0_49_" fill="#CCCCCC" points="938.4,685.3 944,679.7 921.1,679.7 926.7,685.3 						"/>
						<polygon id="polygon209550-1_49_" fill="#CCCCCC" points="926.7,697.2 926.7,685.3 921.1,679.7 921.1,702.7 						"/>
					</g>
				</g>
				<g>
					<circle fill="#B8AF82" cx="1004.4" cy="691.2" r="23.4"/>
					<g>
						<rect id="rect209542-3_48_" x="998.4" y="685.3" fill="#B3B3B3" width="11.8" height="11.8"/>
						<polygon id="polygon209544-4_48_" fill="#999999" points="998.5,697.2 1010.2,697.2 1015.8,702.7 992.9,702.7 						"/>
						<polygon id="polygon209546-5_48_" fill="#808080" points="1010.2,697.2 1015.8,702.7 1015.8,679.7 1010.2,685.3 						"/>
						<polygon id="polygon209548-0_48_" fill="#CCCCCC" points="1010.2,685.3 1015.8,679.7 992.9,679.7 998.5,685.3 						"/>
						<polygon id="polygon209550-1_48_" fill="#CCCCCC" points="998.5,697.2 998.5,685.3 992.9,679.7 992.9,702.7 						"/>
					</g>
				</g>
				<g>
					<circle fill="#B8AF82" cx="1076.2" cy="691.2" r="23.4"/>
					<g>
						<rect id="rect209542-3_47_" x="1070.3" y="685.3" fill="#B3B3B3" width="11.8" height="11.8"/>
						<polygon id="polygon209544-4_47_" fill="#999999" points="1070.3,697.2 1082.1,697.2 1087.6,702.7 1064.7,702.7 						"/>
						<polygon id="polygon209546-5_47_" fill="#808080" points="1082.1,697.2 1087.6,702.7 1087.6,679.7 1082.1,685.3 						"/>
						<polygon id="polygon209548-0_47_" fill="#CCCCCC" points="1082.1,685.3 1087.6,679.7 1064.7,679.7 1070.3,685.3 						"/>
						<polygon id="polygon209550-1_47_" fill="#CCCCCC" points="1070.3,697.2 1070.3,685.3 1064.7,679.7 1064.7,702.7 						"/>
					</g>
				</g>
				<g>
					<circle fill="#B8AF82" cx="1148" cy="691.2" r="23.4"/>
					<g>
						<rect id="rect209542-3_6_" x="1142.1" y="685.3" fill="#B3B3B3" width="11.8" height="11.8"/>
						<polygon id="polygon209544-4_6_" fill="#999999" points="1142.1,697.2 1153.9,697.2 1159.5,702.7 1136.5,702.7 						"/>
						<polygon id="polygon209546-5_6_" fill="#808080" points="1153.9,697.2 1159.5,702.7 1159.5,679.7 1153.9,685.3 						"/>
						<polygon id="polygon209548-0_6_" fill="#CCCCCC" points="1153.9,685.3 1159.5,679.7 1136.5,679.7 1142.1,685.3 						"/>
						<polygon id="polygon209550-1_6_" fill="#CCCCCC" points="1142.1,697.2 1142.1,685.3 1136.5,679.7 1136.5,702.7 						"/>
					</g>
				</g>
				<g>
					<circle fill="#B8AF82" cx="1219.8" cy="691.2" r="23.4"/>
					<g>
						<rect id="rect209542-3_5_" x="1213.9" y="685.3" fill="#B3B3B3" width="11.8" height="11.8"/>
						<polygon id="polygon209544-4_5_" fill="#999999" points="1213.9,697.2 1225.7,697.2 1231.3,702.7 1208.3,702.7 						"/>
						<polygon id="polygon209546-5_5_" fill="#808080" points="1225.7,697.2 1231.3,702.7 1231.3,679.7 1225.7,685.3 						"/>
						<polygon id="polygon209548-0_5_" fill="#CCCCCC" points="1225.7,685.3 1231.3,679.7 1208.3,679.7 1213.9,685.3 						"/>
						<polygon id="polygon209550-1_5_" fill="#CCCCCC" points="1213.9,697.2 1213.9,685.3 1208.3,679.7 1208.3,702.7 						"/>
					</g>
				</g>
				<g>
					<circle fill="#B8AF82" cx="1291.6" cy="691.2" r="23.4"/>
					<g>
						<rect id="rect209542-3_4_" x="1285.7" y="685.3" fill="#B3B3B3" width="11.8" height="11.8"/>
						<polygon id="polygon209544-4_4_" fill="#999999" points="1285.7,697.2 1297.5,697.2 1303.1,702.7 1280.1,702.7 						"/>
						<polygon id="polygon209546-5_4_" fill="#808080" points="1297.5,697.2 1303.1,702.7 1303.1,679.7 1297.5,685.3 						"/>
						<polygon id="polygon209548-0_4_" fill="#CCCCCC" points="1297.5,685.3 1303.1,679.7 1280.1,679.7 1285.7,685.3 						"/>
						<polygon id="polygon209550-1_4_" fill="#CCCCCC" points="1285.7,697.2 1285.7,685.3 1280.1,679.7 1280.1,702.7 						"/>
					</g>
				</g>
				<g>
					<circle fill="#B8AF82" cx="1363.4" cy="691.2" r="23.4"/>
					<g>
						<rect id="rect209542-3_3_" x="1357.5" y="685.3" fill="#B3B3B3" width="11.8" height="11.8"/>
						<polygon id="polygon209544-4_3_" fill="#999999" points="1357.5,697.2 1369.3,697.2 1374.9,702.7 1351.9,702.7 						"/>
						<polygon id="polygon209546-5_3_" fill="#808080" points="1369.3,697.2 1374.9,702.7 1374.9,679.7 1369.3,685.3 						"/>
						<polygon id="polygon209548-0_3_" fill="#CCCCCC" points="1369.3,685.3 1374.9,679.7 1351.9,679.7 1357.5,685.3 						"/>
						<polygon id="polygon209550-1_3_" fill="#CCCCCC" points="1357.5,697.2 1357.5,685.3 1351.9,679.7 1351.9,702.7 						"/>
					</g>
				</g>
				<g>
					<circle fill="#B8AF82" cx="1435.2" cy="691.2" r="23.4"/>
					<g>
						<rect id="rect209542-3_2_" x="1429.3" y="685.3" fill="#B3B3B3" width="11.8" height="11.8"/>
						<polygon id="polygon209544-4_2_" fill="#999999" points="1429.3,697.2 1441.1,697.2 1446.7,702.7 1423.7,702.7 						"/>
						<polygon id="polygon209546-5_2_" fill="#808080" points="1441.1,697.2 1446.7,702.7 1446.7,679.7 1441.1,685.3 						"/>
						<polygon id="polygon209548-0_2_" fill="#CCCCCC" points="1441.1,685.3 1446.7,679.7 1423.7,679.7 1429.3,685.3 						"/>
						<polygon id="polygon209550-1_2_" fill="#CCCCCC" points="1429.3,697.2 1429.3,685.3 1423.7,679.7 1423.7,702.7 						"/>
					</g>
				</g>
				<g>
					<circle fill="#B8AF82" cx="1507" cy="691.2" r="23.4"/>
					<g>
						<rect id="rect209542-3_1_" x="1501.1" y="685.3" fill="#B3B3B3" width="11.8" height="11.8"/>
						<polygon id="polygon209544-4_1_" fill="#999999" points="1501.1,697.2 1512.9,697.2 1518.5,702.7 1495.5,702.7 						"/>
						<polygon id="polygon209546-5_1_" fill="#808080" points="1512.9,697.2 1518.5,702.7 1518.5,679.7 1512.9,685.3 						"/>
						<polygon id="polygon209548-0_1_" fill="#CCCCCC" points="1512.9,685.3 1518.5,679.7 1495.5,679.7 1501.1,685.3 						"/>
						<polygon id="polygon209550-1_1_" fill="#CCCCCC" points="1501.1,697.2 1501.1,685.3 1495.5,679.7 1495.5,702.7 						"/>
					</g>
				</g>
			</g>
			<g id="icon_2_">
				<g transform="matrix(1, 0, 0, 1, 100, 118.757)">
					<g>
						<g>
							<rect x="1558" y="394.5" fill="#F7BD13" width="5.8" height="21.2"/>
							<rect x="1558" y="394.5" fill="#FCE5A1" width="5.8" height="0.5"/>
							<rect x="1558" y="415.7" fill="#B98E0E" width="5.8" height="0.9"/>
						</g>
						<g>
							<rect x="1561.8" y="363.9" fill="#E6E6E6" width="79.4" height="79.4"/>
							<polygon opacity="0.42" fill="#FFFFFF" enable-background="new    " points="1561.8,363.9 1561.8,443.3 1562.9,442.2 
								1562.9,365.1 1640,365.1 1641.2,363.9 							"/>
							<polygon opacity="0.22" fill="#1D1D1B" enable-background="new    " points="1640,365.1 1640,442.2 1562.9,442.2 
								1561.8,443.3 1641.2,443.3 1641.2,363.9 							"/>
						</g>
						<rect x="1623.6" y="415.7" opacity="0.22" fill="#1D1D1B" enable-background="new    " width="16.4" height="0.5"/>
						<rect x="1622.8" y="394.5" fill="#F7BD13" width="22.2" height="21.2"/>
						<rect x="1622.8" y="394.5" fill="#FCE5A1" width="22.2" height="0.5"/>
						<g>
							<circle opacity="0.12" enable-background="new    " cx="1601.5" cy="404.5" r="28.1"/>
							<circle fill="#FEE068" cx="1601.5" cy="403.6" r="28.1"/>
							<circle opacity="0.49" fill="#FFFFFF" enable-background="new    " cx="1601.5" cy="403.3" r="27"/>
							<circle fill="#ECB74D" cx="1601.5" cy="403.6" r="27"/>
							<g>
								<g>
									<circle fill="#ECC847" cx="1601.5" cy="403.6" r="7.9"/>
									<path opacity="0.16" fill="#1D1D1B" enable-background="new    " d="M1609.4,403.6c0,4.4-3.5,7.9-7.9,7.9v-7.9H1609.4z"/>
									<path opacity="0.25" fill="#FFFFFF" enable-background="new    " d="M1593.6,403.6c0-4.4,3.5-7.9,7.9-7.9v7.9H1593.6z"/>
									<circle fill="#FBC91A" cx="1601.5" cy="403.6" r="5.2"/>
								</g>
							</g>
						</g>
					</g>
				</g>
			</g>
			<g>
				<g>
					<polygon fill="#358E25" points="1712.3,168.1 1717,168.1 1728.8,168.1 1728.8,85.9 1712.3,85.9 1670.7,85.9 1666.7,85.9 
						1666.7,309.8 1711,309.8 1711,168.1 					"/>
				</g>
				<g>
					<rect x="1711" y="166.8" fill="#E6E6E6" width="34" height="57.5"/>
					<rect x="1711" y="175.6" fill="#4D4D4D" width="34" height="40"/>
				</g>
			</g>
			<g>
				<text transform="matrix(0 1 -1 0 185.4424 512.8602)" fill="#FFFFFF" font-family="'OCRA'" font-size="27.2px">PWR/MCU</text>
				<g id="usb_3_">
					<g>
						<path fill="#D1D2D3" d="M0,468.5L2.7,487v94v94L0,693.4c-0.1,0.8,0.4,1.1,1.1,0.8l15.8-7.9h140.5c0.8,0,1.4-0.6,1.4-1.4V580.9
							V477c0-0.8-0.6-1.4-1.4-1.4H16.8l-15.8-7.9C0.4,467.3-0.1,467.7,0,468.5z"/>
						<g>
							<path fill="#F1F2F2" d="M157.3,475.6h-20.5h-21.2H16.8v8.5h21.9h76.8h21.2h20.5h1.4v-1.4v-2.8V477
								C158.7,476.2,158.1,475.6,157.3,475.6z"/>
							<path fill="#F1F2F2" d="M157.3,686.3h-20.5h-21.2H16.8v-8.5h21.9h76.8h21.2h20.5h1.4v1.4v2.8v2.8
								C158.7,685.6,158.1,686.3,157.3,686.3z"/>
						</g>
						<g>
							<rect x="2.7" y="487" fill="#B3B3B3" width="7.9" height="187.9"/>
							<rect x="2.7" y="487" fill="#F1F2F2" width="2.8" height="187.9"/>
						</g>
					</g>
					<g>
						<g>
							<rect x="23.9" y="513.3" fill="#4D4D4D" width="56.7" height="18"/>
							<rect x="23.9" y="630.5" fill="#4D4D4D" width="56.7" height="18"/>
						</g>
						<g>
							<rect x="136.1" y="520.7" fill="#B3B3B3" width="22.7" height="22.7"/>
							<rect x="136.1" y="618.4" fill="#B3B3B3" width="22.7" height="22.7"/>
						</g>
						<g>
							<rect x="158.7" y="543.4" fill="#F1F2F2" width="22.7" height="8.5"/>
							<rect x="158.7" y="609.9" fill="#F1F2F2" width="22.7" height="8.5"/>
							<rect x="158.7" y="587.8" fill="#F1F2F2" width="22.7" height="8.5"/>
							<rect x="158.7" y="565.6" fill="#F1F2F2" width="22.7" height="8.5"/>
						</g>
					</g>
				</g>
			</g>
			<g>
				<text transform="matrix(0 1 -1 0 185.4424 85.0867)"><tspan x="0" y="0" fill="#FFFFFF" font-family="'OCRA'" font-size="27.2px">USB</tspan><tspan x="58.3" y="0" fill="#FFFFFF" font-family="'OCRA'" font-size="27.2px" letter-spacing="-13"> </tspan><tspan x="64.2" y="0" fill="#FFFFFF" font-family="'OCRA'" font-size="27.2px">HOST</tspan></text>
				<g id="usb_1_">
					<g>
						<path fill="#D1D2D3" d="M0,43.6l2.6,18.5v94v94L0,268.6c-0.1,0.8,0.4,1.1,1.1,0.8l15.8-7.9h140.5c0.8,0,1.4-0.6,1.4-1.4V156.1
							V52.2c0-0.8-0.6-1.4-1.4-1.4H16.8L1.1,42.8C0.4,42.5-0.1,42.8,0,43.6z"/>
						<g>
							<path fill="#F1F2F2" d="M157.3,50.7h-20.5h-21.2H16.8v8.5h21.9h76.8h21.2h20.5h1.4v-1.4V55v-2.8
								C158.7,51.4,158.1,50.7,157.3,50.7z"/>
							<path fill="#F1F2F2" d="M157.3,261.4h-20.5h-21.2H16.8v-8.5h21.9h76.8h21.2h20.5h1.4v1.4v2.8v2.8
								C158.7,260.8,158.1,261.4,157.3,261.4z"/>
						</g>
						<g>
							<rect x="2.7" y="62.1" fill="#B3B3B3" width="7.9" height="187.9"/>
							<rect x="2.7" y="62.1" fill="#F1F2F2" width="2.8" height="187.9"/>
						</g>
					</g>
					<g>
						<g>
							<rect x="23.9" y="88.5" fill="#4D4D4D" width="56.7" height="18"/>
							<rect x="23.9" y="205.7" fill="#4D4D4D" width="56.7" height="18"/>
						</g>
						<g>
							<rect x="136.1" y="95.9" fill="#B3B3B3" width="22.7" height="22.7"/>
							<rect x="136.1" y="193.6" fill="#B3B3B3" width="22.7" height="22.7"/>
						</g>
						<g>
							<rect x="158.7" y="118.6" fill="#F1F2F2" width="22.7" height="8.5"/>
							<rect x="158.7" y="185.1" fill="#F1F2F2" width="22.7" height="8.5"/>
							<rect x="158.7" y="162.9" fill="#F1F2F2" width="22.7" height="8.5"/>
							<rect x="158.7" y="140.7" fill="#F1F2F2" width="22.7" height="8.5"/>
						</g>
					</g>
				</g>
			</g>
			<g>
				<rect x="554.8" y="85.9" fill="#BCBEC0" width="1069.8" height="565.2"/>
				<g>
					<polygon fill="#808080" points="1614.6,95.9 1614.6,95.9 1614.6,641.1 1614.6,641.1 1624.6,651.1 1624.6,85.9 					"/>
					<polygon fill="#CCCCCC" points="564.8,95.9 564.8,95.9 564.8,641.1 564.8,641.1 554.8,651.1 554.8,85.9 					"/>
					<g>
						<polygon fill="#CCCCCC" points="1610.9,85.9 554.8,85.9 564.8,95.9 1610.9,95.9 1614.6,95.9 1614.6,95.9 1614.6,95.9 
							1624.6,85.9 						"/>
					</g>
					<g>
						<polygon fill="#999999" points="1610.9,651.1 554.8,651.1 564.8,641.1 1610.9,641.1 1614.6,641.1 1614.6,641.1 1614.6,641.1 
							1624.6,651.1 						"/>
					</g>
				</g>
				<polyline fill="#C1C3C5" points="564.8,641.1 564.8,641.1 564.8,95.9 564.8,95.9 568.6,95.9 1614.6,95.9 				"/>
				<g>
					<g>
						<g>
							<g>
								<path fill="#FFFFFF" d="M608.6,239.9v-80.1h14.3v67.2h37.5v12.9H608.6z"/>
								<path fill="#FFFFFF" d="M675,171.6c-5.9,0-8-3.2-8-7.5c0-4.3,2.2-7.5,8-7.5c5.7,0,7.9,3.2,7.9,7.5
									C682.9,168.3,680.7,171.6,675,171.6z M668.1,239.9v-59.7h13.7v59.7H668.1z"/>
								<path fill="#FFFFFF" d="M733.8,239.9v-36.2c0-9.4-4.1-13-10.8-13c-7.4,0-12.7,4.5-15.5,8v41.1h-13.6v-59.7h10.5l1.4,8.2
									c4.1-4.9,11.1-9.3,20.7-9.3c12.7,0,21,7.6,21,22.3v38.5H733.8z"/>
								<path fill="#FFFFFF" d="M796.7,239.9c-0.5-0.9-14.3-23.9-14.3-23.9h-9.3v23.9h-13.7v-83h13.7v48.4c3.1-0.3,7.5-0.7,10.1-1.8
									c3.4-2.8,12.6-23.4,12.6-23.4H810c-1.7,4.5-10.3,23.6-15.5,30.3l17.3,29.5H796.7z"/>
								<path fill="#FFFFFF" d="M819.2,239.9v-80.1h14.3v80.1H819.2z"/>
								<path fill="#FFFFFF" d="M880.9,238.4c-4.3,1.6-9.1,2.7-14.1,2.7c-9.4,0-17.8-4.3-17.8-18.2v-31.7h-7.8v-11h8l1.6-14.4h11.9
									v14.4h17.1l-0.6,11h-16.5v30.4c0,6.2,4.1,7.4,8.7,7.4c3.1,0,6.3-0.9,9-2.3L880.9,238.4z"/>
							</g>
							<g>
								<path fill="#FFFFFF" d="M898.6,192.2v-26.4h-9.7V161h25v4.8h-9.7v26.4H898.6z"/>
								<path fill="#FFFFFF" d="M943.1,192.2l-1-18.6l0.1-5l-2,5l-6,11.5h-3.9l-6-11.5l-2-4.9l0.1,4.9l-1,18.6h-5.4l1.6-31.2h6.1
									l7.6,15.1l1,2.6l1-2.6l7.6-15.1h6l1.6,31.2H943.1z"/>
							</g>
							<g>
								<path fill="#FFFFFF" d="M984.9,222.2c2,1.4,14.2,4.4,25.6,4.4c10,0,17.8-2.9,17.8-10.7c0-16.2-45.1-8.2-45.1-36
									c0-15.3,12.2-23.1,31.9-23.1c12.4,0,23,3.4,24.4,4l-0.7,12.8c-4.4-2.3-15.3-4.2-22.8-4.2c-10.4,0-18.5,2.9-18.5,10.1
									c0,15,45.1,7.3,45.1,36.4c0,16.3-12.2,23.6-31.7,23.6c-14.6,0-26.5-3.9-26.5-3.9L984.9,222.2z"/>
								<path fill="#FFFFFF" d="M1128,238.1v-37.6c0-8.2-4.5-11.6-10.2-11.6c-6.6,0-11.8,4.4-14.1,7.9v41.3h-13.8v-37.6
									c0-8.3-4.4-11.6-10.2-11.6c-6.6,0-11.8,4.5-14.1,7.8v41.4H1052v-59.7h10.5l1.5,8c3.7-4.9,10.3-9.2,20.1-9.2
									c7.8,0,14.3,2.9,17.3,9.5c4-4.8,10.4-9.5,20.7-9.5c11.5,0,19.6,6.6,19.6,20.6v40.2H1128z"/>
								<path fill="#FFFFFF" d="M1191.8,238.1l-1.2-7.4c-5.1,5.9-12.2,8.6-20,8.6c-11,0-20.2-5.3-20.2-16.5
									c0-13.3,12.6-17.8,26.9-17.8c4.1,0,7.9,0.5,11.5,0.9v-7c0-6.8-5.1-10.1-15.2-10.1c-6.7,0-13.5,1.5-18.4,3.5l-0.6-11.3
									c3.5-1.4,11.1-3.9,22.2-3.9c13.7,0,25.6,4.2,25.6,20.7v40.2H1191.8z M1188.7,214.2c-2.5-0.2-6.2-0.6-9.9-0.6
									c-7.8,0-14.8,1.9-14.8,8.7c0,6.5,6.3,7.1,9.7,7.1c7.6,0,12.2-3.5,15-6.3V214.2z"/>
								<path fill="#FFFFFF" d="M1214.3,238.1v-59.7h10.4l1.6,9c4.6-6,12.2-10.1,21.5-10.1l-0.7,12.5c-7.5,0-14.1,2.7-19.2,8.2v40.2
									H1214.3z"/>
								<path fill="#FFFFFF" d="M1290.5,236.7c-4.3,1.6-9.1,2.7-14.1,2.7c-9.4,0-17.8-4.3-17.8-18.2v-31.7h-7.8v-11h8l1.6-14.4h11.9
									v14.4h17.1l-0.6,11h-16.6v30.4c0,6.2,4.1,7.4,8.7,7.4c3.1,0,6.3-0.9,9-2.3L1290.5,236.7z"/>
								<path fill="#FFFFFF" d="M1323.3,238.1l25.5-60.4l4.1-7.7l-9.4,0.7h-27.3V158h51.6l0.7,10.4l-29.1,69.7H1323.3z"/>
								<path fill="#FFFFFF" d="M1425.8,170.8c-5.8-1.6-11.2-2.2-14.7-2.2c-15,0-20.7,9.1-21.7,24.5c4.5-2.6,11-5.2,19.2-5.2
									c16.5,0,24.4,10.2,24.4,24.3c0,16.2-9.6,27.2-28.6,27.2c-24.4,0-29.5-18.2-29.5-37.6c0-29.9,11.5-45,34.5-45
									c4.5,0,11.3,0.6,17.3,2L1425.8,170.8z M1404.1,228.1c7.4,0,14.3-3.9,14.3-15.6c0-10-5.9-13.8-13.4-13.8
									c-6.2,0-12.2,2.4-15.9,5C1389.5,218.9,1392.8,228.1,1404.1,228.1z"/>
								<path fill="#FFFFFF" d="M1501.4,216.6c0,14.8-11.9,22.8-30.5,22.8c-19.6,0-30.4-8.5-30.4-21.8c0-10.5,6.7-17.1,15-20.4
									c-7.4-3.5-13-9-13-19.2c0-13.6,10-21.3,28.2-21.3c19.3,0,28.8,8.2,28.8,20.2c0,9.9-6.6,16.7-13.2,19.6
									C1494.6,199.9,1501.4,205.4,1501.4,216.6z M1454.8,216.8c0,7.3,6.8,11.3,16.2,11.3c9.4,0,16.1-4.1,16.1-11.6
									c0-8.8-8.4-11.4-18.3-14.2C1461.4,204.4,1454.8,209.1,1454.8,216.8z M1485.5,178.3c0-7.5-6.6-10.7-14.6-10.7
									c-8.1,0-14.5,3.2-14.5,10.7c0,8.6,7.6,11.1,17.1,13.9C1480.6,188.9,1485.5,185,1485.5,178.3z"/>
								<path fill="#FFFFFF" d="M1570,216.6c0,14.8-11.9,22.8-30.5,22.8c-19.6,0-30.4-8.5-30.4-21.8c0-10.5,6.7-17.1,15-20.4
									c-7.4-3.5-13-9-13-19.2c0-13.6,10-21.3,28.2-21.3c19.3,0,28.8,8.2,28.8,20.2c0,9.9-6.6,16.7-13.2,19.6
									C1563.2,199.9,1570,205.4,1570,216.6z M1523.4,216.8c0,7.3,6.8,11.3,16.2,11.3c9.4,0,16.1-4.1,16.1-11.6
									c0-8.8-8.4-11.4-18.3-14.2C1530,204.4,1523.4,209.1,1523.4,216.8z M1554.2,178.3c0-7.5-6.6-10.7-14.6-10.7
									c-8.1,0-14.5,3.2-14.5,10.7c0,8.6,7.6,11.1,17.1,13.9C1549.3,188.9,1554.2,185,1554.2,178.3z"/>
								<path fill="#FFFFFF" d="M1373.3,272h28.6c28.9,0,38.5,17.6,38.5,40.1c0,22.3-10,40-38.5,40h-28.6V272z M1403.1,340.1
									c16.7,0,23-11.7,23-28.1c0-16.3-6.1-28-23.1-28h-15.4v56.1H1403.1z"/>
								<path fill="#FFFFFF" d="M1492.8,352.1l-1.4-8.2c-4.1,4.9-11,9.3-20.8,9.3c-12.7,0-20.9-7.6-20.9-22.3v-38.5h13.7v36.2
									c0,9.4,4,13,10.7,13c7.4,0,12.7-4.4,15.5-8v-41.1h13.7v59.7H1492.8z"/>
								<path fill="#FFFFFF" d="M1512.4,322.1c0-19.4,10.1-30.9,29.1-30.9s29.3,11.6,29.3,30.9c0,19.7-10.2,31.3-29.3,31.3
									S1512.4,341.8,1512.4,322.1z M1557.1,322.3c0-13.8-5.9-19.5-15.5-19.5s-15.5,5.7-15.5,19.5c0,13.6,5.9,19.4,15.5,19.4
									S1557.1,335.9,1557.1,322.3z"/>
							</g>
						</g>
						<g>
							<g>
								<g>
									<g>
										<polygon fill="#FFFFFF" points="776.2,462.1 776.2,514.7 810.2,514.7 810.2,506.3 785.6,506.3 785.6,462.1 										"/>
										<path fill="#FFFFFF" d="M820,469.9c-3.9,0-5.3-2.1-5.3-4.9c0-2.8,1.4-4.9,5.3-4.9c3.7,0,5.2,2.1,5.2,4.9
											C825.2,467.8,823.7,469.9,820,469.9 M815.5,475.5h9v39.2h-9V475.5z"/>
										<path fill="#FFFFFF" d="M857.5,514.7V491c0-6.2-2.7-8.6-7.1-8.6c-4.8,0-8.3,3-10.2,5.3v27h-8.9v-39.2h6.9l0.9,5.4
											c2.7-3.2,7.3-6.1,13.6-6.1c8.3,0,13.8,5,13.8,14.7v25.3H857.5z"/>
										<path fill="#FFFFFF" d="M897.5,514.7c-0.3-0.6-9.4-15.7-9.4-15.7H882v15.7h-9v-54.5h9V492c2-0.2,4.9-0.4,6.6-1.2
											c2.2-1.9,8.3-15.3,8.3-15.3h9.3c-1.1,3-6.8,15.5-10.2,19.9l11.4,19.4H897.5z"/>
										<polygon fill="#FFFFFF" points="918.5,514.7 918.5,460.1 927.8,460.1 927.8,505.3 927.8,514.7 										"/>
										<path fill="#FFFFFF" d="M959.1,513.8c-2.8,1-6,1.8-9.2,1.8c-6.2,0-11.7-2.8-11.7-12v-20.8H933v-7.2h5.3l1-9.5h7.8v9.5
											h11.2l-0.4,7.2h-10.9v20c0,4.1,2.7,4.8,5.7,4.8c2,0,4.2-0.6,5.9-1.5L959.1,513.8z"/>
										<path fill="#FFFFFF" d="M784.7,534.9h2.2v6.4l-0.1,1.9c1.1-1.2,2.9-2.4,5.4-2.4c3.9,0,6.4,3,6.4,8.2
											c0,5.4-2.8,8.5-8.2,8.5c-2.2,0-5.1-0.6-5.8-0.9V534.9z M786.9,555.4c1.1,0.3,2.5,0.4,3.4,0.4c3.9,0,6.1-2,6.1-6.7
											c0-4.2-1.8-6.3-4.5-6.3c-2.2,0-4,1.3-5,2.5V555.4z"/>
										<path fill="#FFFFFF" d="M800.3,561.5c0.7,0.2,1.5,0.4,2.1,0.4c2.1,0,3.1-2.2,4-4.6l-6-16.1h2.4l3.8,11.1l0.7,2.5l4.7-13.6
											h2.4l-6,16.2c-1.5,4.1-2.7,6.4-5.9,6.4c-0.7,0-1.5-0.1-2.4-0.3L800.3,561.5z"/>
										<polygon fill="#FFFFFF" points="842.1,557.3 841.4,544.4 841.5,540.9 840.1,544.4 835.9,552.3 833.2,552.3 829,544.4 
											827.6,541 827.7,544.4 827,557.3 823.3,557.3 824.4,535.7 828.6,535.7 833.9,546.1 834.6,547.9 835.2,546.1 840.5,535.7 
											844.7,535.7 845.8,557.3 										"/>
										<path fill="#FFFFFF" d="M862.9,556.6c-1.4,0.5-3.8,1-6,1c-5.6,0-8.2-3-8.2-8.2c0-5.4,2.7-8.6,7.6-8.6c5.1,0,7,3.1,7,6.8
											c0,0.8-0.1,1.7-0.2,2.5h-10.6c0.2,3.1,1.8,4.4,4.9,4.4c2.4,0,4.8-0.7,5.6-0.9L862.9,556.6z M859.6,547.4
											c0-2.3-1.1-3.7-3.3-3.7c-2.2,0-3.6,1.3-3.8,4h7.1V547.4z"/>
										<path fill="#FFFFFF" d="M878,557.3l-0.4-2.1c-1,1.2-2.8,2.4-5.2,2.4c-3.9,0-6.4-3-6.4-8.2c0-5.5,2.9-8.6,7.8-8.6
											c1.3,0,2.9,0.3,3.4,0.5l-0.1-1.6v-4.8h3.7v22.3H878z M877.2,544.3c-0.6-0.2-1.8-0.4-2.8-0.4c-3,0-4.7,1.6-4.7,5.5
											c0,3.3,1.3,5.1,3.5,5.1c1.8,0,3.3-1.3,3.9-2.2V544.3z"/>
										<path fill="#FFFFFF" d="M886.7,538.9c-1.6,0-2.2-0.9-2.2-2c0-1.2,0.6-2,2.2-2c1.5,0,2.1,0.9,2.1,2
											C888.8,538,888.2,538.9,886.7,538.9 M884.8,541.2h3.7v16.1h-3.7V541.2z"/>
										<path fill="#FFFFFF" d="M902.8,557.3l-0.3-2c-1.4,1.6-3.3,2.3-5.4,2.3c-3,0-5.4-1.4-5.4-4.5c0-3.6,3.4-4.8,7.2-4.8
											c1.1,0,2.1,0.1,3.1,0.2v-1.9c0-1.8-1.4-2.7-4.1-2.7c-1.8,0-3.6,0.4-4.9,0.9l-0.2-3.1c0.9-0.4,3-1,6-1
											c3.7,0,6.9,1.1,6.9,5.6v10.8H902.8z M901.9,550.8c-0.7-0.1-1.7-0.2-2.7-0.2c-2.1,0-4,0.5-4,2.3c0,1.7,1.7,1.9,2.6,1.9
											c2,0,3.3-0.9,4-1.7V550.8z"/>
										<polygon fill="#FFFFFF" points="910.7,557.3 910.7,539 904,539 904,535.7 921.2,535.7 921.2,539 914.5,539 914.5,557.3 
																					"/>
										<path fill="#FFFFFF" d="M932.6,556.6c-1.4,0.5-3.9,1-6,1c-5.6,0-8.2-3-8.2-8.2c0-5.4,2.7-8.6,7.6-8.6c5.1,0,7,3.1,7,6.8
											c0,0.8-0.1,1.7-0.2,2.5h-10.6c0.2,3.1,1.8,4.4,4.9,4.4c2.4,0,4.8-0.7,5.6-0.9L932.6,556.6z M929.3,547.4
											c0-2.3-1.1-3.7-3.3-3.7c-2.2,0-3.6,1.3-3.8,4h7.1V547.4z"/>
										<path fill="#FFFFFF" d="M946.5,557.3c-0.1-0.2-3.8-6.4-3.8-6.4h-2.5v6.4h-3.7v-22.4h3.7v13c0.8-0.1,2-0.2,2.7-0.5
											c0.9-0.8,3.4-6.3,3.4-6.3h3.8c-0.5,1.2-2.8,6.4-4.2,8.2l4.7,7.9H946.5z"/>
									</g>
									<path fill="#FFFFFF" d="M968.5,476.7h-2.2v6H965v-6h-2.2v-1.1h5.8V476.7z M974,480.6l1.9-5.1h2v7.2h-1.3v-5.6h0l-2.1,5.6
										h-1l-2.1-5.6h0v5.6H970v-7.2h2L974,480.6z"/>
								</g>
								<g>
									<g>
										<path fill="#FFFFFF" d="M659.5,510.8l-0.6-0.6l0,0l-14.2-14.2l-0.6-0.6l0.6-0.6l45.9-45.9c-3.7-3.4-8.5-5.2-13.5-5.2
											c-5.2,0-10.1,2-13.8,5.5l-0.4,0.4L617,495.3l43.1,43.1C667.2,530.6,667,518.4,659.5,510.8z"/>
										<path fill="#FFFFFF" d="M617,495.3l45.9-45.9l0.4-0.4c3.7-3.6,8.6-5.5,13.8-5.5c5,0,9.8,1.9,13.5,5.2l-45.9,45.9l-0.6,0.6
											l0.6,0.6l14.2,14.2l0,0l0.6,0.6c7.5,7.6,7.7,19.8,0.6,27.6L617,495.3z"/>
									</g>
									<path fill="#FFFFFF" d="M739.8,498l-0.3-0.3l-45.9-45.9L650.6,495c7.8,7.1,20,6.9,27.6-0.6l0.7-0.6l0,0l14.2-14.2l0.6-0.6
										l0.6,0.6l45.9,45.9c3.4-3.7,5.2-8.5,5.2-13.5C745.4,506.7,743.5,501.8,739.8,498z"/>
									<g>
										<path fill="#FFFFFF" d="M675.9,529.4l-0.7,0.6l0,0L661,544.3l-0.6,0.6l-0.6-0.6l-45.9-45.9c-3.4,3.7-5.2,8.5-5.2,13.5
											c0,5.2,1.9,10,5.5,13.8l0,0l0.4,0.4l45.9,45.9l43.1-43.1C695.6,521.7,683.5,521.9,675.9,529.4z"/>
									</g>
									<g>
										<path fill="#FFFFFF" d="M737.1,528.6l-43.1-43.1c-7.1,7.8-6.9,20,0.6,27.6l0.6,0.6l0,0l14.2,14.2l0.6,0.6l-0.6,0.6
											l-45.9,45.9c3.7,3.4,8.5,5.2,13.5,5.2c5.2,0,10.1-2,13.9-5.6l0.3-0.3L737.1,528.6z"/>
									</g>
									<g>
										<path fill="#FFFFFF" d="M739.8,498l-0.3-0.3l-45.9-45.9L650.6,495c7.8,7.1,20,6.9,27.6-0.6l0.7-0.6l0,0l14.2-14.2l0.6-0.6
											l0.6,0.6l45.9,45.9c3.4-3.7,5.2-8.5,5.2-13.5C745.4,506.7,743.5,501.8,739.8,498z"/>
									</g>
								</g>
							</g>
							<g>
								<g>
									<g>
										<g>
											<g>
												<path fill="#FFFFFF" d="M1542,517c-12.9,0-23.3-10.4-23.3-23.3c0-12.8,10.4-23.3,23.3-23.3c7.7,0,14.5,3.7,18.8,9.5
													l10,0c-5.1-10.7-16.1-18.1-28.8-18.1c-16.2,0-29.6,12.1-31.6,27.7c-2,0-19.1,0-19.9,0c-0.8,0-0.6-0.3-0.6-0.3
													s0-13.9,0-15.5c0-1.6,1.7-2.2,1.7-2.2s19.7,0,20.7,0c0.9,0,0.3-0.5,0.3-0.5v-10.4l-0.3-0.5c0,0-19.2,0-24.4,0
													c-2.3,0-4.8,1.8-6.3,3.9c-1.9,2.6-2.5,5.5-2.5,5.5s0,53.3,0,54.4c0,1.1,1.6,1.6,1.6,1.6s7.6,0,9,0
													c1.4,0,0.5-0.2,0.5-0.2s0-26.2,0-27c0-0.8,0.5-0.5,0.5-0.5h19.9c2.1,15.6,15.4,27.6,31.6,27.6
													c12.6,0,23.5-7.2,28.7-17.8l-10.2,0.1C1556.3,513.4,1549.6,517,1542,517"/>
												<path fill="#FFFFFF" d="M1542,482.6c3.8,0,7.2,1.7,9.2,4.6l9.1,0c-2.7-7.6-9.9-13-18.4-13c-10.8,0-19.5,8.7-19.5,19.5
													c0,10.8,8.7,19.5,19.5,19.5c8.4,0,15.5-5.3,18.3-12.7l-9.5,0.1c-2,2.6-5.2,4.2-8.7,4.2c-6.1,0-11.1-5-11.1-11.1
													C1530.9,487.6,1535.9,482.6,1542,482.6"/>
											</g>
											<g>
												<path fill="#FFFFFF" d="M1388.3,515.7v9.7c-1.1,0.1-2.1,0.2-3.2,0.2c-18,0-32.7-14.7-32.7-32.7
													c0-18,14.7-32.7,32.7-32.7c1.1,0,2.2,0.1,3.2,0.2v9.7c-1.1-0.2-2.1-0.2-3.2-0.2c-12.7,0-23.1,10.4-23.1,23.1
													c0,12.7,10.4,23.1,23.1,23.1C1386.2,516,1387.3,515.9,1388.3,515.7z"/>
												<path fill="#FFFFFF" d="M1418.8,487.9h18.9v10h-18.9c2.3,10.3,11.5,18.1,22.6,18.1c1.1,0,2.2-0.1,3.3-0.2v9.7
													c-1.1,0.1-2.2,0.2-3.3,0.2c-18,0-32.7-14.7-32.7-32.7c0-18,14.7-32.7,32.7-32.7c1.1,0,2.2,0.1,3.3,0.2v9.7
													c-1.1-0.2-2.2-0.2-3.3-0.2C1430.3,469.7,1421.1,477.5,1418.8,487.9z"/>
											</g>
										</g>
									</g>
								</g>
							</g>
							<g>
								<path fill="#FFFFFF" d="M1190.9,569.2V580h-2.5v-23.5h15.6v2.2h-13.1v8.4h11.5v2.1H1190.9z"/>
								<path fill="#FFFFFF" d="M1223.2,579.5c-0.5,0.2-3.5,0.8-6.2,0.8c-7.4,0-10.8-4.6-10.8-12c0-7.5,3.5-12.1,11-12.1
									c2.8,0,5.6,0.6,6,0.8l-0.1,2.3c-1.4-0.5-3.7-0.9-5.7-0.9c-5,0-8.8,2.3-8.8,10c0,7.3,3.5,9.7,8.7,9.7c2.2,0,4.4-0.4,5.7-0.9
									L1223.2,579.5z"/>
								<path fill="#FFFFFF" d="M1242.8,579.5c-0.5,0.2-3.5,0.8-6.2,0.8c-7.4,0-10.8-4.6-10.8-12c0-7.5,3.5-12.1,11-12.1
									c2.8,0,5.6,0.6,6,0.8l-0.1,2.3c-1.4-0.5-3.7-0.9-5.7-0.9c-5,0-8.8,2.3-8.8,10c0,7.3,3.5,9.7,8.7,9.7c2.2,0,4.4-0.4,5.7-0.9
									L1242.8,579.5z"/>
								<path fill="#FFFFFF" d="M1252.6,580v-23.5h2.5V580H1252.6z"/>
								<path fill="#FFFFFF" d="M1259.5,556.6h7.7c7.9,0,10.9,5.1,10.9,11.7c0,6.6-3.1,11.7-10.9,11.7h-7.7V556.6z M1267.3,577.9
									c6.1,0,8.3-4,8.3-9.6c0-5.5-2.2-9.5-8.4-9.5h-5.3v19.1H1267.3z"/>
								<path fill="#FFFFFF" d="M1283.7,566.8c-1.1,0-1.6-0.7-1.6-1.6c0-0.8,0.5-1.5,1.6-1.5c1.1,0,1.6,0.7,1.6,1.5
									C1285.3,566,1284.8,566.8,1283.7,566.8z M1283.7,580.3c-1.1,0-1.6-0.7-1.6-1.6c0-0.8,0.5-1.5,1.6-1.5c1.1,0,1.6,0.7,1.6,1.5
									C1285.3,579.6,1284.8,580.3,1283.7,580.3z"/>
								<path fill="#FFFFFF" d="M1295.7,580v-2.2l13-17.4l1.6-1.8l-2.5,0.2h-12v-2.2h17.1v2.2l-12.9,17.3l-1.7,2l2.5-0.2h12.2v2.2
									H1295.7z"/>
								<path fill="#FFFFFF" d="M1327,580v-5.6h-10.9l-0.8-2.1l10.3-15.7h3.8v15.7h3.6v2.1h-3.6v5.6H1327z M1327,561.1l0-2.9
									l-1.7,2.7l-7.6,11.4h9.3V561.1z"/>
								<path fill="#FFFFFF" d="M1341.8,580v-21.3h-7.9v-2.2h18.1v2.2h-7.8V580H1341.8z"/>
								<path fill="#FFFFFF" d="M1353.8,571v-2.1h9.1v2.1H1353.8z"/>
								<path fill="#FFFFFF" d="M1366.6,580v-23.5h2.5v21.2h12.1v2.3H1366.6z"/>
								<path fill="#FFFFFF" d="M1383.7,580v-23.5h2.5V580H1383.7z"/>
								<path fill="#FFFFFF" d="M1406.5,580l-11.5-16.3l-2.3-3.8l0.3,3.7V580h-2.4v-23.5h2.4l11.6,16.7l2.1,3.5l-0.2-3.8v-16.4h2.4
									V580H1406.5z"/>
								<path fill="#FFFFFF" d="M1428.3,580c-0.1-0.2-7.4-10.1-7.4-10.1h-5V580h-2.5v-23.5h2.5v11.3c1.5,0,4.1-0.1,5.2-0.4
									c1.5-1.1,7.4-10.9,7.4-10.9h2.6c-0.8,1.6-6.5,10.6-8,12.3l8,11.2H1428.3z"/>
								<path fill="#FFFFFF" d="M1433.6,580v-23.5h2.5V580H1433.6z"/>
								<path fill="#FFFFFF" d="M1446.3,580v-21.3h-7.9v-2.2h18.1v2.2h-7.8V580H1446.3z"/>
								<path fill="#FFFFFF" d="M1458.1,577c0.2,0.1,3.8,1.2,7.4,1.2c3.7,0,6.4-1.3,6.4-4.3c0-6.1-14-3.4-14-11.3
									c0-4.2,3.4-6.2,8.8-6.2c3.4,0,6.4,1,6.8,1.1l-0.1,2.3c-1.5-0.7-4.9-1.2-6.6-1.2c-3.9,0-6.4,1.2-6.4,4c0,5.6,14,3,14,11.4
									c0,4.6-3.6,6.6-8.8,6.6c-4,0-7.5-1.1-7.5-1.1L1458.1,577z"/>
								<path fill="#FFFFFF" d="M1478.8,580l8.2-19.3l1.1-2.1l-3,0.2h-8.8v-2.2h14.3l0.2,1.8l-9.3,21.6H1478.8z"/>
								<path fill="#FFFFFF" d="M1506.9,558.9c-1.5-0.4-3-0.6-4-0.6c-5.1,0-7.1,3.5-7.3,9.2c1.4-0.9,3.6-1.8,6.4-1.8
									c4.7,0,7.1,2.8,7.1,6.9c0,4.8-3,7.6-7.8,7.6c-6.2,0-8.2-4.7-8.2-11.3c0-8.5,3.1-12.8,9.5-12.8c1.3,0,3,0.2,4.5,0.5
									L1506.9,558.9z M1501.2,578.3c2.6,0,5.3-1.3,5.3-5.5c0-3.6-2.3-4.9-4.9-4.9c-2.4,0-4.7,0.9-6.1,1.9
									C1495.6,575,1497.1,578.3,1501.2,578.3z"/>
								<path fill="#FFFFFF" d="M1528.7,573.9c0,4-3.2,6.5-8.5,6.5c-5.4,0-8.5-2.5-8.5-6.2c0-3.4,2.3-5.4,5-6.3
									c-2.5-0.9-4.4-2.5-4.4-5.7c0-3.7,2.8-6,7.8-6c5.3,0,8,2.4,8,5.7c0,3.3-2.5,5.3-4.4,6
									C1526.4,568.8,1528.7,570.4,1528.7,573.9z M1514.2,574.1c0,2.8,2.7,4.2,6.1,4.2c3.4,0,6-1.4,6-4.3c0-3.4-3.1-4.2-6.7-5.2
									C1516.8,569.4,1514.2,571.1,1514.2,574.1z M1525.7,562.2c0-2.8-2.5-3.9-5.5-3.9c-3,0-5.4,1.2-5.4,3.9c0,3.2,2.9,4,6.4,4.9
									C1523.8,566.1,1525.7,564.7,1525.7,562.2z"/>
								<path fill="#FFFFFF" d="M1548.6,573.9c0,4-3.2,6.5-8.5,6.5c-5.4,0-8.5-2.5-8.5-6.2c0-3.4,2.3-5.4,5-6.3
									c-2.5-0.9-4.4-2.5-4.4-5.7c0-3.7,2.8-6,7.8-6c5.3,0,8,2.4,8,5.7c0,3.3-2.5,5.3-4.4,6
									C1546.3,568.8,1548.6,570.4,1548.6,573.9z M1534,574.1c0,2.8,2.7,4.2,6.1,4.2c3.4,0,6-1.4,6-4.3c0-3.4-3.1-4.2-6.7-5.2
									C1536.6,569.4,1534,571.1,1534,574.1z M1545.5,562.2c0-2.8-2.5-3.9-5.5-3.9c-3,0-5.4,1.2-5.4,3.9c0,3.2,2.9,4,6.4,4.9
									C1543.7,566.1,1545.5,564.7,1545.5,562.2z"/>
								<path fill="#FFFFFF" d="M1552.2,556.6h7.7c7.9,0,10.9,5.1,10.9,11.7c0,6.6-3.1,11.7-10.9,11.7h-7.7V556.6z M1560,577.9
									c6.1,0,8.3-4,8.3-9.6c0-5.5-2.2-9.5-8.4-9.5h-5.3v19.1H1560z"/>
							</g>
							<g>
								<g>
									<g>
										<g>
											<path fill="#FFFFFF" d="M1071.9,539.3c-16.7-11.5-29.6-27.9-36.7-47.2c-3-8.2-4.9-16.9-5.6-26c-3.2,6.8-5,14.5-5,22.5
												c0,26.4,19.3,48.4,44.5,52.5c2.2,0.4,4.4,0.6,6.6,0.7c-0.8-0.5-1.6-1-2.4-1.5C1072.9,540,1072.4,539.6,1071.9,539.3z"/>
											<path fill="#FFFFFF" d="M1052.2,488.7c0,18.9,9.9,35.5,24.7,45c-6.9-13.4-10.8-28.6-10.8-44.7c0-16.4,4-31.9,11.2-45.5
												C1062.2,452.9,1052.2,469.6,1052.2,488.7z"/>
											<path fill="#FFFFFF" d="M1136.3,465.9c-0.7,9-2.5,17.6-5.5,25.7c-7,19.5-20.1,36.2-37,47.7c-0.5,0.3-0.9,0.6-1.4,0.9
												c-0.8,0.5-1.6,1-2.4,1.5c2.3-0.1,4.5-0.3,6.7-0.6c25.3-4.1,44.7-26,44.7-52.5C1141.5,480.5,1139.6,472.8,1136.3,465.9z"
												/>
											<path fill="#FFFFFF" d="M1113.7,488.7c0-19-10-35.7-25-45.1c7.1,13.6,11.1,29,11.1,45.4c0,16.1-3.9,31.2-10.7,44.6
												C1103.8,524.1,1113.7,507.6,1113.7,488.7z"/>
										</g>
									</g>
								</g>
								<g>
									<g>
										<path fill="#FFFFFF" d="M1087.7,559.6c-0.1,0-0.1-0.1-0.2-0.1c-0.1,0-0.1-0.1-0.2-0.1c-0.1,0-0.1-0.1-0.2-0.1
											c-1.5-1-3.2-1.6-5.1-1.8c-6.2-0.6-11.8,3.9-12.5,10.1c-0.5,4.7,1.9,9,5.8,11.1c0.2,0.1,0.4,0.2,0.6,0.3
											c0.2,0.1,0.3,0.1,0.5,0.2c5,2.2,10.6,1.1,14.5-2.3l-1.1-1.2l-1.8-1.8c-1.1,0.9-2.3,1.6-3.8,1.9c-0.7,0.2-1.3,0.2-2,0.3
											c0,0-0.1,0-0.1,0c-0.1,0-0.1,0-0.2,0c-0.2,0-0.3,0-0.5,0c-0.6,0-1.2-0.2-1.7-0.4c-2.3-0.8-4-2.6-4.7-4.7h1h10.4h2.6h1.3
											h1.7c0.1-0.3,0.1-0.7,0.2-1C1092.7,565.8,1090.8,561.9,1087.7,559.6z M1075.3,566.7c0-0.1,0-0.1,0-0.2
											c0.3-1.3,1-2.4,1.9-3.2c0,0,0.1-0.1,0.1-0.1c0,0,0.1-0.1,0.1-0.1c0,0,0.1-0.1,0.1-0.1c1.4-1.1,3.2-1.5,5-1.2
											c2.5,0.5,4.3,2.5,4.7,4.9H1075.3z"/>
										<path fill="#FFFFFF" d="M1112.5,559.6c-0.1,0-0.1-0.1-0.2-0.1c-0.1,0-0.1-0.1-0.2-0.1c-0.1,0-0.1-0.1-0.2-0.1
											c-1.5-1-3.2-1.6-5.1-1.8c-6.2-0.6-11.8,3.9-12.5,10.1c-0.5,4.7,1.9,9,5.8,11.1c0.2,0.1,0.4,0.2,0.6,0.3
											c0.2,0.1,0.3,0.1,0.5,0.2c5,2.2,10.6,1.1,14.5-2.3l-1.1-1.2l-1.8-1.8c-1.1,0.9-2.3,1.6-3.8,1.9c-0.7,0.2-1.3,0.2-2,0.3
											c0,0-0.1,0-0.1,0c-0.1,0-0.1,0-0.2,0c-0.2,0-0.3,0-0.5,0c-0.6,0-1.2-0.2-1.7-0.4c-2.3-0.8-4-2.6-4.7-4.7h1h10.4h2.6h1.3
											h1.7c0.1-0.3,0.1-0.7,0.2-1C1117.4,565.8,1115.6,561.9,1112.5,559.6z M1100.1,566.7c0-0.1,0-0.1,0-0.2
											c0.3-1.3,1-2.4,1.9-3.2c0,0,0.1-0.1,0.1-0.1c0,0,0.1-0.1,0.1-0.1c0,0,0.1-0.1,0.1-0.1c1.4-1.1,3.2-1.5,5-1.2
											c2.5,0.5,4.3,2.5,4.7,4.9H1100.1z"/>
										<path fill="#FFFFFF" d="M1063,559.6c-0.1,0-0.1-0.1-0.2-0.1c-0.1,0-0.1-0.1-0.2-0.1c-0.1,0-0.1-0.1-0.2-0.1
											c-1.5-1-3.2-1.6-5.1-1.8c-6.2-0.6-11.8,3.9-12.5,10.1c-0.5,4.7,1.9,9,5.8,11.1c0.2,0.1,0.4,0.2,0.6,0.3
											c0.2,0.1,0.3,0.1,0.5,0.2c5,2.2,10.6,1.1,14.5-2.3l-1.1-1.2l-1.8-1.8c-1.1,0.9-2.3,1.6-3.8,1.9c-0.7,0.2-1.3,0.2-2,0.3
											c0,0-0.1,0-0.1,0c-0.1,0-0.1,0-0.2,0c-0.2,0-0.3,0-0.5,0c-0.6,0-1.2-0.2-1.7-0.4c-2.3-0.8-4-2.6-4.7-4.7h1h10.4h2.6h1.3
											h1.7c0.1-0.3,0.1-0.7,0.2-1C1068,565.8,1066.1,561.9,1063,559.6z M1050.6,566.7c0-0.1,0-0.1,0-0.2c0.3-1.3,1-2.4,1.9-3.2
											c0,0,0.1-0.1,0.1-0.1c0,0,0.1-0.1,0.1-0.1c0,0,0.1-0.1,0.1-0.1c1.4-1.1,3.2-1.5,5-1.2c2.5,0.5,4.3,2.5,4.7,4.9H1050.6z"/>
										<path fill="#FFFFFF" d="M1136.8,554.3v6.9c-1.9-1.9-4.5-3.1-7.3-3.1c-5.9,0-10.6,5-10.6,11.1c0,6.1,4.8,11.1,10.6,11.1
											c2.8,0,5.4-1.2,7.3-3.1v3.1h4.9v-28.1L1136.8,554.3z M1130,575.4c-3.3,0-6-2.8-6-6.2c0-3.4,2.7-6.2,6-6.2
											c3.3,0,6,2.8,6,6.2C1136,572.6,1133.3,575.4,1130,575.4z"/>
										<path fill="#FFFFFF" d="M1035.8,571.1c1.3,0.1,2.1,0.7,2.3,1.6c0.3,1.2-0.6,2.3-1.5,2.7c-2.3,1-7.2,0.2-9.9-2l-2.4,3.6
											c3.2,2.6,6.3,3.3,9.5,3.3c5.1,0,9-2.3,9-7.2c0-7.7-9.1-6.5-11.1-7.2c-0.8-0.3-1.8-0.7-1.8-2.2c0-1.3,0.9-2.3,2.1-2.5
											c2.8-0.4,5.2,0.6,7.3,2.1l2.8-3.2c-3-2.2-5.5-2.9-8.5-2.9c-4.8,0-8.6,2.6-8.6,7.1C1025.5,571.4,1033.4,571,1035.8,571.1z"
											/>
									</g>
								</g>
							</g>
						</g>
						<rect x="608.6" y="403.6" fill="#FFFFFF" width="962.2" height="5"/>
					</g>
				</g>
			</g>
		</g>
		<g transform="matrix(1, 0, 0, 1, 3.79616, 7.73856)">
			<g>
				<g transform="matrix(0.5, 0, 0, 0.5, 3.40384, 3.33071)">
					<g>
						<g>
							<g>
								<rect x="695.5" y="388.1" fill="#A7A9AC" width="22.2" height="64.7"/>
								<rect x="794.6" y="388.1" fill="#A7A9AC" width="22.2" height="64.7"/>
								<rect x="893.6" y="388.1" fill="#A7A9AC" width="22.2" height="64.7"/>
							</g>
							<g>
								<g>
									<rect x="695.8" y="199.4" fill="#A7A9AC" width="22.2" height="64.7"/>
									<rect x="794.8" y="199.4" fill="#A7A9AC" width="22.2" height="64.7"/>
									<rect x="893.9" y="199.4" fill="#A7A9AC" width="22.2" height="64.7"/>
								</g>
							</g>
						</g>
						<rect x="751.9" y="313.6" fill="#A7A9AC" width="107.8" height="107.8"/>
						<g>
							<rect x="676.5" y="250.5" fill="#303030" width="258.9" height="151.1"/>
							<polygon fill="#3D3D3D" points="676.1,250.5 935.1,250.5 921.4,264.2 689.8,264.2 							"/>
							<polygon points="676.1,401.6 935.1,401.6 921.4,387.9 689.8,387.9 							"/>
							<polygon fill="#3D3D3D" points="676.1,250.5 676.1,401.6 689.8,387.9 689.8,264.2 							"/>
							<polygon points="935.1,250.5 935.1,401.6 921.4,387.9 921.4,264.2 							"/>
							<circle fill="#1F1F1F" cx="806" cy="328.4" r="29.2"/>
						</g>
					</g>
				</g>
			</g>
		</g>
		<g>
			<g>
				<g>
					<rect x="384.8" y="347.1" fill="#A7A9AC" width="24.7" height="11.1"/>
					<rect x="384.8" y="283.1" fill="#A7A9AC" width="24.7" height="11.1"/>
				</g>
				<rect x="325.4" y="315.1" fill="#A7A9AC" width="17.9" height="11.1"/>
				<g>
					<g>
						<rect x="343.3" y="279.4" fill="#303030" width="41.6" height="82.4"/>
						<polygon points="348.3,356.8 343.3,361.8 384.8,361.8 384.8,361.8 379.8,356.8 						"/>
						<polygon fill="#3D3D3D" points="348.3,284.4 343.3,279.4 343.3,361.8 348.3,356.8 						"/>
						<polygon fill="#3D3D3D" points="348.3,284.4 343.3,279.4 384.8,279.4 384.8,279.4 379.8,284.4 						"/>
						<polygon points="379.8,356.8 384.8,361.8 384.8,279.4 379.8,284.4 						"/>
					</g>
					<circle fill="#1F1F1F" cx="375" cy="352.5" r="2"/>
				</g>
			</g>
			<g>
				<g>
					<rect x="417.9" y="283.1" fill="#A7A9AC" width="24.7" height="11.1"/>
					<rect x="417.9" y="347.1" fill="#A7A9AC" width="24.7" height="11.1"/>
				</g>
				<rect x="484.1" y="315.1" fill="#A7A9AC" width="17.9" height="11.1"/>
				<g>
					<g>
						<rect x="442.6" y="279.4" fill="#303030" width="41.6" height="82.4"/>
						<polygon fill="#3D3D3D" points="479.1,284.4 484.1,279.4 442.6,279.4 442.6,279.4 447.5,284.4 						"/>
						<polygon points="479.1,356.8 484.1,361.8 484.1,279.4 479.1,284.4 						"/>
						<polygon points="479.1,356.8 484.1,361.8 442.6,361.8 442.6,361.8 447.5,356.8 						"/>
						<polygon fill="#3D3D3D" points="447.6,284.4 442.6,279.4 442.6,361.8 447.6,356.8 						"/>
					</g>
					<circle fill="#1F1F1F" cx="452.4" cy="288.7" r="2"/>
				</g>
			</g>
			<g>
				<g>
					<rect x="417.9" y="378.1" fill="#A7A9AC" width="24.7" height="11.1"/>
					<rect x="417.9" y="442.1" fill="#A7A9AC" width="24.7" height="11.1"/>
				</g>
				<rect x="484.1" y="410.1" fill="#A7A9AC" width="17.9" height="11.1"/>
				<g>
					<g>
						<rect x="442.6" y="374.4" fill="#303030" width="41.6" height="82.4"/>
						<polygon fill="#3D3D3D" points="479.1,379.4 484.1,374.4 442.6,374.4 442.6,374.4 447.5,379.4 						"/>
						<polygon points="479.1,451.8 484.1,456.8 484.1,374.4 479.1,379.4 						"/>
						<polygon points="479.1,451.8 484.1,456.8 442.6,456.8 442.6,456.8 447.5,451.8 						"/>
						<polygon fill="#3D3D3D" points="447.6,379.4 442.6,374.4 442.6,456.8 447.6,451.8 						"/>
					</g>
					<circle fill="#1F1F1F" cx="452.4" cy="383.7" r="2"/>
				</g>
			</g>
			<g>
				<g>
					<rect x="417.9" y="473.1" fill="#A7A9AC" width="24.7" height="11.1"/>
					<rect x="417.9" y="537" fill="#A7A9AC" width="24.7" height="11.1"/>
				</g>
				<rect x="484.1" y="505.1" fill="#A7A9AC" width="17.9" height="11.1"/>
				<g>
					<g>
						<rect x="442.6" y="469.4" fill="#303030" width="41.6" height="82.4"/>
						<polygon fill="#3D3D3D" points="479.1,474.4 484.1,469.4 442.6,469.4 442.6,469.4 447.5,474.4 						"/>
						<polygon points="479.1,546.8 484.1,551.8 484.1,469.4 479.1,474.4 						"/>
						<polygon points="479.1,546.8 484.1,551.8 442.6,551.8 442.6,551.8 447.5,546.8 						"/>
						<polygon fill="#3D3D3D" points="447.6,474.4 442.6,469.4 442.6,551.8 447.6,546.8 						"/>
					</g>
					<circle fill="#1F1F1F" cx="452.4" cy="478.7" r="2"/>
				</g>
			</g>
			<g>
				<g>
					<rect x="417.9" y="568.1" fill="#A7A9AC" width="24.7" height="11.1"/>
					<rect x="417.9" y="632" fill="#A7A9AC" width="24.7" height="11.1"/>
				</g>
				<rect x="484.1" y="600.1" fill="#A7A9AC" width="17.9" height="11.1"/>
				<g>
					<g>
						<rect x="442.6" y="564.4" fill="#303030" width="41.6" height="82.4"/>
						<polygon fill="#3D3D3D" points="479.1,569.4 484.1,564.4 442.6,564.4 442.6,564.4 447.5,569.4 						"/>
						<polygon points="479.1,641.8 484.1,646.8 484.1,564.4 479.1,569.4 						"/>
						<polygon points="479.1,641.8 484.1,646.8 442.6,646.8 442.6,646.8 447.5,641.8 						"/>
						<polygon fill="#3D3D3D" points="447.6,569.4 442.6,564.4 442.6,646.8 447.6,641.8 						"/>
					</g>
					<g>
						<circle fill="#1F1F1F" cx="474.3" cy="637.5" r="2"/>
					</g>
				</g>
			</g>
			<g>
				<g>
					<rect x="384.8" y="442.1" fill="#A7A9AC" width="24.7" height="11.1"/>
					<rect x="384.8" y="378.1" fill="#A7A9AC" width="24.7" height="11.1"/>
				</g>
				<rect x="325.4" y="410.1" fill="#A7A9AC" width="17.9" height="11.1"/>
				<g>
					<g>
						<rect x="343.3" y="374.4" fill="#303030" width="41.6" height="82.4"/>
						<polygon points="348.3,451.8 343.3,456.8 384.8,456.8 384.8,456.8 379.8,451.8 						"/>
						<polygon fill="#3D3D3D" points="348.3,379.4 343.3,374.4 343.3,456.8 348.3,451.8 						"/>
						<polygon fill="#3D3D3D" points="348.3,379.4 343.3,374.4 384.8,374.4 384.8,374.4 379.8,379.4 						"/>
						<polygon points="379.8,451.8 384.8,456.8 384.8,374.4 379.8,379.4 						"/>
					</g>
					<circle fill="#1F1F1F" cx="375" cy="447.5" r="2"/>
				</g>
			</g>
			<g>
				<g>
					<rect x="384.8" y="537" fill="#A7A9AC" width="24.7" height="11.1"/>
					<rect x="384.8" y="473.1" fill="#A7A9AC" width="24.7" height="11.1"/>
				</g>
				<rect x="325.4" y="505.1" fill="#A7A9AC" width="17.9" height="11.1"/>
				<g>
					<g>
						<rect x="343.3" y="469.4" fill="#303030" width="41.6" height="82.4"/>
						<polygon points="348.3,546.8 343.3,551.8 384.8,551.8 384.8,551.8 379.8,546.8 						"/>
						<polygon fill="#3D3D3D" points="348.3,474.4 343.3,469.4 343.3,551.8 348.3,546.8 						"/>
						<polygon fill="#3D3D3D" points="348.3,474.4 343.3,469.4 384.8,469.4 384.8,469.4 379.8,474.4 						"/>
						<polygon points="379.8,546.8 384.8,551.8 384.8,469.4 379.8,474.4 						"/>
					</g>
				</g>
			</g>
		</g>
		<g>
			<g>
				
					<rect x="330.5" y="591.1" transform="matrix(4.495586e-11 1 -1 4.495586e-11 967.2452 244.3728)" fill="#CCCCCC" width="61.9" height="29.5"/>
				
					<rect x="334.2" y="594.7" transform="matrix(4.476401e-11 1 -1 4.476401e-11 967.2452 244.3728)" fill="#F1F2F2" width="54.5" height="22.2"/>
				
					<rect x="348.7" y="594.7" transform="matrix(4.485460e-11 1 -1 4.485460e-11 967.2452 244.3728)" fill="#F7E8AD" width="25.5" height="22.2"/>
			</g>
			<text transform="matrix(0 1 -1 0 381.2861 576.6336)" fill="#FFFFFF" font-family="'OCRA'" font-size="27.2px">D13</text>
		</g>
	</g>
</g>
</svg>
